<svg width="24" height="24" viewBox="0 0 24 24" fill="none" xmlns="http://www.w3.org/2000/svg">
<path d="M11.2476 8.44854L5.59756 14.1085C5.50383 14.2015 5.42943 14.3121 5.37867 14.434C5.3279 14.5558 5.30176 14.6865 5.30176 14.8185C5.30176 14.9506 5.3279 15.0813 5.37866 15.2031C5.42943 15.325 5.50383 15.4356 5.59756 15.5285C5.78492 15.7148 6.03837 15.8193 6.30256 15.8193C6.56674 15.8193 6.82019 15.7148 7.00756 15.5285L12.0076 10.5785L16.9576 15.5285C17.1449 15.7148 17.3984 15.8193 17.6626 15.8193C17.9267 15.8193 18.1802 15.7148 18.3676 15.5285C18.462 15.4359 18.5372 15.3255 18.5887 15.2036C18.6402 15.0817 18.667 14.9509 18.6676 14.8185C18.667 14.6862 18.6402 14.5554 18.5887 14.4335C18.5372 14.3116 18.462 14.2012 18.3676 14.1085L12.7176 8.44854C12.6239 8.34704 12.5103 8.26603 12.3838 8.21062C12.2573 8.15522 12.1207 8.12661 11.9826 8.12661C11.8445 8.12661 11.7078 8.15522 11.5814 8.21062C11.4549 8.26603 11.3412 8.34704 11.2476 8.44854Z" fill="white"/>
</svg>
