<svg width="none" height="none" viewBox="0 0 18 18" fill="none" xmlns="http://www.w3.org/2000/svg">
<path d="M10.0575 8.9999L13.2825 5.7824C13.4237 5.64117 13.5031 5.44962 13.5031 5.2499C13.5031 5.05017 13.4237 4.85862 13.2825 4.71739C13.1413 4.57617 12.9497 4.49683 12.75 4.49683C12.5503 4.49683 12.3587 4.57617 12.2175 4.71739L9.00002 7.9424L5.78252 4.71739C5.64129 4.57617 5.44974 4.49683 5.25002 4.49683C5.05029 4.49683 4.85874 4.57617 4.71752 4.71739C4.57629 4.85862 4.49695 5.05017 4.49695 5.2499C4.49695 5.44962 4.57629 5.64117 4.71752 5.7824L7.94252 8.9999L4.71752 12.2174C4.64722 12.2871 4.59142 12.3701 4.55335 12.4615C4.51527 12.5529 4.49567 12.6509 4.49567 12.7499C4.49567 12.8489 4.51527 12.9469 4.55335 13.0383C4.59142 13.1297 4.64722 13.2127 4.71752 13.2824C4.78724 13.3527 4.87019 13.4085 4.96158 13.4466C5.05298 13.4846 5.15101 13.5042 5.25002 13.5042C5.34902 13.5042 5.44705 13.4846 5.53845 13.4466C5.62984 13.4085 5.71279 13.3527 5.78252 13.2824L9.00002 10.0574L12.2175 13.2824C12.2872 13.3527 12.3702 13.4085 12.4616 13.4466C12.553 13.4846 12.651 13.5042 12.75 13.5042C12.849 13.5042 12.9471 13.4846 13.0384 13.4466C13.1298 13.4085 13.2128 13.3527 13.2825 13.2824C13.3528 13.2127 13.4086 13.1297 13.4467 13.0383C13.4848 12.9469 13.5044 12.8489 13.5044 12.7499C13.5044 12.6509 13.4848 12.5529 13.4467 12.4615C13.4086 12.3701 13.3528 12.2871 13.2825 12.2174L10.0575 8.9999Z" fill="none"/>
</svg>
