<svg width="none" height="none" viewBox="0 0 18 18" fill="none" xmlns="http://www.w3.org/2000/svg">
<path d="M9.53235 11.655L13.7699 7.41005C13.8401 7.34033 13.8959 7.25737 13.934 7.16598C13.9721 7.07459 13.9917 6.97656 13.9917 6.87755C13.9917 6.77854 13.9721 6.68051 13.934 6.58911C13.8959 6.49772 13.8401 6.41477 13.7699 6.34505C13.6293 6.20536 13.4392 6.12695 13.2411 6.12695C13.043 6.12695 12.8529 6.20536 12.7124 6.34505L8.96235 10.0575L5.24985 6.34505C5.10933 6.20536 4.91924 6.12695 4.7211 6.12695C4.52296 6.12695 4.33287 6.20536 4.19235 6.34505C4.12148 6.41451 4.06511 6.49734 4.02648 6.58875C3.98786 6.68015 3.96776 6.77832 3.96735 6.87755C3.96776 6.97678 3.98786 7.07494 4.02648 7.16635C4.06511 7.25775 4.12148 7.34059 4.19235 7.41005L8.42985 11.655C8.50008 11.7312 8.58532 11.7919 8.68019 11.8335C8.77507 11.875 8.87752 11.8965 8.9811 11.8965C9.08468 11.8965 9.18713 11.875 9.282 11.8335C9.37688 11.7919 9.46212 11.7312 9.53235 11.655V11.655Z" fill="#61646B"/>
</svg>
