<svg width="20" height="21" viewBox="0 0 20 21" fill="none" xmlns="http://www.w3.org/2000/svg">
<path fill-rule="evenodd" clip-rule="evenodd" d="M10 20.5C15.5228 20.5 20 16.0228 20 10.5C20 4.97715 15.5228 0.5 10 0.5C4.47715 0.5 0 4.97715 0 10.5C0 16.0228 4.47715 20.5 10 20.5ZM6.29289 6.79289C6.68342 6.40237 7.31658 6.40237 7.70711 6.79289L10 9.08579L12.2929 6.79289C12.6834 6.40237 13.3166 6.40237 13.7071 6.79289C14.0976 7.18342 14.0976 7.81658 13.7071 8.20711L11.4142 10.5L13.7071 12.7929C14.0976 13.1834 14.0976 13.8166 13.7071 14.2071C13.3166 14.5976 12.6834 14.5976 12.2929 14.2071L10 11.9142L7.70711 14.2071C7.31658 14.5976 6.68342 14.5976 6.29289 14.2071C5.90237 13.8166 5.90237 13.1834 6.29289 12.7929L8.58579 10.5L6.29289 8.20711C5.90237 7.81658 5.90237 7.18342 6.29289 6.79289Z" fill="#AFB1B6"/>
</svg>
