<svg width="20" height="20" viewBox="0 0 20 20" fill="none" xmlns="http://www.w3.org/2000/svg">
<path fill-rule="evenodd" clip-rule="evenodd" d="M6 6C6 3.79086 7.79086 2 10 2C12.2091 2 14 3.79086 14 6C14 8.20914 12.2091 10 10 10C7.79086 10 6 8.20914 6 6ZM13.7142 10.7125C15.1064 9.61372 16 7.91121 16 6C16 2.68629 13.3137 0 10 0C6.68629 0 4 2.68629 4 6C4 7.91121 4.8936 9.61372 6.28579 10.7125C2.60205 12.187 0 15.7896 0 20H2C2 15.5817 5.58172 12 10 12C14.4183 12 18 15.5817 18 20H20C20 15.7896 17.3979 12.187 13.7142 10.7125Z" fill="none"/>
</svg>
