<svg width="25" height="24" viewBox="0 0 25 24" fill="none" xmlns="http://www.w3.org/2000/svg">
<path fill-rule="evenodd" clip-rule="evenodd" d="M12.9163 2C10.1549 2 7.91629 4.23858 7.91629 7C7.91629 9.76142 10.1549 12 12.9163 12C15.6777 12 17.9163 9.76142 17.9163 7C17.9163 4.23858 15.6777 2 12.9163 2ZM9.91629 7C9.91629 5.34315 11.2594 4 12.9163 4C14.5731 4 15.9163 5.34315 15.9163 7C15.9163 8.65685 14.5731 10 12.9163 10C11.2594 10 9.91629 8.65685 9.91629 7Z" fill="#19191B"/>
<path d="M8.91629 14C7.59021 14 6.31844 14.5268 5.38076 15.4645C4.44307 16.4021 3.91629 17.6739 3.91629 19V21C3.91629 21.5523 4.36401 22 4.91629 22C5.46858 22 5.91629 21.5523 5.91629 21V19C5.91629 18.2043 6.23236 17.4413 6.79497 16.8787C7.35758 16.3161 8.12064 16 8.91629 16H16.9163C17.7119 16 18.475 16.3161 19.0376 16.8787C19.6002 17.4413 19.9163 18.2044 19.9163 19V21C19.9163 21.5523 20.364 22 20.9163 22C21.4686 22 21.9163 21.5523 21.9163 21V19C21.9163 17.6739 21.3895 16.4021 20.4518 15.4645C19.5141 14.5268 18.2424 14 16.9163 14H8.91629Z" fill="#19191B"/>
</svg>
