<svg width="158" height="158" viewBox="0 0 158 158" fill="none" xmlns="http://www.w3.org/2000/svg">
<path fill-rule="evenodd" clip-rule="evenodd" d="M63.3417 120.223C85.41 126.428 96.148 102.613 115.056 104.425C125.407 105.417 146.038 110.444 145.992 73.8245C145.877 50.1833 124.086 44.2631 101.615 56.3874C95.0031 58.9732 89.7827 58.1718 84.1147 55.6025C78.4466 53.0332 71.1569 41.5632 57.4179 39.2035C16.0727 32.1024 -19.3035 96.9815 63.3417 120.223Z" fill="#0047FF"/>
<path fill-rule="evenodd" clip-rule="evenodd" d="M115.784 60.7449C116.198 60.5436 116.941 60.9339 116.51 61.5623C115.556 62.9534 119.246 65.7324 118.062 63.2836C117.935 63.0217 117.285 61.2111 118.205 62.1459C119.124 63.0806 120.405 67.2116 119.576 68.6349C118.849 69.8839 116.924 70.4781 114.297 70.5485L114.179 70.5512L114.123 70.5546C112.574 70.6265 111.399 69.668 110.641 67.8014L110.605 67.7103C109.837 65.7563 110.048 64.1899 111.289 63.1339C111.312 63.1148 111.336 63.0975 111.361 63.0824L111.4 63.0614L115.784 60.7449Z" fill="white"/>
<path fill-rule="evenodd" clip-rule="evenodd" d="M32.111 24.1771C31.9303 23.9208 31.6376 23.7731 31.3249 23.8114C31.0047 23.8503 30.737 24.0729 30.6396 24.3801L30.6136 24.4622C30.5939 24.5228 30.5704 24.5923 30.5429 24.6704C30.4644 24.8933 30.3691 25.1408 30.2566 25.4069C29.9368 26.1636 29.5431 26.9188 29.0731 27.6213C28.0592 29.1371 26.8375 30.1923 25.4053 30.5987C25.1815 30.6622 25.0515 30.8952 25.115 31.1191C25.1473 31.2327 27.2389 32.278 29.3741 32.0145C31.4452 31.7589 33.5621 30.1975 33.5791 30.0912L33.6052 29.87L33.6126 29.7958C33.7609 28.1871 33.4794 26.37 32.3961 24.6096C32.3061 24.4634 32.2111 24.3192 32.111 24.1771Z" fill="#E7EAEE"/>
<path fill-rule="evenodd" clip-rule="evenodd" d="M36.4209 24.645L36.4099 24.7301C36.2599 25.8192 35.8394 27.3359 35.0791 28.4799C34.1429 29.8884 32.8218 30.9656 31.4942 31.6598C29.579 32.6612 27.4943 32.8445 25.4416 31.5436L25.3511 31.4853C24.2724 30.7798 23.4538 30.4401 22.3307 30.7204C21.2075 31.0008 20.662 31.8188 20.1772 32.5777L20.1549 32.6098C20.0772 32.7136 19.9635 32.7856 19.8354 32.8109L17.7059 33.1482L18.4814 34.1115C18.7148 34.4036 18.8807 34.6141 18.9791 34.7431L19.8315 35.866C22.3718 39.1977 25.1056 42.3789 30.4367 41.2776L30.6174 41.2389C32.0298 40.9249 33.214 41.7681 34.6996 43.0109L35.017 43.2782C35.41 43.6108 36.598 44.6581 37.0843 45.1623L37.2432 45.3291L37.3898 45.4868C37.4203 45.5201 37.4495 45.5521 37.4771 45.5827L37.6286 45.7536L37.7217 45.6437C38.7274 44.433 39.3572 42.5892 39.6832 41.0681C39.8064 40.4934 39.8771 39.9431 39.9065 39.4354L39.9101 39.3693C39.9178 39.2209 39.9212 39.0913 39.9218 38.983V38.9027L39.7699 38.9472C38.0116 39.4459 36.0333 39.4955 34.103 39.2728C33.6367 39.219 38.7519 35.076 37.702 29.7105C37.4627 28.4876 37.3108 26.8526 36.8929 25.7429C36.761 25.3929 36.6244 25.0728 36.489 24.7866L36.4209 24.645Z" fill="white"/>
<path fill-rule="evenodd" clip-rule="evenodd" d="M116.007 61.4075L111.63 63.535C110.581 64.4276 110.403 65.7552 111.095 67.5177C111.338 68.1361 111.946 69.6092 111.946 69.0306C111.946 68.8498 116.007 66.1953 116.786 66.4551C117.506 66.6952 116.212 64.5304 115.849 63.535L116.007 61.3531L116.127 61.1357" fill="#E7EAEE"/>
<path fill-rule="evenodd" clip-rule="evenodd" d="M110.168 63.0042C110.459 63.0042 108.81 63.7793 108.895 65.2088C108.98 66.6384 110.097 69.2731 109.826 69.3769C109.554 69.4807 109.039 68.7126 108.935 68.4409C108.289 66.7504 108.167 66.0606 108.19 65.0745C108.22 63.7837 108.899 63.0042 110.168 63.0042Z" fill="#E7EAEE"/>
<ellipse cx="117.502" cy="64.4201" rx="1.13763" ry="2.56996" fill="#E7EAEE"/>
<path fill-rule="evenodd" clip-rule="evenodd" d="M38.0394 91.5168C38.0394 87.0576 38.5348 85.1188 43.8551 82.6851C54.7593 78.2777 54.7593 78.1078 75.649 70.0313C81.1735 67.9065 92.8203 72.9966 97.8849 70.8634C101.261 69.4413 104.419 68.3853 107.208 66.9749C107.478 68.7388 109.224 71.7253 109.84 72.2386C106.573 72.9241 103.413 73.9842 100.36 75.419C93.7601 78.5204 97.6711 77.6753 87.2172 87.5337C86.3313 88.3691 83.0757 90.274 78.3683 92.2582C78.3683 92.2582 68.8884 90.9851 65.0862 89.4036C61.2168 87.7941 55.3536 82.6851 55.3536 82.6851C55.3536 82.6851 48.5152 87.1464 44.5839 89.1517C42.7438 90.0903 38.0394 91.5168 38.0394 91.5168Z" fill="white"/>
<path fill-rule="evenodd" clip-rule="evenodd" d="M38.0394 89.1997C38.0394 88.153 37.9289 87.4223 38.0394 86.6144C38.4 83.9802 39.8127 82.6326 43.8843 80.7701C54.7884 76.3627 54.7593 75.7907 75.649 67.7142C81.1735 65.5894 92.8203 70.6795 97.8849 68.5463C101.261 67.1241 104.419 66.0681 107.208 64.6577C107.216 64.7083 106.926 67.1187 106.926 67.1187C106.926 67.1187 100.039 70.7552 95.4842 71.5263C90.6443 72.3455 83.9964 68.5463 77.3585 70.4149C67.2498 73.2605 43.9548 82.2046 41.1991 84.446C39.0337 86.2071 38.0394 89.1997 38.0394 89.1997Z" fill="#E7EAEE"/>
<path fill-rule="evenodd" clip-rule="evenodd" d="M32.111 24.1771C31.9303 23.9208 31.6376 23.7731 31.3249 23.8114C31.0047 23.8503 30.737 24.0729 30.6396 24.3801L30.6136 24.4622C30.5939 24.5228 30.5704 24.5923 30.5429 24.6704C30.4644 24.8933 30.3691 25.1408 30.2566 25.4069C29.9368 26.1636 29.5431 26.9188 29.0731 27.6213C28.0592 29.1371 26.8375 30.1923 25.4053 30.5987C25.1815 30.6622 25.0515 30.8952 25.115 31.1191C25.1785 31.3429 28.6582 29.7573 29.7735 28.0898C30.2756 27.3392 30.6935 26.5378 31.0328 25.7351C31.1352 25.4929 31.2243 25.2647 31.3006 25.0542L31.3377 24.9504C31.3676 24.8656 31.3933 24.7896 31.4151 24.7225C31.4206 24.6746 31.4257 24.6585 31.4304 24.6744C33.8442 26.3257 32.8953 30.4238 33.1271 30.4437C33.3484 30.4627 33.5445 30.3071 33.5791 30.0912L33.6052 29.87L33.6126 29.7958C33.7609 28.1871 33.4794 26.37 32.3961 24.6096C32.3061 24.4634 32.2111 24.3192 32.111 24.1771Z" fill="#E7EAEE"/>
<path fill-rule="evenodd" clip-rule="evenodd" d="M37.1369 24.1647L37.1901 24.2597L37.255 24.3815C37.294 24.4565 37.3379 24.5435 37.3857 24.6418C37.5513 24.9825 37.7185 25.3679 37.8786 25.7931C38.3293 26.9897 38.6444 28.2811 38.7519 29.6266C38.8979 31.4524 38.6343 33.1756 37.9669 34.7432L37.9097 34.8748C37.3674 36.0993 36.5774 37.2213 35.5518 38.228L35.4502 38.3264L35.5366 38.3306C37.0135 38.3926 38.474 38.2604 39.7579 37.851C40.0332 37.7633 40.3334 37.8086 40.5706 37.9736C40.8073 38.1382 40.9544 38.4032 40.9692 38.6912L40.9726 38.7806L40.9747 38.8987V38.9442C40.9747 39.109 40.9698 39.2938 40.9581 39.4963C40.9257 40.0557 40.8482 40.6591 40.7132 41.289C40.3317 43.0684 39.5691 44.7351 38.3225 46.1393C38.1571 46.3258 37.9244 46.4375 37.6769 46.4507L37.6197 46.452C37.3555 46.447 37.1143 46.3379 36.9428 46.1513L36.8172 46.0054L36.7557 45.9355L36.6248 45.7902L36.4815 45.6355C36.4317 45.5824 36.3799 45.528 36.3262 45.4723C35.8684 44.9977 35.3634 44.5272 34.8269 44.0943C33.3398 42.8944 31.9055 42.2169 30.6805 42.2904C28.6767 42.4108 27.0173 42.3171 25.4778 41.8852C23.4876 41.3268 21.9248 40.2311 20.8906 38.4869L20.8326 38.3875C20.2971 37.4537 19.5063 36.3781 18.5735 35.2585C18.2853 34.9125 18.0009 34.5835 17.7299 34.2792L17.6146 34.1504C17.43 33.945 17.2787 33.7813 17.2153 33.7146C16.9812 33.468 16.8998 33.114 17.0021 32.7904L17.0171 32.7466C17.1295 32.4442 17.3908 32.2201 17.7092 32.1573L19.4169 31.8197L19.4368 31.791C20.0479 30.9224 20.9203 30.1867 22.0793 29.8904C23.2881 29.5813 24.5601 29.85 25.8412 30.6629L25.9306 30.7205C27.6607 31.8521 29.3757 31.7896 31.0062 30.9371C32.1708 30.3281 33.2808 29.2941 34.122 28.0285C34.904 26.8518 35.3689 25.5939 35.402 24.6011C35.4159 24.1862 35.7021 23.8299 36.1045 23.7283C36.5074 23.6265 36.9286 23.8049 37.1369 24.1647ZM36.4209 24.6451L36.4099 24.7302C36.2599 25.8192 35.8394 27.3359 35.0791 28.48C34.1429 29.8885 32.8218 30.9657 31.4942 31.6599C29.579 32.6613 27.4943 32.8446 25.4416 31.5437L25.3511 31.4854C24.2724 30.7798 23.4538 30.4401 22.3307 30.7205C21.2075 31.0008 20.662 31.8188 20.1772 32.5778L20.155 32.6099C20.0772 32.7137 19.9636 32.7856 19.8354 32.8109L17.7059 33.1482L18.4814 34.1116C18.7148 34.4036 18.8807 34.6141 18.9791 34.7432L19.8315 35.8661C22.3718 39.1978 25.1056 42.3789 30.4367 41.2777L30.6174 41.2389C32.0298 40.925 33.214 41.7682 34.6996 43.011L35.017 43.2783C35.41 43.6108 36.598 44.6582 37.0843 45.1624L37.2432 45.3291L37.3898 45.4868C37.4204 45.5201 37.4495 45.5521 37.4771 45.5827L37.6287 45.7537L37.7217 45.6437C38.7274 44.4331 39.3572 42.5892 39.6832 41.0682C39.8064 40.4935 39.8771 39.9432 39.9065 39.4354L39.9102 39.3693C39.9178 39.2209 39.9212 39.0913 39.9218 38.9831V38.9028L39.7699 38.9473C38.0116 39.446 36.0333 39.4955 34.103 39.2728C33.6367 39.219 38.752 35.076 37.702 29.7105C37.4627 28.4877 37.3108 26.8527 36.8929 25.743C36.761 25.393 36.6244 25.0729 36.489 24.7867L36.4209 24.6451Z" fill="#E7EAEE"/>
<path fill-rule="evenodd" clip-rule="evenodd" d="M23.068 34.128C23.4746 34.128 23.8053 33.7972 23.8053 33.3907C23.8053 32.9841 23.4746 32.6533 23.068 32.6533C22.6614 32.6533 22.3307 32.9841 22.3307 33.3907C22.3307 33.7972 22.6614 34.128 23.068 34.128Z" fill="#00160A"/>
<ellipse cx="23.7" cy="36.1294" rx="1.15867" ry="0.948" fill="#FFB61D"/>
<ellipse cx="23.7" cy="36.1294" rx="1.15867" ry="0.948" fill="#FFB61D"/>
<path fill-rule="evenodd" clip-rule="evenodd" d="M37.1369 24.1647L37.1901 24.2597L37.255 24.3815C37.294 24.4565 37.3379 24.5435 37.3857 24.6418C37.5513 24.9825 37.7185 25.3679 37.8786 25.7931C38.3293 26.9897 38.6444 28.2811 38.7519 29.6266C38.8979 31.4524 38.6343 33.1756 37.9669 34.7432L37.9097 34.8748C37.3674 36.0993 36.5773 37.2213 35.5518 38.228L35.4501 38.3264L35.5366 38.3306C37.0134 38.3926 38.474 38.2604 39.7579 37.851C40.0332 37.7633 40.3334 37.8086 40.5706 37.9736C40.8073 38.1382 40.9544 38.4032 40.9692 38.6912L40.9726 38.7806L40.9747 38.8987V38.9442C40.9747 39.109 40.9698 39.2938 40.9581 39.4963C40.9257 40.0557 40.8482 40.6591 40.7132 41.289C40.3317 43.0684 39.569 44.7351 38.3225 46.1393C38.1571 46.3258 37.9243 46.4375 37.6769 46.4507L37.6197 46.452C37.3555 46.447 37.1143 46.3379 36.9428 46.1513L36.8172 46.0054L36.7556 45.9355L36.6248 45.7902L36.4815 45.6355C36.4317 45.5824 36.3799 45.528 36.3261 45.4723C35.8684 44.9977 35.3633 44.5272 34.8268 44.0943C33.3398 42.8944 31.9055 42.2169 30.6805 42.2904C28.6767 42.4108 27.0173 42.3171 25.4778 41.8852C23.4875 41.3268 21.9247 40.2311 20.8905 38.4869L20.8326 38.3875C20.2971 37.4537 19.5063 36.3781 18.5735 35.2585C18.2853 34.9125 18.0009 34.5835 17.7299 34.2792L17.6146 34.1504C17.4299 33.945 17.2787 33.7813 17.2153 33.7146C16.9812 33.468 16.8998 33.114 17.0021 32.7904L17.0171 32.7466C17.1294 32.4442 17.3907 32.2201 17.7092 32.1573L19.4169 31.8197L19.4368 31.791C20.0479 30.9224 20.9203 30.1867 22.0793 29.8904C23.22 29.5987 24.4171 29.8216 25.6249 30.5308C26.9627 30.0824 28.1114 29.059 29.0731 27.6213C29.5431 26.9187 29.9368 26.1636 30.2566 25.4069C30.3691 25.1408 30.4643 24.8933 30.5429 24.6703C30.5704 24.5922 30.5939 24.5228 30.6136 24.4622L30.6396 24.38C30.737 24.0729 31.0047 23.8502 31.3249 23.8114C31.6375 23.7731 31.9303 23.9207 32.111 24.1771C32.2111 24.3192 32.3061 24.4634 32.3961 24.6096C33.2369 25.976 33.5948 27.3767 33.6434 28.6876C33.8108 28.4761 33.9707 28.256 34.1219 28.0285C34.904 26.8518 35.3689 25.5939 35.402 24.6011C35.4158 24.1862 35.702 23.8299 36.1045 23.7283C36.5074 23.6265 36.9286 23.8049 37.1369 24.1647ZM31.0061 30.9371C29.4224 31.7652 27.7589 31.8478 26.0792 30.8148C27.2102 30.2919 29.0247 29.2093 29.7735 28.0898C30.2756 27.3392 30.6935 26.5377 31.0328 25.735C31.1351 25.4928 31.2242 25.2647 31.3006 25.0542L31.3377 24.9504C31.3676 24.8656 31.3932 24.7896 31.4151 24.7224C31.4206 24.6745 31.4257 24.6585 31.4304 24.6744C33.0349 25.772 33.1536 27.9508 33.1209 29.2943C32.4759 29.9824 31.7522 30.547 31.0061 30.9371ZM31.4942 31.6599C32.1369 31.3238 32.7781 30.898 33.3748 30.3883C33.4207 30.3616 33.4613 30.3264 33.4942 30.2846C34.084 29.7644 34.6265 29.1609 35.0791 28.48C35.8394 27.3359 36.2599 25.8192 36.4099 24.7302L36.4209 24.6451L36.489 24.7867C36.6244 25.0729 36.761 25.393 36.8929 25.743C37.1837 26.5152 37.3457 27.5419 37.498 28.507L37.498 28.5071L37.498 28.5072C37.5645 28.9289 37.6292 29.3388 37.702 29.7105C38.5067 33.823 35.6897 37.2172 34.5399 38.6025C34.1896 39.0247 33.9941 39.2603 34.103 39.2728C36.0333 39.4955 38.0116 39.446 39.7699 38.9473L39.9218 38.9028V38.9831C39.9212 39.0913 39.9178 39.2209 39.9101 39.3693L39.9065 39.4354C39.8771 39.9432 39.8064 40.4935 39.6832 41.0682C39.3572 42.5892 38.7274 44.4331 37.7217 45.6437L37.6286 45.7537L37.4771 45.5827C37.4495 45.5521 37.4203 45.5201 37.3898 45.4868L37.2432 45.3291L37.0843 45.1624C36.598 44.6582 35.41 43.6108 35.017 43.2783L34.6996 43.011C33.214 41.7682 32.0298 40.925 30.6174 41.2389L30.4367 41.2777C25.1056 42.3789 22.3718 39.1978 19.8315 35.8661L18.9791 34.7432C18.8807 34.6141 18.7148 34.4036 18.4814 34.1116L17.7059 33.1482L19.8354 32.8109C19.9635 32.7856 20.0772 32.7137 20.1549 32.6099L20.1772 32.5778C20.662 31.8188 21.2075 31.0008 22.3307 30.7205C23.4538 30.4401 24.2724 30.7798 25.3511 31.4854L25.4416 31.5437C27.4943 32.8446 29.579 32.6613 31.4942 31.6599ZM115.784 60.7448C116.198 60.5435 116.941 60.9338 116.51 61.5622C115.858 62.5133 116.583 64.7219 117.024 66.0671L117.024 66.0672C117.228 66.6895 117.372 67.1271 117.29 67.1697C117.033 67.3044 116.714 67.2047 116.58 66.9469C115.85 65.5509 115.431 64.4424 115.327 63.5998C115.275 63.1805 115.263 62.775 115.292 62.3836L115.296 62.3384L111.924 63.9779L111.881 64.0171C111.12 64.7314 110.785 65.5605 111.342 67.0293L111.375 67.1145C111.98 68.6545 113.003 69.7591 114.069 69.7132L114.152 69.7088C116.519 69.6614 117.934 68.9489 118.439 68.0816C119.074 66.991 119.246 65.7323 118.062 63.2835C117.935 63.0216 117.285 61.211 118.205 62.1458C119.124 63.0805 120.405 67.2115 119.576 68.6348C118.884 69.823 117.109 70.4186 114.676 70.5344C114.69 70.5963 114.693 70.6619 114.684 70.7285C114.453 72.2925 113.739 73.2763 112.545 73.561C111.633 73.7787 110.652 73.4903 109.753 72.7955C106.596 73.4736 103.54 74.5069 100.584 75.8957L100.146 76.1031C98.6385 76.8234 97.7738 77.3061 97.1424 77.7755C96.772 78.0508 96.4661 78.3327 96.1373 78.6955L96.0842 78.7559C95.9249 78.9406 95.5782 79.3641 95.1835 79.8462L95.1818 79.8483L95.1809 79.8495C94.6539 80.4932 94.0421 81.2405 93.6769 81.6631L93.5008 81.866C92.0175 83.5655 90.148 85.4938 87.5785 87.917L87.5066 87.983C86.5431 88.8439 83.9831 90.2993 80.7906 91.767C89.6011 91.454 95.954 88.0912 99.9103 81.673C100.084 81.3906 100.473 81.3375 100.716 81.563C107.52 87.8636 115.402 90.7794 124.395 90.324C133.411 89.8675 140.028 87.524 144.265 83.3167C144.471 83.1118 144.805 83.113 145.009 83.3194C145.214 83.5258 145.213 83.8592 145.007 84.0642C140.562 88.4779 131.125 91.7897 121.871 92.2583C112.871 92.714 107.501 89.0057 100.635 82.9107L100.467 82.7607L100.407 82.8531C96.0582 89.4434 86.6104 94.2501 77.1819 94.3181L76.8865 94.3191C67.2427 94.3191 61.6808 89.6496 55.1746 83.2673L55.1239 83.2172L55.1007 83.2371L54.5324 83.7152C48.4359 88.8457 43.8869 92.6738 37.0442 93.6518L36.8259 93.6823C29.1105 95.2433 17.4092 91.0853 15.6111 89.0472C13.9635 87.1797 15.8853 88.3405 16.4128 88.6592C16.461 88.6883 16.4976 88.7104 16.5187 88.7225C21.6253 91.6461 27.513 92.7595 34.5769 91.796C35.5518 91.663 36.5205 91.487 37.483 91.2678L37.4719 91.1641C37.1635 88.2346 37.1617 86.9543 37.6061 85.4847C38.2106 83.4858 39.6782 81.967 42.3183 80.7594L43.0453 80.438C46.3064 79.0007 48.8964 77.9217 51.5827 76.8733L51.7795 76.7967C52.0808 76.6795 52.386 76.5615 52.6976 76.442L53.0029 76.3256C53.1132 76.2865 54.552 75.7161 56.7392 74.849C61.7851 72.8486 70.8141 69.2691 76.7043 66.9918C77.9783 66.5018 79.5211 66.3389 81.4132 66.4366L81.5762 66.4456C82.9938 66.5291 84.388 66.7215 86.6737 67.1169L88.6818 67.4687C90.9243 67.8568 92.0109 68.0098 93.2794 68.1002C93.6783 68.1286 94.0574 68.1639 94.4175 68.1973C95.7515 68.3213 96.8251 68.4211 97.6805 68.0608C98.4414 67.7403 99.1873 67.4309 99.9182 67.1278L99.9183 67.1277C102.309 66.1362 104.538 65.2113 106.607 64.1827C106.749 63.2625 107.112 62.5832 107.68 62.1357C108.557 61.4456 109.797 61.434 110.873 61.8524C111.144 61.9578 111.279 62.263 111.173 62.5341C111.139 62.6218 110.92 62.5814 110.61 62.5242C109.961 62.4047 108.916 62.2118 108.332 62.9633C107.683 63.7992 107.467 65.0799 108.042 67.6016C108.459 69.4291 111.16 72.5364 112.301 72.5364C113.573 72.5364 113.871 71.3013 114.04 70.6009L114.05 70.5571C112.537 70.5962 111.388 69.6387 110.641 67.8013L110.605 67.7102C109.837 65.7562 110.048 64.1899 111.289 63.1339C111.312 63.1147 111.336 63.0975 111.361 63.0823L111.4 63.0613L115.784 60.7448ZM108.781 71.8434C108.728 71.7789 108.675 71.7129 108.623 71.6453C108.61 71.6314 108.597 71.6175 108.586 71.604C108.58 71.5969 108.574 71.5899 108.568 71.583C108.52 71.5247 108.471 71.4655 108.421 71.4052C108.012 70.9149 107.539 70.3469 107.169 69.5277L107.115 69.4083C106.521 68.0775 106.45 66.5827 106.487 65.35L106.492 65.2069L106.461 65.2227C104.006 66.4375 101.337 67.6562 98.4511 68.8787L98.0893 69.0316C96.8539 69.5519 95.3109 69.9195 93.3558 69.7932L93.2046 69.7829C91.8689 69.6877 90.7453 69.5281 88.3894 69.119L86.6305 68.8106C81.6722 67.9522 79.191 67.8182 77.1464 68.5827C77.1464 68.5827 46.6559 80.0523 42.7509 81.7198C40.3759 82.8061 39.5702 83.8284 38.588 85.4847C38.08 86.3415 38.1314 88.7048 38.167 90.3464C38.173 90.6218 38.1786 90.8769 38.181 91.1011C43.9462 89.6592 49.488 86.6617 54.81 82.1022C55.0198 81.9225 55.3328 81.9354 55.5271 82.1318C55.9577 82.5671 56.3954 82.9877 56.8404 83.3935L78.797 74.2203C78.8572 74.1951 78.9194 74.182 78.9809 74.1798C79.1463 74.1017 79.3246 74.0372 79.516 73.9863C81.4305 73.4773 82.9595 74.3054 84.0159 76.3438L85.9297 74.9478C86.212 74.7419 86.6128 74.8628 86.734 75.1905C88.4805 79.9106 87.9717 83.1446 85.0958 84.7051C82.1956 86.2788 79.6736 84.9812 77.7072 81.0479C77.6075 80.8483 77.6467 80.6177 77.7847 80.4623C77.3159 78.5581 77.229 77.0408 77.5479 75.9421L58.3111 84.6598C61.1876 86.9951 64.3461 88.7565 67.7891 89.9444C67.8678 89.8691 67.9531 89.8043 68.0369 89.7584C70.937 88.1698 78.082 86.3143 79.8469 85.8559C79.9996 85.8162 80.112 85.787 80.1779 85.7694C81.006 85.5476 80.1576 86.3213 79.9076 86.4366L79.8757 86.4501L69.4473 90.466C72.5496 91.3496 75.8714 91.7911 79.4145 91.7911C79.6159 91.7911 79.8162 91.7896 80.0152 91.7866L80.2485 91.635C82.4786 90.1855 86.2083 87.7613 86.8558 87.1507L87.1579 86.865C89.305 84.7815 90.903 82.7828 92.2978 81.0381C93.8282 79.1239 95.1142 77.5155 96.6126 76.4366C97.7776 75.5977 98.1999 75.406 99.1921 74.9556C99.4576 74.835 99.7639 74.696 100.136 74.5211C102.768 73.2842 105.757 72.568 108.563 71.8957L108.781 71.8434ZM79.7867 75.0043C81.3037 74.601 82.4399 75.3134 83.306 77.3029L81.0661 79.0778L78.754 79.99L78.6962 79.7362C78.063 76.8661 78.4755 75.3529 79.7867 75.0043ZM83.306 77.3029L81.0702 79.0762C81.1151 79.0584 81.1612 79.0473 81.2074 79.0423C81.2438 79.0384 81.2803 79.0384 81.3162 79.0421C81.4207 79.0527 81.5204 79.0943 81.6015 79.1622C81.652 79.2044 81.6951 79.2566 81.7276 79.3172C82.2552 80.2669 82.6631 80.4931 83.0773 80.2609C83.5159 80.0149 83.6536 79.0904 83.3333 77.4385L83.306 77.3029ZM54.2969 98.9279C54.5415 98.7705 56.2299 97.9467 54.7263 99.495C53.2228 101.043 41.5131 107.612 35.1923 107.976C29.1 108.326 23.6909 105.782 18.9848 102.452L18.8288 102.341L18.7977 102.381C18.5894 102.645 18.3753 102.885 18.1553 103.1L18.0607 103.191C17.662 103.565 16.9721 103.988 15.9753 104.481C15.7146 104.609 14.7931 104.728 15.2699 104.242C15.7467 103.755 16.7904 103.055 17.3982 102.654C17.7954 102.392 17.9208 102.085 18.0453 101.78C18.1113 101.619 18.177 101.458 18.2828 101.305C18.4527 101.059 18.7928 101.004 19.0319 101.183C23.6713 104.66 29.0909 106.514 35.1923 106.163C41.3188 105.81 47.6461 103.207 54.2969 98.9279ZM90.3311 102.286C90.5448 102.089 90.5448 100.681 90.3311 100.879C87.9647 103.062 83.0105 104.983 76.8971 105.334C70.776 105.687 65.9635 104.724 62.4503 102.465C62.2057 102.308 60.9946 101.892 61.7225 102.623C62.4503 103.355 70.6313 107.171 76.9576 106.807L77.1471 106.796C83.3806 106.416 87.7753 104.644 90.3311 102.286ZM86.01 76.3104L85.9784 76.2157L84.3927 77.3727L84.4218 77.5363C84.7407 79.4012 84.5232 80.6202 83.6388 81.1527L83.5925 81.1796C82.6706 81.6966 81.803 81.3314 81.0775 80.2692L81.0456 80.2219L78.9134 81.0831L78.9627 81.1727C80.5925 84.1138 82.3989 84.9317 84.5248 83.816L84.5934 83.7793C86.7284 82.6208 87.2543 80.2565 86.0838 76.5396L86.01 76.3104ZM23.8053 33.3907C23.8053 33.7973 23.4746 34.128 23.068 34.128C22.6614 34.128 22.3307 33.7972 22.3307 33.3907C22.3307 32.9841 22.6614 32.6534 23.068 32.6534C23.4746 32.6534 23.8053 32.9841 23.8053 33.3907Z" fill="#00160A"/>
</svg>
