<svg width="348" height="320" viewBox="0 0 348 320" fill="none" xmlns="http://www.w3.org/2000/svg">
<g clip-path="url(#clip0_2962_2165)">
<g filter="url(#filter0_d_2962_2165)">
<mask id="mask0_2962_2165" style="mask-type:luminance" maskUnits="userSpaceOnUse" x="36" y="16" width="227" height="280">
<path d="M243 16H56C44.9543 16 36 24.9543 36 36V276C36 287.046 44.9543 296 56 296H243C254.046 296 263 287.046 263 276V36C263 24.9543 254.046 16 243 16Z" fill="white"/>
</mask>
<g mask="url(#mask0_2962_2165)">
<path d="M243 16H56C44.9543 16 36 24.9543 36 36V276C36 287.046 44.9543 296 56 296H243C254.046 296 263 287.046 263 276V36C263 24.9543 254.046 16 243 16Z" fill="white"/>
<path d="M47.942 254.754C47.9029 254.363 47.7252 254.059 47.4088 253.84C47.0924 253.621 46.6881 253.512 46.1959 253.512C45.856 253.512 45.5572 253.566 45.2994 253.676C45.0455 253.781 44.8482 253.93 44.7076 254.121C44.567 254.312 44.4967 254.527 44.4967 254.766C44.4967 255.125 44.6451 255.402 44.942 255.598C45.2388 255.793 45.606 255.941 46.0435 256.043L46.8638 256.266C48.4928 256.66 49.3092 257.457 49.3131 258.656C49.3092 259.137 49.1822 259.564 48.9322 259.939C48.6861 260.314 48.3248 260.609 47.8482 260.824C47.3756 261.035 46.8131 261.141 46.1607 261.141C45.5318 261.141 44.983 261.041 44.5142 260.842C44.0494 260.639 43.6842 260.35 43.4185 259.975C43.1568 259.6 43.0123 259.156 42.9849 258.645H44.274C44.3092 259.09 44.5006 259.43 44.8482 259.664C45.1998 259.895 45.6373 260.012 46.1607 260.016C46.5201 260.016 46.8404 259.959 47.1217 259.846C47.4068 259.729 47.6295 259.566 47.7896 259.359C47.9537 259.148 48.0357 258.906 48.0357 258.633C48.0357 258.398 47.9674 258.201 47.8306 258.041C47.6939 257.881 47.5103 257.75 47.2799 257.648C47.0533 257.543 46.7701 257.445 46.4303 257.355L45.4224 257.086C44.7115 256.891 44.1646 256.609 43.7818 256.242C43.4029 255.875 43.2115 255.406 43.2076 254.836C43.2076 254.355 43.3385 253.932 43.6002 253.564C43.8658 253.193 44.2271 252.906 44.6842 252.703C45.1451 252.5 45.6607 252.398 46.231 252.398C46.7974 252.398 47.3033 252.5 47.7486 252.703C48.1939 252.902 48.5435 253.182 48.7974 253.541C49.0513 253.896 49.1842 254.301 49.1959 254.754H47.942ZM50.4559 252.516H55.7762V253.629H51.7449V256.195H55.4949V257.297H51.7449V259.887H55.8231V261H50.4559V252.516ZM57.1182 252.516H60.1417C60.7823 252.516 61.3213 252.635 61.7588 252.873C62.2003 253.107 62.5303 253.432 62.7491 253.846C62.9717 254.26 63.0831 254.734 63.0831 255.27C63.0831 255.801 62.9717 256.275 62.7491 256.693C62.5303 257.107 62.2003 257.434 61.7588 257.672C61.3174 257.906 60.7784 258.023 60.1417 258.023H58.4073V261H57.1182V252.516ZM60.0128 256.922C60.6104 256.926 61.0538 256.777 61.3428 256.477C61.6358 256.176 61.7823 255.773 61.7823 255.27C61.7823 254.762 61.6358 254.361 61.3428 254.068C61.0538 253.771 60.6104 253.621 60.0128 253.617H58.4073V256.922H60.0128Z" fill="#A3AED0"/>
<path d="M118.132 256.758C118.132 257.645 117.968 258.418 117.639 259.078C117.311 259.734 116.856 260.238 116.274 260.59C115.696 260.941 115.042 261.117 114.311 261.117C113.573 261.117 112.913 260.941 112.331 260.59C111.753 260.234 111.3 259.729 110.971 259.072C110.643 258.412 110.479 257.641 110.479 256.758C110.479 255.871 110.643 255.1 110.971 254.443C111.3 253.783 111.753 253.277 112.331 252.926C112.913 252.574 113.573 252.398 114.311 252.398C115.042 252.398 115.696 252.574 116.274 252.926C116.856 253.277 117.311 253.783 117.639 254.443C117.968 255.1 118.132 255.871 118.132 256.758ZM111.757 256.758C111.757 257.43 111.866 258.006 112.085 258.486C112.307 258.963 112.61 259.324 112.993 259.57C113.38 259.816 113.819 259.938 114.311 259.934C114.8 259.938 115.235 259.816 115.618 259.57C116.005 259.324 116.307 258.963 116.526 258.486C116.745 258.006 116.854 257.43 116.854 256.758C116.854 256.086 116.745 255.512 116.526 255.035C116.307 254.555 116.005 254.191 115.618 253.945C115.235 253.699 114.8 253.578 114.311 253.582C113.819 253.578 113.38 253.699 112.993 253.945C112.61 254.191 112.307 254.555 112.085 255.035C111.866 255.512 111.757 256.086 111.757 256.758ZM125.087 255.281C125.021 254.926 124.882 254.619 124.671 254.361C124.464 254.104 124.206 253.908 123.897 253.775C123.593 253.643 123.259 253.578 122.896 253.582C122.403 253.578 121.964 253.701 121.577 253.951C121.194 254.197 120.892 254.561 120.669 255.041C120.45 255.518 120.341 256.09 120.341 256.758C120.341 257.43 120.45 258.006 120.669 258.486C120.892 258.963 121.194 259.324 121.577 259.57C121.964 259.816 122.403 259.938 122.896 259.934C123.255 259.938 123.587 259.875 123.892 259.746C124.196 259.613 124.452 259.42 124.659 259.166C124.87 258.912 125.013 258.609 125.087 258.258L126.388 258.27C126.298 258.824 126.093 259.318 125.772 259.752C125.456 260.182 125.048 260.518 124.548 260.76C124.052 260.998 123.497 261.117 122.884 261.117C122.146 261.117 121.487 260.941 120.909 260.59C120.331 260.238 119.878 259.734 119.55 259.078C119.226 258.418 119.064 257.645 119.064 256.758C119.064 255.871 119.228 255.1 119.556 254.443C119.884 253.783 120.337 253.277 120.915 252.926C121.493 252.574 122.149 252.398 122.884 252.398C123.481 252.398 124.028 252.514 124.524 252.744C125.021 252.971 125.431 253.301 125.755 253.734C126.083 254.168 126.294 254.684 126.388 255.281H125.087ZM127.12 252.516H133.695V253.629H131.058V261H129.769V253.629H127.12V252.516Z" fill="#A3AED0"/>
<path d="M186.47 261H185.286L180.985 254.801H180.915V261H179.626V252.516H180.821L185.122 258.727H185.204V252.516H186.47V261ZM195.335 256.758C195.335 257.645 195.171 258.418 194.843 259.078C194.515 259.734 194.06 260.238 193.478 260.59C192.899 260.941 192.245 261.117 191.515 261.117C190.776 261.117 190.116 260.941 189.534 260.59C188.956 260.234 188.503 259.729 188.175 259.072C187.847 258.412 187.683 257.641 187.683 256.758C187.683 255.871 187.847 255.1 188.175 254.443C188.503 253.783 188.956 253.277 189.534 252.926C190.116 252.574 190.776 252.398 191.515 252.398C192.245 252.398 192.899 252.574 193.478 252.926C194.06 253.277 194.515 253.783 194.843 254.443C195.171 255.1 195.335 255.871 195.335 256.758ZM188.96 256.758C188.96 257.43 189.069 258.006 189.288 258.486C189.511 258.963 189.814 259.324 190.196 259.57C190.583 259.816 191.022 259.938 191.515 259.934C192.003 259.938 192.439 259.816 192.821 259.57C193.208 259.324 193.511 258.963 193.73 258.486C193.948 258.006 194.058 257.43 194.058 256.758C194.058 256.086 193.948 255.512 193.73 255.035C193.511 254.555 193.208 254.191 192.821 253.945C192.439 253.699 192.003 253.578 191.515 253.582C191.022 253.578 190.583 253.699 190.196 253.945C189.814 254.191 189.511 254.555 189.288 255.035C189.069 255.512 188.96 256.086 188.96 256.758ZM199.22 259.418H199.314L201.669 252.516H203.064L200.005 261H198.517L195.47 252.516H196.865L199.22 259.418Z" fill="#A3AED0"/>
<path d="M249.311 261V252.516H252.147C252.975 252.516 253.688 252.686 254.286 253.025C254.887 253.361 255.346 253.848 255.663 254.484C255.983 255.117 256.143 255.871 256.143 256.746C256.143 257.625 255.981 258.385 255.657 259.025C255.337 259.662 254.872 260.15 254.262 260.49C253.653 260.83 252.921 261 252.065 261H249.311ZM251.995 259.875C252.948 259.871 253.665 259.602 254.145 259.066C254.626 258.531 254.866 257.758 254.866 256.746C254.866 255.738 254.628 254.969 254.151 254.438C253.679 253.906 252.983 253.641 252.065 253.641H250.6V259.875H251.995ZM257.356 252.516H262.677V253.629H258.646V256.195H262.396V257.297H258.646V259.887H262.724V261H257.356V252.516ZM269.761 255.281C269.695 254.926 269.556 254.619 269.345 254.361C269.138 254.104 268.88 253.908 268.572 253.775C268.267 253.643 267.933 253.578 267.57 253.582C267.077 253.578 266.638 253.701 266.251 253.951C265.868 254.197 265.566 254.561 265.343 255.041C265.124 255.518 265.015 256.09 265.015 256.758C265.015 257.43 265.124 258.006 265.343 258.486C265.566 258.963 265.868 259.324 266.251 259.57C266.638 259.816 267.077 259.938 267.57 259.934C267.929 259.938 268.261 259.875 268.566 259.746C268.87 259.613 269.126 259.42 269.333 259.166C269.544 258.912 269.687 258.609 269.761 258.258L271.062 258.27C270.972 258.824 270.767 259.318 270.447 259.752C270.13 260.182 269.722 260.518 269.222 260.76C268.726 260.998 268.171 261.117 267.558 261.117C266.82 261.117 266.161 260.941 265.583 260.59C265.005 260.238 264.552 259.734 264.224 259.078C263.9 258.418 263.738 257.645 263.738 256.758C263.738 255.871 263.902 255.1 264.23 254.443C264.558 253.783 265.011 253.277 265.589 252.926C266.167 252.574 266.824 252.398 267.558 252.398C268.156 252.398 268.702 252.514 269.199 252.744C269.695 252.971 270.105 253.301 270.429 253.734C270.757 254.168 270.968 254.684 271.062 255.281H269.761Z" fill="#A3AED0"/>
<path d="M68.0908 56.8574V69.2168H66.6279V62.9688H65.2607V68.5879H63.8388V57.0898H65.2607V61.7246H66.6279V56.8574H68.0908ZM58.0146 66.1406V58.2793H59.5459V64.8008C60.6123 64.7803 61.7744 64.6846 63.0732 64.4316L63.2236 65.7578C61.5556 66.0518 60.1406 66.1406 58.8349 66.1406H58.0146ZM79.3807 56.8574V61.6836H81.2127V62.9551H79.3807V69.1895H77.8631V56.8574H79.3807ZM69.6327 65.8125C72.6405 64.3086 74.2674 62.2168 74.5682 59.4004H70.3026V58.1426H76.1131C76.1063 61.7725 74.6025 64.9648 70.4941 66.9883L69.6327 65.8125ZM91.7341 60.5352V61.7793H96.6419V63.0098H85.3492V61.7793H90.2302V60.5352H91.7341ZM85.8825 60.125C88.1111 59.9883 89.5876 59.2363 89.8952 58.3613H86.3883V57.1992H95.6169V58.3613H92.0758C92.3697 59.2432 93.8327 59.9883 96.095 60.125L95.6169 61.2598C93.3268 61.082 91.6383 60.3096 90.9957 59.1338C90.3463 60.3027 88.6579 61.082 86.3747 61.2598L85.8825 60.125ZM86.3883 65.5391V64.3906H90.2164V63.3926H91.7478V64.3906H95.5759V65.5391H86.3883ZM87.2087 67.6172C87.2019 66.5576 88.5621 65.9902 90.9684 65.9902C93.361 65.9902 94.7559 66.5576 94.7559 67.6172C94.7559 68.6973 93.361 69.2646 90.9684 69.2578C88.5621 69.2646 87.2019 68.6973 87.2087 67.6172ZM88.7674 67.6172C88.7606 68.0342 89.5397 68.2461 90.9684 68.2461C92.4244 68.2461 93.1695 68.0342 93.1832 67.6172C93.1695 67.1934 92.4244 67.0156 90.9684 67.0156C89.5397 67.0156 88.7606 67.1934 88.7674 67.6172ZM100.905 57.7598C102.764 57.7598 104.104 59.4551 104.118 62.1211C104.104 64.8076 102.764 66.4961 100.905 66.4961C99.0249 66.4961 97.685 64.8076 97.692 62.1211C97.685 59.4551 99.0249 57.7598 100.905 57.7598ZM99.1549 62.1211C99.1479 64.0215 99.8659 65.1221 100.905 65.1289C101.951 65.1221 102.648 64.0215 102.655 62.1211C102.648 60.2344 101.951 59.127 100.905 59.127C99.8659 59.127 99.1479 60.2344 99.1549 62.1211ZM105.745 69.2168V56.8574H107.262V61.6016H109.163V62.8867H107.262V69.2168H105.745ZM119.482 56.8574V61.7793H121.382V63.0371H119.482V69.2168H117.978V56.8574H119.482ZM109.734 59.9746V58.7578H112.66V57.0352H114.177V58.7578H117.021V59.9746H109.734ZM110.308 63.6934C110.294 61.9844 111.621 60.7744 113.425 60.7812C115.203 60.7744 116.522 61.9844 116.529 63.6934C116.522 65.3955 115.203 66.5918 113.425 66.5918C111.621 66.5918 110.294 65.3955 110.308 63.6934ZM111.757 63.6934C111.75 64.6982 112.455 65.3408 113.425 65.334C114.375 65.3408 115.066 64.6982 115.08 63.6934C115.066 62.6885 114.375 62.0254 113.425 62.0254C112.455 62.0254 111.75 62.6885 111.757 63.6934ZM132.03 60.3574V61.5605H123.471V57.3086H124.975V60.3574H132.03ZM122.008 64.1992V62.9961H133.301V64.1992H122.008ZM123.362 68.9297V65.293H124.879V67.6992H132.112V68.9297H123.362ZM140.473 57.8008C142.113 57.7939 143.18 59.4824 143.193 62.2031C143.18 64.9307 142.113 66.626 140.473 66.6191C138.859 66.626 137.807 64.9307 137.807 62.2031C137.807 59.4824 138.859 57.7939 140.473 57.8008ZM139.215 62.2031C139.208 64.1377 139.687 65.1768 140.473 65.1699C141.293 65.1768 141.778 64.1377 141.785 62.2031C141.778 60.2754 141.293 59.2295 140.473 59.2363C139.687 59.2295 139.208 60.2754 139.215 62.2031ZM144.137 68.6152V57.0762H145.572V61.6289H146.885V56.8574H148.348V69.2168H146.885V62.8867H145.572V68.6152H144.137ZM160.212 56.8574V69.2168H158.708V56.8574H160.212ZM150.614 66.1133V58.0605H152.118V64.8145C153.848 64.7871 155.693 64.6367 157.601 64.2539L157.792 65.5254C155.618 65.9766 153.602 66.1201 151.681 66.1133H150.614ZM167.359 58.1973V61.4102H168.795V57.0762H170.244V68.6152H168.795V62.6406H167.359V66.0312H162.506V58.1973H167.359ZM163.928 64.8281H165.937V59.4004H163.928V64.8281ZM171.324 69.2168V56.8574H172.787V69.2168H171.324ZM184.624 56.8574V69.2305H183.093V56.8574H184.624ZM174.739 62.1211C174.732 59.4551 176.093 57.7598 177.966 57.7598C179.818 57.7598 181.185 59.4551 181.192 62.1211C181.185 64.8076 179.818 66.4961 177.966 66.4961C176.093 66.4961 174.732 64.8076 174.739 62.1211ZM176.202 62.1211C176.202 64.0215 176.92 65.1221 177.966 65.1289C179.005 65.1221 179.716 64.0215 179.716 62.1211C179.716 60.2344 179.005 59.127 177.966 59.127C176.92 59.127 176.202 60.2344 176.202 62.1211ZM191.06 59.0449C191.053 60.7881 192.031 62.4834 193.931 63.2012L193.084 64.377C191.764 63.8574 190.821 62.8252 190.308 61.5469C189.775 62.9209 188.777 64.0078 187.355 64.5547L186.535 63.3516C188.504 62.6406 189.522 60.8975 189.529 59.0449V57.5684H191.06V59.0449ZM188.763 68.9707V65.1426H190.308V67.7402H197.185V68.9707H188.763ZM193.138 62.2168V61H195.394V59.7832H193.138V58.5527H195.394V56.8711H196.912V66.0449H195.394V62.2168H193.138ZM202.292 59.5918V58.1016H210.181V59.5918H207.132V68H205.355V59.5918H202.292ZM220.09 63.0508C220.097 66.25 218.142 68.1367 215.551 68.1367C212.947 68.1367 211.005 66.2432 211.012 63.0508C211.005 59.8516 212.947 57.9648 215.551 57.9648C218.142 57.9648 220.097 59.8516 220.09 63.0508ZM212.803 63.0508C212.796 65.3135 213.938 66.5371 215.551 66.5371C217.171 66.5371 218.306 65.3135 218.299 63.0508C218.306 60.7881 217.171 59.5645 215.551 59.5645C213.938 59.5645 212.796 60.7881 212.803 63.0508ZM221.796 68V58.1016H225.515C227.784 58.1016 228.994 59.4824 229.001 61.3828C228.994 63.2764 227.771 64.6504 225.487 64.6504H223.573V68H221.796ZM223.573 63.1875H225.241C226.581 63.1807 227.183 62.4287 227.183 61.3828C227.183 60.3232 226.581 59.5918 225.241 59.5918H223.573V63.1875ZM237.499 68.1367C235.387 68.1367 233.876 66.9883 233.835 65.3203H235.626C235.674 66.1133 236.467 66.6396 237.499 66.6328C238.586 66.6396 239.372 66.0381 239.372 65.1562C239.372 64.2676 238.606 63.6318 237.321 63.625H236.433V62.2578H237.321C238.374 62.2578 239.105 61.6699 239.099 60.8086C239.105 59.9746 238.476 59.4141 237.513 59.4141C236.583 59.4141 235.783 59.9336 235.749 60.7676H234.04C234.081 59.1064 235.592 57.9648 237.526 57.9648C239.536 57.9648 240.835 59.1953 240.821 60.7129C240.835 61.8203 240.097 62.6201 239.017 62.8457V62.9277C240.411 63.1123 241.204 64.0078 241.19 65.252C241.204 66.9268 239.639 68.1367 237.499 68.1367Z" fill="#A3AED0"/>
</g>
</g>
<path fill-rule="evenodd" clip-rule="evenodd" d="M257 84C251.477 84 247 88.4772 247 94V103C247 108.523 251.477 113 257 113H261.675L266.5 122L271.325 113H335C340.523 113 345 108.523 345 103V94C345 88.4772 340.523 84 335 84H257Z" fill="#4318FF"/>
<path d="M268.237 98.42V100.539C269.358 100.478 270.493 100.382 271.56 100.225L271.655 101.182C268.887 101.694 265.913 101.715 263.726 101.715L263.562 100.648C264.546 100.642 265.715 100.635 266.938 100.594V98.42H268.237ZM263.89 97.832C265.715 97.306 266.856 96.027 266.925 94.523H264.218V93.471H266.938V92.0078H268.237V93.471H270.985V94.523H268.237C268.306 95.966 269.468 97.203 271.3 97.695L270.698 98.707C269.235 98.29 268.142 97.401 267.588 96.239C267.055 97.463 265.975 98.399 264.505 98.816L263.89 97.832ZM272.325 104.189V91.9121H273.624V104.189H272.325ZM278.768 92.8965C280.381 92.8896 281.427 94.551 281.434 97.203C281.427 99.862 280.381 101.53 278.768 101.523C277.169 101.53 276.129 99.862 276.129 97.203C276.129 94.551 277.169 92.8896 278.768 92.8965ZM277.333 97.203C277.333 99.151 277.886 100.3 278.768 100.293C279.671 100.3 280.231 99.151 280.231 97.203C280.231 95.248 279.671 94.106 278.768 94.113C277.886 94.106 277.333 95.248 277.333 97.203ZM282.542 103.561V92.1445H283.772V96.711H285.29V91.9121H286.534V104.162H285.29V97.777H283.772V103.561H282.542ZM292.485 92.7871C294.419 92.7803 295.814 93.977 295.821 95.699C295.814 97.422 294.419 98.618 292.485 98.625C290.557 98.618 289.142 97.422 289.149 95.699C289.142 93.977 290.557 92.7803 292.485 92.7871ZM288.561 100.471C290.789 100.471 293.879 100.45 296.559 100.061L296.654 101.004C293.886 101.537 290.912 101.551 288.725 101.551L288.561 100.471ZM290.434 95.699C290.42 96.786 291.295 97.49 292.485 97.49C293.674 97.49 294.549 96.786 294.549 95.699C294.549 94.626 293.674 93.908 292.485 93.908C291.295 93.908 290.42 94.626 290.434 95.699ZM297.324 104.189V91.9121H298.623V104.189H297.324ZM308.091 92.8281C309.923 92.835 311.229 94.503 311.236 97.121C311.229 99.767 309.923 101.435 308.091 101.428C306.259 101.435 304.954 99.767 304.96 97.121C304.954 94.503 306.259 92.835 308.091 92.8281ZM306.204 97.121C306.198 99.069 306.977 100.266 308.091 100.266C309.226 100.266 309.992 99.069 309.992 97.121C309.992 95.2 309.226 93.997 308.091 93.99C306.977 93.997 306.198 95.2 306.204 97.121ZM313.054 104.162V91.9121H314.353V96.711H316.322V97.805H314.353V104.162H313.054ZM327.454 91.9121V104.189H326.155V91.9121H327.454ZM317.733 97.121C317.733 94.503 319.053 92.835 320.905 92.8281C322.724 92.835 324.063 94.503 324.063 97.121C324.063 99.767 322.724 101.435 320.905 101.428C319.053 101.435 317.733 99.767 317.733 97.121ZM318.991 97.121C318.984 99.069 319.764 100.266 320.905 100.266C322.026 100.266 322.806 99.069 322.806 97.121C322.806 95.2 322.026 93.997 320.905 93.99C319.764 93.997 318.984 95.2 318.991 97.121Z" fill="white"/>
<path fill-rule="evenodd" clip-rule="evenodd" d="M260 146C254.477 146 250 150.477 250 156V165C250 170.523 254.477 175 260 175H264.675L269.5 184L274.325 175H338C343.523 175 348 170.523 348 165V156C348 150.477 343.523 146 338 146H260Z" fill="#6AD2FF"/>
<path d="M276.706 153.912V161.145H275.407V159.326H272.741V160.324H267.054V154.828H272.741V155.84H275.407V153.912H276.706ZM268.339 159.285H271.47V155.867H268.339V159.285ZM268.462 163.824C268.455 162.341 270.027 161.479 272.604 161.486C275.168 161.479 276.74 162.341 276.747 163.824C276.74 165.301 275.168 166.142 272.604 166.135C270.027 166.142 268.455 165.301 268.462 163.824ZM269.747 163.824C269.74 164.645 270.807 165.13 272.604 165.137C274.389 165.13 275.455 164.645 275.462 163.824C275.455 162.963 274.389 162.491 272.604 162.484C270.807 162.491 269.74 162.963 269.747 163.824ZM272.741 158.273H275.407V156.879H272.741V158.273ZM285.213 154.637V155.717H280.825V157.057H284.981V158.096H280.825V159.518C283.074 159.511 284.414 159.47 285.979 159.176L286.116 160.215C284.441 160.509 282.999 160.557 280.483 160.543H279.526V154.637H285.213ZM280.797 166.012V161.705H288.618V166.012H280.797ZM282.069 164.959H287.333V162.73H282.069V164.959ZM287.319 161.104V153.912H288.618V156.893H290.395V157.973H288.618V161.104H287.319ZM301.705 153.912V161.199H300.406V158.096H298.123V157.029H300.406V153.912H301.705ZM291.492 160.092C293.393 159.429 294.562 157.774 294.555 156.086V155.812H291.903V154.76H298.506V155.812H295.881V156.072C295.874 157.624 296.982 159.135 298.834 159.764L298.164 160.789C296.79 160.317 295.779 159.333 295.245 158.123C294.712 159.49 293.639 160.591 292.176 161.131L291.492 160.092ZM293.461 163.852C293.454 162.396 295.027 161.548 297.604 161.541C300.167 161.548 301.739 162.396 301.746 163.852C301.739 165.308 300.167 166.155 297.604 166.162C295.027 166.155 293.454 165.308 293.461 163.852ZM294.746 163.852C294.739 164.679 295.806 165.15 297.604 165.137C299.388 165.15 300.454 164.679 300.461 163.852C300.454 163.018 299.388 162.546 297.604 162.553C295.806 162.546 294.739 163.018 294.746 163.852ZM317.695 155.047V156.195C317.688 157.686 317.702 159.381 317.175 161.924L315.904 161.787C316.129 160.741 316.252 159.818 316.328 158.991L308.958 159.422L308.767 158.301L316.389 158C316.416 157.337 316.423 156.749 316.423 156.195V156.113H309.136V155.047H317.695ZM307.81 164.576V163.496H312.062V160.393H313.347V163.496H318.98V164.576H307.81ZM322.169 154.787V159.504C323.83 159.504 325.573 159.395 327.474 158.998L327.624 160.064C325.573 160.488 323.693 160.604 321.868 160.598H320.87V154.787H322.169ZM322.196 165.902V161.896H323.509V164.85H330.358V165.902H322.196ZM328.636 162.758V153.926H329.935V157.494H331.712V158.602H329.935V162.758H328.636Z" fill="white"/>
<g filter="url(#filter1_d_2962_2165)">
<path d="M40 125C70 155 107.5 127.5 128.209 130.541C149.774 133.708 153.229 165.358 176.457 187.545C199.686 209.732 230.148 170.786 259 130.541" stroke="#4318FF" stroke-width="8" stroke-linecap="round"/>
</g>
<g filter="url(#filter2_d_2962_2165)">
<path d="M40.5 169C92.0271 175.054 100.524 192.285 116.939 193.407C169.5 197 163.631 118.341 189.857 118.341C229 118.341 201.87 193.407 260 193.407" stroke="#6AD2FF" stroke-width="8" stroke-linecap="round"/>
</g>
<path d="M5.23438 135.516V144H3.93359V136.805H3.88671L1.85938 138.129V136.898L3.96876 135.516H5.23438ZM10.2327 134.977C11.8147 134.977 12.9631 135.855 12.9631 137.156C12.9631 138.445 11.8147 139.336 10.2327 139.324C8.65059 139.336 7.52559 138.445 7.52559 137.156C7.52559 135.855 8.65059 134.977 10.2327 134.977ZM10.2327 135.879C9.28339 135.879 8.59199 136.383 8.60379 137.156C8.59199 137.918 9.28339 138.422 10.2327 138.41C11.2053 138.422 11.8967 137.918 11.8967 137.156C11.8967 136.383 11.2053 135.879 10.2327 135.879ZM15.5178 134.508V144.996H14.4163V134.508H15.5178ZM6.77559 140.145C8.70919 140.145 11.3928 140.098 13.6897 139.758L13.7717 140.59C12.8166 140.771 11.8206 140.883 10.8538 140.953V144.668H9.7405V141.012C8.7209 141.059 7.75999 141.064 6.92799 141.07L6.77559 140.145Z" fill="#A3AED0"/>
<path d="M0.750086 184V183.062L3.6915 180.098C4.61729 179.125 5.08599 178.586 5.08599 177.848C5.08599 177.016 4.40629 176.477 3.51571 176.477C2.57821 176.477 1.96884 177.074 1.96884 177.977H0.750086C0.738366 176.43 1.92197 175.398 3.53915 175.398C5.17979 175.398 6.30479 176.43 6.31649 177.812C6.30479 178.762 5.85949 179.512 4.26569 181.082L2.54306 182.828V182.898H6.45709V184H0.750086ZM10.7289 174.977C12.3109 174.977 13.4593 175.855 13.4593 177.156C13.4593 178.445 12.3109 179.336 10.7289 179.324C9.14679 179.336 8.02179 178.445 8.02179 177.156C8.02179 175.855 9.14679 174.977 10.7289 174.977ZM10.7289 175.879C9.77959 175.879 9.08819 176.383 9.09989 177.156C9.08819 177.918 9.77959 178.422 10.7289 178.41C11.7015 178.422 12.3929 177.918 12.3929 177.156C12.3929 176.383 11.7015 175.879 10.7289 175.879ZM16.014 174.508V184.996H14.9124V174.508H16.014ZM7.27179 180.145C9.20539 180.145 11.889 180.098 14.1859 179.758L14.2679 180.59C13.3128 180.771 12.3167 180.883 11.3499 180.953V184.668H10.2367V181.012C9.21709 181.059 8.25619 181.064 7.42419 181.07L7.27179 180.145Z" fill="#A3AED0"/>
</g>
<defs>
<filter id="filter0_d_2962_2165" x="16" y="0" width="267" height="320" filterUnits="userSpaceOnUse" color-interpolation-filters="sRGB">
<feFlood flood-opacity="0" result="BackgroundImageFix"/>
<feColorMatrix in="SourceAlpha" type="matrix" values="0 0 0 0 0 0 0 0 0 0 0 0 0 0 0 0 0 0 127 0" result="hardAlpha"/>
<feOffset dy="4"/>
<feGaussianBlur stdDeviation="10"/>
<feComposite in2="hardAlpha" operator="out"/>
<feColorMatrix type="matrix" values="0 0 0 0 0 0 0 0 0 0 0 0 0 0 0 0 0 0 0.1 0"/>
<feBlend mode="normal" in2="BackgroundImageFix" result="effect1_dropShadow_2962_2165"/>
<feBlend mode="normal" in="SourceGraphic" in2="effect1_dropShadow_2962_2165" result="shape"/>
</filter>
<filter id="filter1_d_2962_2165" x="26" y="114" width="247" height="97" filterUnits="userSpaceOnUse" color-interpolation-filters="sRGB">
<feFlood flood-opacity="0" result="BackgroundImageFix"/>
<feColorMatrix in="SourceAlpha" type="matrix" values="0 0 0 0 0 0 0 0 0 0 0 0 0 0 0 0 0 0 127 0" result="hardAlpha"/>
<feOffset dy="3"/>
<feGaussianBlur stdDeviation="5"/>
<feColorMatrix type="matrix" values="0 0 0 0 0.262745 0 0 0 0 0.0941176 0 0 0 0 1 0 0 0 0.25 0"/>
<feBlend mode="normal" in2="BackgroundImageFix" result="effect1_dropShadow_2962_2165"/>
<feBlend mode="normal" in="SourceGraphic" in2="effect1_dropShadow_2962_2165" result="shape"/>
</filter>
<filter id="filter2_d_2962_2165" x="26.4995" y="107.341" width="247.5" height="103.186" filterUnits="userSpaceOnUse" color-interpolation-filters="sRGB">
<feFlood flood-opacity="0" result="BackgroundImageFix"/>
<feColorMatrix in="SourceAlpha" type="matrix" values="0 0 0 0 0 0 0 0 0 0 0 0 0 0 0 0 0 0 127 0" result="hardAlpha"/>
<feOffset dy="3"/>
<feGaussianBlur stdDeviation="5"/>
<feComposite in2="hardAlpha" operator="out"/>
<feColorMatrix type="matrix" values="0 0 0 0 0.415686 0 0 0 0 0.823529 0 0 0 0 1 0 0 0 0.25 0"/>
<feBlend mode="normal" in2="BackgroundImageFix" result="effect1_dropShadow_2962_2165"/>
<feBlend mode="normal" in="SourceGraphic" in2="effect1_dropShadow_2962_2165" result="shape"/>
</filter>
<clipPath id="clip0_2962_2165">
<rect width="348" height="320" fill="white"/>
</clipPath>
</defs>
</svg>
