<svg width="none" height="none" viewBox="0 0 300 315" fill="none" xmlns="http://www.w3.org/2000/svg">
<g clip-path="url(#clip0_2950_3747)">
<path d="M294.777 1.35156H25.2229C23.0851 1.35156 21.3521 3.08357 21.3521 5.2201V29.8381C21.3521 31.9746 23.0851 33.7066 25.2229 33.7066H294.777C296.915 33.7066 298.648 31.9746 298.648 29.8381V5.2201C298.648 3.08357 296.915 1.35156 294.777 1.35156Z" stroke="#AFB1B6"/>
<path d="M294.777 1.35156H25.2224C23.0846 1.35156 21.3516 3.08357 21.3516 5.2201V29.8381C21.3516 31.9746 23.0846 33.7066 25.2224 33.7066H294.777C296.915 33.7066 298.648 31.9746 298.648 29.8381V5.2201C298.648 3.08357 296.915 1.35156 294.777 1.35156Z" fill="white"/>
<path d="M33.668 13.6611H44.9287" stroke="#AFB1B6" stroke-width="2" stroke-linecap="round"/>
<path d="M33.668 17.8809H44.9287" stroke="#AFB1B6" stroke-width="2" stroke-linecap="round"/>
<path d="M33.668 22.1016H44.9287" stroke="#AFB1B6" stroke-width="2" stroke-linecap="round"/>
<path d="M75.1922 9.44043H61.8201C57.1557 9.44043 53.3745 13.2193 53.3745 17.8809C53.3745 22.5424 57.1557 26.3213 61.8201 26.3213H75.1922C79.8566 26.3213 83.6378 22.5424 83.6378 17.8809C83.6378 13.2193 79.8566 9.44043 75.1922 9.44043Z" fill="#0047FF"/>
<path d="M64.9377 14.4359V21.3981H64.0621V15.3398H64.0236L62.3301 16.4649V15.5898L64.0621 14.4359H64.9377ZM69.3625 14.0512C70.6423 14.0416 71.5564 14.7436 71.5564 15.7918C71.5564 16.8304 70.6423 17.5515 69.3625 17.542C68.0828 17.5515 67.1686 16.8304 67.1686 15.7918C67.1686 14.7436 68.0828 14.0416 69.3625 14.0512ZM69.3625 14.6667C68.5061 14.657 67.8999 15.1282 67.9096 15.7918C67.8999 16.4649 68.5061 16.9265 69.3625 16.9169C70.2285 16.9265 70.8347 16.4649 70.8347 15.7918C70.8347 15.1282 70.2285 14.657 69.3625 14.6667ZM73.5963 13.6377V22.1867H72.8554V13.6377H73.5963ZM66.5239 18.2728C68.1308 18.2728 70.3247 18.2439 72.2299 17.965L72.278 18.5325C71.4602 18.6815 70.6086 18.7729 69.7859 18.8209V21.9174H69.0354V18.869C68.1646 18.9075 67.3418 18.9123 66.6298 18.9171L66.5239 18.2728Z" fill="white"/>
<path d="M98.011 12.8691V22.6394H97.1644V17.5839H95.7568V22.1339H94.9425V13.0889H95.7568V16.8475H97.1644V12.8691H98.011ZM90.1592 20.1117V14.0671H91.017V19.3423C91.9844 19.3368 93.0295 19.2655 94.2169 19.0236L94.3274 19.793C92.9634 20.0402 91.8415 20.1117 90.764 20.1117H90.1592ZM106.98 12.8691V16.8475H108.564V17.5729H106.98V22.6394H106.122V12.8691H106.98ZM99.4806 20.1006C102.004 18.8478 103.379 16.963 103.577 14.6495H99.9317V13.9242H104.451C104.446 16.6882 103.148 19.2105 99.9641 20.7821L99.4806 20.1006ZM116.881 15.7815V16.9355H120.949V17.6499H111.998V16.9355H116.034V15.7815H116.881ZM112.482 15.7266C114.17 15.5892 115.814 14.8583 115.897 13.8582H112.822V13.1769H120.124V13.8582H117.029C117.111 14.8583 118.739 15.5892 120.444 15.7266L120.157 16.375C118.53 16.2211 116.996 15.5837 116.468 14.5561C115.94 15.5837 114.401 16.2211 112.768 16.375L112.482 15.7266ZM112.845 19.6281V18.9467H116.034V18.0235H116.892V18.9467H120.103V19.6281H112.845ZM113.516 21.3975C113.51 20.5513 114.56 20.1172 116.462 20.1117C118.349 20.1172 119.421 20.5513 119.421 21.3975C119.421 22.2548 118.349 22.6999 116.462 22.6944C114.56 22.6999 113.51 22.2548 113.516 21.3975ZM114.384 21.3975C114.384 21.8481 115.143 22.1009 116.462 22.0899C117.788 22.1009 118.536 21.8481 118.541 21.3975C118.536 20.9469 117.788 20.7216 116.462 20.7161C115.143 20.7216 114.384 20.9469 114.384 21.3975ZM124.377 13.6274C125.817 13.6329 126.84 14.9573 126.851 17.0344C126.84 19.117 125.817 20.4359 124.377 20.4304C122.925 20.4359 121.908 19.117 121.913 17.0344C121.908 14.9573 122.925 13.6329 124.377 13.6274ZM122.727 17.0344C122.733 18.6225 123.409 19.6666 124.377 19.661C125.355 19.6666 126.015 18.6225 126.015 17.0344C126.015 15.4464 125.355 14.4023 124.377 14.3968C123.409 14.4023 122.733 15.4464 122.727 17.0344ZM128.467 22.6394V12.8691H129.325V16.7707H130.964V17.518H129.325V22.6394H128.467ZM139.075 12.8691V16.9026H140.714V17.6169H139.075V22.6394H138.218V12.8691H139.075ZM131.454 15.1551V14.4408H133.973V12.99H134.83V14.4408H137.272V15.1551H131.454ZM132.015 18.2104C132.01 16.8916 133.021 15.9683 134.413 15.9683C135.793 15.9683 136.799 16.8916 136.81 18.2104C136.799 19.5347 135.793 20.4523 134.413 20.4523C133.021 20.4523 132.01 19.5347 132.015 18.2104ZM132.84 18.2104C132.834 19.1006 133.5 19.727 134.413 19.716C135.314 19.727 135.974 19.1006 135.985 18.2104C135.974 17.3256 135.314 16.6882 134.413 16.6937C133.5 16.6882 132.834 17.3256 132.84 18.2104ZM149.167 15.8365V16.5288H142.469V13.2318H143.327V15.8365H149.167ZM141.249 18.5621V17.8587H150.2V18.5621H141.249ZM142.414 22.3976V19.5621H143.272V21.6832H149.221V22.3976H142.414ZM161.959 12.8801V19.4962H161.09V16.353H158.946V15.6277H161.09V12.8801H161.959ZM154.019 18.1664C156.356 17.4465 157.802 16.0892 157.983 14.3528H154.503V13.6495H158.901C158.896 16.1552 157.214 17.9576 154.404 18.8588L154.019 18.1664ZM155.042 21.925C156.774 21.6228 158.352 20.5293 158.363 19.0896V18.639H159.21V19.0896C159.215 20.5128 160.776 21.5843 162.498 21.8921L162.135 22.5844C160.694 22.3097 159.363 21.5459 158.786 20.4029C158.192 21.5569 156.851 22.3207 155.394 22.6065L155.042 21.925ZM169.615 13.7923V21.7492H168.615V14.8254H168.571L166.635 16.1113V15.1111L168.615 13.7923H169.615Z" fill="#19191B"/>
<path d="M294.777 89.9766H25.2229C23.0851 89.9766 21.3521 91.7086 21.3521 93.8451V309.78C21.3521 311.916 23.0851 313.648 25.2229 313.648H294.777C296.915 313.648 298.648 311.916 298.648 309.78V93.8451C298.648 91.7086 296.915 89.9766 294.777 89.9766Z" fill="white"/>
<path d="M294.777 89.9766H25.2229C23.0851 89.9766 21.3521 91.7086 21.3521 93.8451V309.78C21.3521 311.916 23.0851 313.648 25.2229 313.648H294.777C296.915 313.648 298.648 311.916 298.648 309.78V93.8451C298.648 91.7086 296.915 89.9766 294.777 89.9766Z" stroke="#AFB1B6"/>
<path d="M33.6685 102.285H44.9292" stroke="#AFB1B6" stroke-width="2" stroke-linecap="round"/>
<path d="M33.6685 106.506H44.9292" stroke="#AFB1B6" stroke-width="2" stroke-linecap="round"/>
<path d="M33.6685 110.726H44.9292" stroke="#AFB1B6" stroke-width="2" stroke-linecap="round"/>
<path d="M76.5998 98.0654H61.8201C57.1557 98.0654 53.3745 101.844 53.3745 106.506C53.3745 111.167 57.1557 114.946 61.8201 114.946H76.5998C81.2642 114.946 85.0454 111.167 85.0454 106.506C85.0454 101.844 81.2642 98.0654 76.5998 98.0654Z" fill="#EBF4FF"/>
<path d="M64.8799 110.118C63.4943 110.118 62.5032 109.378 62.4551 108.272H63.3307C63.3788 108.935 64.0428 109.349 64.8703 109.349C65.7844 109.349 66.4579 108.849 66.4579 108.128C66.4579 107.368 65.8517 106.829 64.7644 106.829H64.1968V106.07H64.7644C65.6112 106.07 66.1982 105.599 66.1982 104.878C66.1982 104.185 65.6882 103.713 64.8992 103.713C64.1583 103.713 63.4751 104.127 63.4366 104.81H62.5994C62.6476 103.704 63.6675 102.964 64.9088 102.964C66.2367 102.964 67.0449 103.829 67.0353 104.829C67.0449 105.618 66.5831 106.204 65.8517 106.406V106.455C66.7563 106.599 67.3143 107.243 67.3047 108.128C67.3143 109.272 66.2655 110.118 64.8799 110.118ZM71.1233 102.675C72.403 102.665 73.3172 103.367 73.3172 104.415C73.3172 105.454 72.403 106.175 71.1233 106.166C69.8435 106.175 68.9295 105.454 68.9295 104.415C68.9295 103.367 69.8435 102.665 71.1233 102.675ZM71.1233 103.291C70.2669 103.281 69.6607 103.752 69.6703 104.415C69.6607 105.089 70.2669 105.551 71.1233 105.541C71.9893 105.551 72.5955 105.089 72.5955 104.415C72.5955 103.752 71.9893 103.281 71.1233 103.291ZM75.3571 102.262V110.81H74.6162V102.262H75.3571ZM68.2848 106.897C69.8917 106.897 72.0856 106.868 73.9907 106.589L74.0388 107.156C73.2209 107.306 72.3694 107.397 71.5467 107.445V110.541H70.7961V107.493C69.9253 107.531 69.1027 107.536 68.3906 107.541L68.2848 106.897Z" fill="#0047FF"/>
<path d="M99.4185 101.494V111.265H98.5718V106.209H97.1642V110.759H96.3499V101.714H97.1642V105.472H98.5718V101.494H99.4185ZM91.5669 108.737V102.692H92.4241V107.967C93.3918 107.962 94.437 107.891 95.6243 107.649L95.7348 108.418C94.3708 108.665 93.249 108.737 92.1715 108.737H91.5669ZM108.388 101.494V105.472H109.971V106.198H108.388V111.265H107.53V101.494H108.388ZM100.888 108.726C103.412 107.473 104.786 105.588 104.984 103.274H101.339V102.549H105.858C105.853 105.313 104.555 107.836 101.371 109.407L100.888 108.726ZM118.288 104.407V105.56H122.357V106.275H113.406V105.56H117.441V104.407H118.288ZM113.889 104.352C115.577 104.214 117.221 103.483 117.304 102.483H114.23V101.802H121.532V102.483H118.436C118.519 103.483 120.147 104.214 121.851 104.352L121.565 105C119.938 104.846 118.403 104.208 117.876 103.181C117.348 104.208 115.809 104.846 114.175 105L113.889 104.352ZM114.252 108.253V107.572H117.441V106.648H118.299V107.572H121.51V108.253H114.252ZM114.923 110.023C114.917 109.176 115.968 108.742 117.87 108.737C119.756 108.742 120.828 109.176 120.828 110.023C120.828 110.88 119.756 111.325 117.87 111.32C115.968 111.325 114.917 110.88 114.923 110.023ZM115.792 110.023C115.792 110.473 116.55 110.726 117.87 110.715C119.195 110.726 119.943 110.473 119.948 110.023C119.943 109.572 119.195 109.347 117.87 109.341C116.55 109.347 115.792 109.572 115.792 110.023ZM125.784 102.252C127.225 102.258 128.247 103.582 128.258 105.66C128.247 107.742 127.225 109.061 125.784 109.055C124.332 109.061 123.315 107.742 123.321 105.66C123.315 103.582 124.332 102.258 125.784 102.252ZM124.134 105.66C124.14 107.248 124.816 108.292 125.784 108.286C126.762 108.292 127.423 107.248 127.423 105.66C127.423 104.071 126.762 103.027 125.784 103.022C124.816 103.027 124.14 104.071 124.134 105.66ZM129.875 111.265V101.494H130.733V105.396H132.371V106.143H130.733V111.265H129.875ZM140.483 101.494V105.527H142.121V106.242H140.483V111.265H139.625V101.494H140.483ZM132.862 103.78V103.065H135.38V101.615H136.238V103.065H138.679V103.78H132.862ZM133.422 106.836C133.418 105.517 134.429 104.593 135.82 104.593C137.2 104.593 138.206 105.517 138.217 106.836C138.206 108.16 137.2 109.077 135.82 109.077C134.429 109.077 133.418 108.16 133.422 106.836ZM134.247 106.836C134.242 107.725 134.907 108.352 135.82 108.341C136.722 108.352 137.381 107.725 137.393 106.836C137.381 105.951 136.722 105.313 135.82 105.318C134.907 105.313 134.242 105.951 134.247 106.836ZM150.574 104.462V105.154H143.877V101.857H144.735V104.462H150.574ZM142.656 107.187V106.484H151.607V107.187H142.656ZM143.822 111.023V108.187H144.68V110.308H150.629V111.023H143.822ZM163.366 101.505V108.121H162.498V104.978H160.353V104.253H162.498V101.505H163.366ZM155.427 106.791C157.763 106.072 159.21 104.714 159.39 102.978H155.91V102.274H160.309C160.303 104.78 158.621 106.582 155.812 107.484L155.427 106.791ZM156.449 110.55C158.181 110.248 159.759 109.155 159.771 107.715V107.264H160.617V107.715C160.622 109.138 162.184 110.21 163.905 110.517L163.542 111.21C162.101 110.935 160.771 110.171 160.193 109.028C159.599 110.182 158.258 110.945 156.801 111.232L156.449 110.55ZM171.023 102.418V110.374H170.022V103.45H169.978L168.043 104.736V103.736L170.022 102.418H171.023Z" fill="#19191B"/>
<path d="M33.6685 125.849H289.851" stroke="#AFB1B6"/>
<path d="M38.4698 141.081V146.639H34.515V141.081H38.4698ZM35.256 146.024H37.7289V141.687H35.256V146.024ZM40.3076 148.803V140.234H41.0678V148.803H40.3076ZM46.0795 141.167V144.158H43.6067V146.1C44.593 146.096 45.5214 146.057 46.628 145.87L46.6954 146.485C45.4782 146.697 44.5111 146.735 43.4334 146.735H42.8754V143.533H45.3483V141.802H42.856V141.167H46.0795ZM47.2245 148.341V140.427H47.9174V143.62H49.1778V140.234H49.8996V148.783H49.1778V144.244H47.9174V148.341H47.2245ZM58.077 142.831V143.437H52.217V140.552H52.9677V142.831H58.077ZM51.1489 145.216V144.6H58.9814V145.216H51.1489ZM52.169 148.572V146.091H52.9195V147.947H58.1251V148.572H52.169ZM70.0827 143.687V144.302H62.2598V143.687H64.6894C64.9684 142.605 65.0214 141.797 65.0358 141.263H62.9911V140.648H65.7816V140.946C65.772 141.436 65.7719 142.393 65.464 143.687H68.0765C68.3267 142.6 68.3652 141.806 68.3748 141.263H66.359V140.648H69.1109V141.004C69.1109 141.528 69.1109 142.442 68.8367 143.687H70.0827ZM63.1835 148.552V145.418H63.9244V147.932C64.42 147.913 65.0791 147.85 65.7622 147.668L65.8585 148.293C64.9492 148.529 64.1651 148.557 63.5974 148.552H63.1835ZM65.666 146.091V145.504H67.2442V144.764H67.9946V145.504H69.5438V146.091H65.666ZM66.1088 147.62C66.1136 146.904 66.7534 146.447 67.629 146.447C68.4998 146.447 69.1253 146.904 69.1301 147.62C69.1253 148.337 68.4998 148.774 67.629 148.783C66.7534 148.774 66.1136 148.337 66.1088 147.62ZM66.7726 147.62C66.763 148 67.1142 148.235 67.629 148.225C68.1342 148.235 68.471 148 68.4757 147.62C68.471 147.23 68.1342 146.99 67.629 146.985C67.1142 146.99 66.763 147.23 66.7726 147.62ZM77.8946 140.244V145.129H77.1439V140.244H77.8946ZM71.0338 142.696C71.029 141.504 71.9769 140.696 73.2759 140.696C74.5749 140.696 75.513 141.504 75.5178 142.696C75.513 143.869 74.5749 144.687 73.2759 144.687C71.9769 144.687 71.029 143.869 71.0338 142.696ZM71.7747 142.696C71.7651 143.49 72.3955 144.047 73.2759 144.042C74.1468 144.047 74.777 143.49 74.777 142.696C74.777 141.898 74.1468 141.336 73.2759 141.34C72.3955 141.336 71.7651 141.898 71.7747 142.696ZM72.3329 148.668V145.591H77.8946V148.668H72.3329ZM73.0737 148.052H77.1537V146.206H73.0737V148.052ZM81.107 145.254V146.321H82.6658V145.254H83.3682V148.668H80.3948V145.254H81.107ZM79.5384 142.581C79.5337 141.413 80.4574 140.619 81.7612 140.619C82.911 140.619 83.7819 141.268 83.9454 142.254H85.7352V140.234H86.4953V144.764H85.7352V142.879H83.9504C83.8012 143.888 82.9207 144.552 81.7612 144.552C80.4574 144.552 79.5337 143.754 79.5384 142.581ZM80.2602 142.581C80.2602 143.364 80.8807 143.922 81.7612 143.927C82.6224 143.922 83.243 143.364 83.243 142.581C83.243 141.802 82.6224 141.254 81.7612 141.254C80.8807 141.254 80.2602 141.802 80.2602 142.581ZM81.107 148.072H82.6658V146.899H81.107V148.072ZM83.4836 148.159C84.5132 147.73 85.0568 146.793 85.0616 145.927V145.197H85.8123V145.927C85.8026 146.826 86.3462 147.774 87.3902 148.159L86.9957 148.735C86.2067 148.423 85.6919 147.817 85.4273 147.111C85.1579 147.808 84.6334 148.413 83.8781 148.735L83.4836 148.159ZM94.8945 142.831V143.437H89.0343V140.552H89.7847V142.831H94.8945ZM87.9662 145.216V144.6H95.7988V145.216H87.9662ZM88.9861 148.572V146.091H89.7367V147.947H94.9422V148.572H88.9861ZM105.986 144.244V144.86H103.339V147.072H106.91V147.706H99.0771V147.072H102.599V144.86H100.078V140.936H105.899V141.552H100.838V144.244H105.986ZM114.741 140.244V146.514H113.981V143.235H112.22V142.61H113.981V140.244H114.741ZM107.687 144.802C108.948 144.36 109.862 143.23 109.862 142.004V141.562H107.928V140.936H112.537V141.562H110.622V142.004C110.622 143.11 111.479 144.182 112.729 144.61L112.335 145.216C111.372 144.865 110.627 144.149 110.256 143.264C109.886 144.254 109.097 145.038 108.082 145.418L107.687 144.802ZM109.246 148.601V145.946H110.006V147.966H114.981V148.601H109.246ZM120.964 141.187V141.629C120.96 142.307 120.96 143.437 120.715 145.024L119.955 144.956C120.19 143.523 120.209 142.484 120.204 141.802H116.616V141.187H120.964ZM116.134 146.274C116.697 146.269 117.322 146.264 117.982 146.25V143.629H118.723V146.226C119.67 146.192 120.642 146.129 121.532 146.024L121.571 146.591C119.772 146.87 117.761 146.908 116.231 146.899L116.134 146.274ZM122.072 148.783V140.234H122.822V143.812H124.208V144.466H122.822V148.783H122.072ZM128.429 140.6V141.831H130.921V140.6H131.671V144.322H127.688V140.6H128.429ZM128.429 143.706H130.921V142.418H128.429V143.706ZM128.554 145.668V145.062H134.009V147.13H129.314V148.072H134.327V148.687H128.573V146.553H133.259V145.668H128.554ZM133.259 144.658V140.234H134.009V142.091H135.299V142.725H134.009V144.658H133.259ZM142.986 140.244V146.514H142.225V143.235H140.465V142.61H142.225V140.244H142.986ZM135.933 144.802C137.193 144.36 138.107 143.23 138.107 142.004V141.562H136.173V140.936H140.782V141.562H138.868V142.004C138.868 143.11 139.723 144.182 140.975 144.61L140.58 145.216C139.618 144.865 138.872 144.149 138.502 143.264C138.131 144.254 137.343 145.038 136.327 145.418L135.933 144.802ZM137.491 148.601V145.946H138.252V147.966H143.226V148.601H137.491ZM147.266 140.86C148.608 140.865 149.561 141.682 149.566 142.869C149.561 144.062 148.608 144.875 147.266 144.879C145.914 144.875 144.952 144.062 144.957 142.869C144.952 141.682 145.914 140.865 147.266 140.86ZM144.514 146.274C146.092 146.278 148.272 146.264 150.162 145.985L150.22 146.543C148.262 146.908 146.16 146.918 144.62 146.918L144.514 146.274ZM145.698 142.869C145.693 143.668 146.352 144.215 147.266 144.215C148.17 144.215 148.83 143.668 148.825 142.869C148.83 142.076 148.17 141.523 147.266 141.523C146.352 141.523 145.693 142.076 145.698 142.869ZM150.73 148.803V140.234H151.48V148.803H150.73ZM160.311 141.187V141.629C160.306 142.307 160.306 143.437 160.061 145.024L159.3 144.956C159.536 143.523 159.556 142.484 159.551 141.802H155.961V141.187H160.311ZM155.481 146.274C156.044 146.269 156.669 146.264 157.328 146.25V143.629H158.069V146.226C159.017 146.192 159.989 146.129 160.879 146.024L160.917 146.591C159.118 146.87 157.107 146.908 155.577 146.899L155.481 146.274ZM161.417 148.783V140.234H162.168V143.812H163.553V144.466H162.168V148.783H161.417ZM171.231 140.234V145.331H170.471V143.091H168.748V142.465H170.471V140.234H171.231ZM164.178 144.649C165.448 144.192 166.352 143.033 166.352 141.811V141.494H164.418V140.86H169.027V141.494H167.112V141.802C167.112 142.918 167.969 143.98 169.22 144.408L168.826 145.014C167.868 144.668 167.122 143.946 166.751 143.066C166.386 144.066 165.592 144.865 164.572 145.254L164.178 144.649ZM165.525 147.187C165.52 146.182 166.612 145.595 168.392 145.6C170.168 145.595 171.26 146.182 171.26 147.187C171.26 148.197 170.168 148.774 168.392 148.783C166.612 148.774 165.52 148.197 165.525 147.187ZM166.276 147.187C166.271 147.808 167.079 148.182 168.392 148.178C169.701 148.182 170.509 147.808 170.509 147.187C170.509 146.562 169.701 146.187 168.392 146.187C167.079 146.187 166.271 146.562 166.276 147.187ZM179.765 140.234V148.803H179.004V140.234H179.765ZM173.029 143.879C173.034 142.062 173.938 140.903 175.213 140.898C176.483 140.903 177.402 142.062 177.397 143.879C177.402 145.702 176.483 146.855 175.213 146.85C173.938 146.855 173.034 145.702 173.029 143.879ZM173.76 143.879C173.76 145.268 174.357 146.182 175.213 146.177C176.074 146.182 176.666 145.268 176.666 143.879C176.666 142.489 176.074 141.576 175.213 141.571C174.357 141.576 173.76 142.489 173.76 143.879ZM187.903 140.234V143.62H189.337V144.254H187.903V148.803H187.152V140.234H187.903ZM181.659 146.658V141.071H185.652V141.696H182.409V146.024C183.958 146.019 185.05 145.951 186.325 145.716L186.421 146.37C185.079 146.61 183.958 146.658 182.332 146.658H181.659ZM190.759 148.062C190.423 148.057 190.134 147.779 190.144 147.437C190.134 147.101 190.423 146.821 190.759 146.821C191.101 146.821 191.38 147.101 191.375 147.437C191.38 147.779 191.101 148.057 190.759 148.062ZM202.746 145.139V145.773H199.176V148.783H198.435V145.773H194.914V145.139H202.746ZM195.799 142.465C195.803 141.307 197.011 140.585 198.811 140.58C200.605 140.585 201.822 141.307 201.822 142.465C201.822 143.605 200.605 144.327 198.811 144.322C197.011 144.327 195.803 143.605 195.799 142.465ZM196.578 142.465C196.569 143.225 197.478 143.715 198.811 143.715C200.143 143.715 201.047 143.225 201.052 142.465C201.047 141.691 200.143 141.196 198.811 141.196C197.478 141.196 196.569 141.691 196.578 142.465ZM210.558 140.234V148.803H209.808V140.234H210.558ZM203.976 141.658V141.033H207.96V144.071H204.766V146.091C206.184 146.096 207.45 146.028 208.98 145.783L209.057 146.418C207.484 146.663 206.184 146.726 204.708 146.726H203.996V143.456H207.2V141.658H203.976ZM218.986 142.831V143.437H213.125V140.552H213.876V142.831H218.986ZM212.058 145.216V144.6H219.89V145.216H212.058ZM213.077 148.572V146.091H213.828V147.947H219.034V148.572H213.077ZM230.26 140.244V146.764H229.5V144.927H228.018V144.312H229.5V143.148H228.018V142.523H229.5V140.244H230.26ZM223.178 141.908V141.292H225.257V140.234H226.007V141.292H228.018V141.908H223.178ZM223.688 144.014C223.678 143.033 224.477 142.379 225.622 142.379C226.767 142.379 227.571 143.033 227.575 144.014C227.571 144.985 226.767 145.644 225.622 145.648C224.477 145.644 223.678 144.985 223.688 144.014ZM224.39 144.014C224.385 144.629 224.891 145.048 225.622 145.043C226.353 145.048 226.859 144.629 226.863 144.014C226.859 143.398 226.353 142.985 225.622 142.975C224.891 142.985 224.385 143.398 224.39 144.014ZM224.727 148.601V146.187H225.488V147.966H230.452V148.601H224.727ZM239.092 140.234V148.783H238.361V144.341H237.196V148.351H236.475V140.417H237.196V143.696H238.361V140.234H239.092ZM231.654 146.437C232.885 145.759 233.545 144.307 233.54 142.571V141.889H231.855V141.254H235.859V141.889H234.271V142.571C234.271 144.134 234.921 145.514 236.137 146.139L235.686 146.726C234.824 146.255 234.228 145.413 233.925 144.369C233.631 145.557 233.025 146.49 232.125 147.014L231.654 146.437ZM243.112 140.86C244.455 140.865 245.407 141.682 245.412 142.869C245.407 144.062 244.455 144.875 243.112 144.879C241.761 144.875 240.798 144.062 240.803 142.869C240.798 141.682 241.761 140.865 243.112 140.86ZM240.36 146.274C241.939 146.278 244.118 146.264 246.009 145.985L246.067 146.543C244.109 146.908 242.006 146.918 240.466 146.918L240.36 146.274ZM241.544 142.869C241.539 143.668 242.199 144.215 243.112 144.215C244.017 144.215 244.676 143.668 244.671 142.869C244.676 142.076 244.017 141.523 243.112 141.523C242.199 141.523 241.539 142.076 241.544 142.869ZM246.576 148.803V140.234H247.327V148.803H246.576ZM254.339 141.85C254.339 143.042 255.205 144.168 256.455 144.62L256.032 145.206C255.094 144.836 254.343 144.095 253.978 143.163C253.617 144.196 252.838 145.014 251.827 145.418L251.423 144.802C252.708 144.331 253.593 143.134 253.598 141.821V140.763H254.339V141.85ZM252.972 148.601V145.918H253.732V147.966H258.698V148.601H252.972ZM255.84 142.889V142.254H257.745V140.244H258.505V146.648H257.745V142.889H255.84ZM263.69 140.86V141.494H261.092V142.562H263.594V143.158H261.092V144.341C262.338 144.336 263.117 144.288 264.037 144.11L264.113 144.735C263.108 144.932 262.3 144.971 260.909 144.975H260.371V140.86H263.69ZM261.487 146.485V145.87H267.25V148.783H266.509V146.485H261.487ZM264.624 145.37V140.407H265.326V142.475H266.529V140.244H267.25V145.427H266.529V143.091H265.326V145.37H264.624ZM272.455 140.792C274.24 140.797 275.582 141.73 275.582 143.139C275.582 144.562 274.24 145.495 272.455 145.485C270.669 145.495 269.327 144.562 269.327 143.139C269.327 141.73 270.669 140.797 272.455 140.792ZM268.557 147.649V147.014H276.39V147.649H268.557ZM270.049 143.139C270.039 144.177 271.074 144.87 272.455 144.87C273.826 144.87 274.85 144.177 274.85 143.139C274.85 142.114 273.826 141.403 272.455 141.408C271.074 141.403 270.039 142.114 270.049 143.139ZM284.962 147.091V147.726H277.129V147.091H280.651V145.475H278.111V142.84H283.23V141.494H278.091V140.869H283.971V143.456H278.861V144.851H284.173V145.475H281.392V147.091H284.962ZM40.7598 155.215V156.071C40.7598 157.148 40.7598 158.364 40.4423 160.226L39.6726 160.149C40.019 158.398 40.019 157.119 40.019 156.071V155.841H34.8615V155.215H40.7598ZM34.0146 161.591V160.966H41.8087V161.591H34.0146ZM52.3806 154.302V159.716H51.659V157.264H50.514V159.408H49.8019V154.475H50.514V156.638H51.659V154.302H52.3806ZM45.0677 155.936V155.331H46.896V154.369H47.6465V155.331H49.4556V155.936H45.0677ZM45.4431 157.86C45.4383 156.965 46.1935 156.394 47.2712 156.399C48.3537 156.394 49.1043 156.965 49.1091 157.86C49.1043 158.74 48.3537 159.312 47.2712 159.312C46.1935 159.312 45.4383 158.74 45.4431 157.86ZM46.1166 157.86C46.1166 158.384 46.5881 158.745 47.2712 158.745C47.9544 158.745 48.4259 158.384 48.4259 157.86C48.4259 157.316 47.9544 156.956 47.2712 156.956C46.5881 156.956 46.1166 157.316 46.1166 157.86ZM46.6843 161.36C46.6746 160.399 47.7476 159.86 49.5518 159.86C51.3511 159.86 52.4239 160.399 52.4287 161.36C52.4239 162.298 51.3511 162.832 49.5518 162.832C47.7476 162.832 46.6746 162.298 46.6843 161.36ZM47.4348 161.36C47.4252 161.913 48.2191 162.25 49.5518 162.245C50.8796 162.25 51.6686 161.913 51.6782 161.36C51.6686 160.774 50.8796 160.446 49.5518 160.456C48.2191 160.446 47.4252 160.774 47.4348 161.36ZM61.5204 161.129V161.755H53.6879V161.129H57.2096V159.283H54.6116V154.907H55.3717V156.456H59.8172V154.907H60.5582V159.283H57.9505V161.129H61.5204ZM55.3717 158.668H59.8172V157.072H55.3717V158.668ZM70.0827 158.274V158.869H62.2502V158.274H70.0827ZM63.1932 160.12V159.552H69.1012V161.37H63.9629V162.187H69.3804V162.735H63.2028V160.851H68.3507V160.12H63.1932ZM63.2412 155.11V154.561H69.0724V156.331H64.0206V157.081H69.2264V157.629H63.2701V155.812H68.3123V155.11H63.2412ZM80.4525 154.302V158.677H79.6924V157.783H77.412V157.187H79.6924V156.158H77.5372C77.0031 157.504 75.6753 158.413 73.7749 158.869L73.5054 158.245C75.6031 157.759 76.8203 156.74 76.9646 155.36H73.9384V154.734H77.7968C77.7968 155.019 77.7681 155.292 77.7152 155.552H79.6924V154.302H80.4525ZM74.9102 159.678V159.062H80.4525V161.149H75.68V162.149H80.7413V162.774H74.9294V160.572H79.6924V159.678H74.9102ZM89.0245 154.302V159.398H88.2644V157.158H86.542V156.533H88.2644V154.302H89.0245ZM81.9715 158.716C83.2416 158.259 84.1462 157.101 84.1462 155.879V155.562H82.212V154.927H86.8211V155.562H84.9062V155.87C84.9062 156.985 85.7626 158.047 87.0135 158.476L86.6191 159.081C85.6617 158.735 84.916 158.013 84.5455 157.134C84.1799 158.134 83.3859 158.932 82.366 159.322L81.9715 158.716ZM83.3185 161.255C83.3138 160.249 84.4058 159.663 86.186 159.668C87.9613 159.663 89.0534 160.249 89.0534 161.255C89.0534 162.264 87.9613 162.841 86.186 162.851C84.4058 162.841 83.3138 162.264 83.3185 161.255ZM84.0691 161.255C84.0643 161.875 84.8725 162.25 86.186 162.245C87.4946 162.25 88.303 161.875 88.303 161.255C88.303 160.629 87.4946 160.254 86.186 160.254C84.8725 160.254 84.0643 160.629 84.0691 161.255ZM97.1923 154.312V157.129H98.4818V157.764H97.1923V160.716H96.4421V154.312H97.1923ZM90.5243 155.975V155.36H92.6986V154.312H93.4496V155.36H95.6242V155.975H90.5243ZM91.0149 158.042C91.0101 157.072 91.8379 156.446 93.0745 156.446C94.2963 156.446 95.1239 157.072 95.1331 158.042C95.1239 159.005 94.2963 159.625 93.0745 159.62C91.8379 159.625 91.0101 159.005 91.0149 158.042ZM91.7366 158.042C91.7316 158.644 92.2658 159.033 93.0745 159.024C93.8726 159.033 94.4117 158.644 94.4215 158.042C94.4117 157.432 93.8726 157.038 93.0745 157.043C92.2658 157.038 91.7316 157.432 91.7366 158.042ZM91.8427 162.668V160.207H92.5831V162.033H97.5871V162.668H91.8427ZM105.697 154.302V157.687H107.131V158.322H105.697V162.87H104.947V154.302H105.697ZM99.4523 160.726V155.139H103.446V155.763H100.202V160.091C101.752 160.086 102.844 160.019 104.119 159.783L104.215 160.437C102.873 160.678 101.752 160.726 100.126 160.726H99.4523ZM108.554 162.13C108.217 162.125 107.928 161.846 107.938 161.504C107.928 161.168 108.217 160.889 108.554 160.889C108.895 160.889 109.174 161.168 109.17 161.504C109.174 161.846 108.895 162.125 108.554 162.13ZM115.777 156.927C115.782 158.379 116.835 159.856 118.096 160.399L117.672 160.995C116.672 160.543 115.811 159.557 115.411 158.374C115.012 159.629 114.146 160.716 113.169 161.207L112.717 160.61C113.944 160.024 115.012 158.408 115.017 156.927V155.812H112.996V155.187H117.817V155.812H115.777V156.927ZM119.01 162.851V154.302H119.77V162.851H119.01ZM128.621 154.302V162.851H127.89V154.302H128.621ZM121.27 156.399V155.783H123.021V154.532H123.781V155.783H125.532V156.399H121.27ZM121.587 158.956C121.582 157.788 122.342 156.985 123.387 156.985C124.441 156.985 125.196 157.788 125.196 158.956C125.196 159.024 125.191 159.091 125.186 159.158H126.302V157.831H125.099V157.206H126.302V154.495H127.014V162.428H126.302V159.764H125.056C124.796 160.475 124.176 160.928 123.387 160.928C122.342 160.928 121.582 160.12 121.587 158.956ZM122.251 158.956C122.251 159.725 122.727 160.278 123.387 160.273C124.051 160.278 124.527 159.725 124.531 158.956C124.527 158.177 124.051 157.639 123.387 157.629C122.727 157.639 122.251 158.177 122.251 158.956ZM137.684 158.687V159.302H129.851V158.687H133.392V157.86H130.871V155.87H135.913V155.081H130.842V154.485H136.673V156.437H131.622V157.264H136.856V157.86H134.133V158.687H137.684ZM130.9 162.735V159.735H131.66V160.572H135.933V159.735H136.673V162.735H130.9ZM131.66 162.13H135.933V161.168H131.66V162.13ZM145.756 154.302V162.851H145.034V154.302H145.756ZM138.443 160.456C140.3 159.356 141.233 157.812 141.377 156.023H138.808V155.398H142.128C142.128 156.24 141.993 157.052 141.7 157.812H143.235V154.532H143.956V162.418H143.235V158.427H141.42C140.906 159.422 140.078 160.302 138.885 161.004L138.443 160.456ZM152.402 155.35C152.402 156.528 153.262 157.528 154.548 157.947L154.124 158.533C153.172 158.201 152.421 157.533 152.05 156.658C151.685 157.662 150.896 158.432 149.871 158.812L149.477 158.206C150.78 157.754 151.656 156.653 151.661 155.36V154.648H152.402V155.35ZM150.275 159.889V159.312H152.998V161.245H151.035V162.187C151.93 162.187 152.483 162.168 153.181 162.024L153.258 162.62C152.459 162.764 151.849 162.779 150.746 162.784H150.295V160.687H152.267V159.889H150.275ZM153.527 162.784V159.312H156.221V162.784H153.527ZM154.201 162.206H155.558V159.88H154.201V162.206ZM155.471 158.869V154.302H156.221V156.187H157.511V156.821H156.221V158.869H155.471ZM162.003 154.456C163.903 154.456 165.019 154.98 165.024 155.927C165.019 156.899 163.903 157.423 162.003 157.427C160.093 157.423 158.972 156.899 158.972 155.927C158.972 154.98 160.093 154.456 162.003 154.456ZM158.106 158.62V158.004H165.9V158.62H158.106ZM159.049 159.937V159.36H164.899V161.274H159.819V162.158H165.159V162.755H159.068V160.716H164.159V159.937H159.049ZM159.761 155.927C159.751 156.523 160.584 156.85 162.003 156.85C163.422 156.85 164.25 156.523 164.254 155.927C164.25 155.365 163.422 155.028 162.003 155.023C160.584 155.028 159.751 155.365 159.761 155.927ZM176.26 154.302V162.87H175.5V154.302H176.26ZM169.525 157.947C169.529 156.129 170.434 154.97 171.709 154.965C172.979 154.97 173.898 156.129 173.894 157.947C173.898 159.769 172.979 160.923 171.709 160.918C170.434 160.923 169.529 159.769 169.525 157.947ZM170.256 157.947C170.256 159.336 170.852 160.249 171.709 160.245C172.57 160.249 173.162 159.336 173.162 157.947C173.162 156.557 172.57 155.643 171.709 155.639C170.852 155.643 170.256 156.557 170.256 157.947ZM185.602 157.447V158.062H177.779V157.447H180.2C180.463 156.47 180.517 155.754 180.526 155.263H178.463V154.639H181.272V154.927C181.272 155.374 181.272 156.259 180.969 157.447H183.581C183.817 156.485 183.865 155.758 183.875 155.263H181.859V154.639H184.611V154.936C184.606 155.403 184.606 156.268 184.346 157.447H185.602ZM178.712 159.571V158.966H184.601V161.082H179.492V162.13H184.881V162.735H178.732V160.504H183.841V159.571H178.712ZM188.651 154.965C189.816 154.97 190.657 155.97 190.773 157.572H192.692V154.302H193.443V162.87H192.692V158.196H190.783C190.7 159.875 189.844 160.923 188.651 160.918C187.385 160.923 186.501 159.769 186.505 157.947C186.501 156.129 187.385 154.97 188.651 154.965ZM187.227 157.947C187.232 159.336 187.809 160.249 188.651 160.245C189.488 160.249 190.075 159.336 190.075 157.947C190.075 156.557 189.488 155.643 188.651 155.639C187.809 155.643 187.232 156.557 187.227 157.947ZM201.543 154.302V157.783H202.929V158.418H201.543V162.851H200.793V154.302H201.543ZM194.981 160.629C197.189 159.533 198.392 157.884 198.565 155.86H195.376V155.225H199.33C199.325 157.644 198.19 159.851 195.404 161.226L194.981 160.629ZM207.738 155.158V156.36H209.836V154.302H210.587V162.87H209.836V159.341H207.738V160.687H203.842V155.158H207.738ZM204.592 160.081H207.007V155.754H204.592V160.081ZM207.738 158.716H209.836V156.985H207.738V158.716ZM221.216 154.302V157.687H222.65V158.322H221.216V162.87H220.466V154.302H221.216ZM214.971 160.726V155.139H218.965V155.763H215.722V160.091C217.271 160.086 218.364 160.019 219.638 159.783L219.735 160.437C218.393 160.678 217.271 160.726 215.645 160.726H214.971ZM231.126 155.6V156.226H229.856V157.418H231.126V158.052H229.856V159.379H229.105V154.302H229.856V155.6H231.126ZM223.332 156.831C223.327 155.639 224.28 154.817 225.574 154.821C226.878 154.817 227.816 155.639 227.826 156.831C227.816 158.018 226.878 158.836 225.574 158.841C224.28 158.836 223.327 158.018 223.332 156.831ZM224.073 156.831C224.068 157.639 224.708 158.196 225.574 158.206C226.45 158.196 227.08 157.639 227.084 156.831C227.08 156.028 226.45 155.456 225.574 155.465C224.708 155.456 224.068 156.028 224.073 156.831ZM224.275 161.245C224.28 160.231 225.367 159.644 227.113 159.639C228.86 159.644 229.933 160.231 229.933 161.245C229.933 162.24 228.86 162.832 227.113 162.832C225.367 162.832 224.28 162.24 224.275 161.245ZM225.035 161.245C225.025 161.86 225.824 162.221 227.113 162.226C228.408 162.221 229.197 161.86 229.201 161.245C229.197 160.624 228.408 160.254 227.113 160.254C225.824 160.254 225.025 160.624 225.035 161.245ZM234.685 155.648C234.675 156.87 235.546 157.942 236.802 158.369L236.378 158.956C235.435 158.605 234.695 157.908 234.324 157.009C233.958 158.033 233.179 158.827 232.145 159.216L231.731 158.6C233.049 158.139 233.925 157.004 233.935 155.677V154.792H234.685V155.648ZM233.126 161.236C233.121 160.207 234.213 159.615 235.993 159.62C237.769 159.615 238.861 160.207 238.861 161.236C238.861 162.255 237.769 162.832 235.993 162.832C234.213 162.832 233.121 162.255 233.126 161.236ZM233.877 161.236C233.872 161.855 234.68 162.231 235.993 162.226C237.302 162.231 238.11 161.855 238.11 161.236C238.11 160.596 237.302 160.216 235.993 160.216C234.68 160.216 233.872 160.596 233.877 161.236ZM236.166 156.764V156.138H238.071V154.302H238.832V159.37H238.071V156.764H236.166ZM245.056 155.254V155.697C245.051 156.374 245.051 157.504 244.806 159.091L244.046 159.024C244.282 157.591 244.301 156.552 244.296 155.87H240.707V155.254H245.056ZM240.226 160.341C240.789 160.336 241.414 160.331 242.073 160.317V157.696H242.814V160.293C243.762 160.259 244.734 160.197 245.624 160.091L245.663 160.658C243.863 160.937 241.852 160.975 240.322 160.966L240.226 160.341ZM246.162 162.851V154.302H246.913V157.879H248.299V158.533H246.913V162.851H246.162ZM259.246 161.149V161.793H251.413V161.149H254.925V159.178H252.126V158.571H253.463V155.763H252.107V155.139H258.496V155.763H257.139V158.571H258.476V159.178H255.666V161.149H259.246ZM254.214 158.571H256.398V155.763H254.214V158.571ZM267.779 158.533V159.158H259.986V158.533H261.92V157.326C261.236 157.062 260.851 156.629 260.851 156.052C260.851 155.047 262.006 154.47 263.883 154.466C265.744 154.47 266.899 155.047 266.904 156.052C266.899 156.624 266.519 157.057 265.845 157.326V158.533H267.779ZM260.929 161.322C260.924 160.346 262.025 159.807 263.883 159.812C265.715 159.807 266.817 160.346 266.827 161.322C266.817 162.298 265.715 162.832 263.883 162.832C262.025 162.832 260.924 162.298 260.929 161.322ZM261.631 156.052C261.626 156.677 262.483 157.038 263.883 157.043C265.268 157.038 266.129 156.677 266.134 156.052C266.129 155.436 265.268 155.061 263.883 155.061C262.483 155.061 261.626 155.436 261.631 156.052ZM261.698 161.322C261.689 161.904 262.512 162.25 263.883 162.245C265.239 162.25 266.062 161.904 266.066 161.322C266.062 160.74 265.239 160.399 263.883 160.389C262.512 160.399 261.689 160.74 261.698 161.322ZM262.67 158.533H265.095V157.528C264.734 157.596 264.33 157.629 263.883 157.629C263.435 157.629 263.031 157.596 262.67 157.533V158.533ZM271.358 154.927C272.7 154.932 273.653 155.749 273.658 156.937C273.653 158.13 272.7 158.942 271.358 158.947C270.006 158.942 269.043 158.13 269.048 156.937C269.043 155.749 270.006 154.932 271.358 154.927ZM268.606 160.341C270.184 160.346 272.363 160.331 274.254 160.053L274.311 160.61C272.353 160.975 270.251 160.985 268.711 160.985L268.606 160.341ZM269.789 156.937C269.785 157.735 270.443 158.283 271.358 158.283C272.262 158.283 272.921 157.735 272.916 156.937C272.921 156.143 272.262 155.59 271.358 155.59C270.443 155.59 269.785 156.143 269.789 156.937ZM274.822 162.87V154.302H275.572V162.87H274.822ZM286.279 154.302V157.783H287.665V158.418H286.279V162.851H285.529V154.302H286.279ZM279.717 160.629C281.924 159.533 283.127 157.884 283.301 155.86H280.111V155.225H284.065C284.061 157.644 282.925 159.851 280.14 161.226L279.717 160.629ZM41.0678 168.369V176.918H40.3076V168.369H41.0678ZM34.188 174.678C35.4581 174.101 36.4298 172.658 36.4298 171.158V170.475H34.4188V169.86H36.4202V168.533H37.1708V169.86H39.1625V170.475H37.1708V171.158C37.1708 172.591 38.1714 173.976 39.4608 174.524L39.0374 175.11C38.0464 174.673 37.2141 173.75 36.8148 172.62C36.4299 173.812 35.6023 174.798 34.6112 175.264L34.188 174.678ZM50.4095 172.341V172.937H42.577V172.341H50.4095ZM43.5201 174.187V173.62H49.4281V175.437H44.2897V176.255H49.7071V176.803H43.5296V174.918H48.6776V174.187H43.5201ZM43.5681 169.177V168.629H49.3993V170.398H44.3475V171.148H49.5532V171.697H43.597V169.879H48.639V169.177H43.5681ZM56.7477 170.995C56.7525 172.447 57.8061 173.923 59.0667 174.466L58.6433 175.062C57.6425 174.61 56.7814 173.625 56.382 172.442C55.9827 173.697 55.1167 174.783 54.1401 175.274L53.6879 174.678C54.9147 174.091 55.9827 172.475 55.9876 170.995V169.879H53.9669V169.254H58.7877V169.879H56.7477V170.995ZM59.9809 176.918V168.369H60.7409V176.918H59.9809ZM70.2174 169.869V170.495H68.9472V171.677H70.2174V172.312H68.9472V173.889H68.1968V168.369H68.9472V169.869H70.2174ZM62.279 169.946V169.35H64.4537V168.302H65.2043V169.35H67.3788V169.946H62.279ZM62.7698 171.899C62.765 170.985 63.5878 170.394 64.829 170.389C66.0558 170.394 66.8785 170.985 66.8881 171.899C66.8785 172.822 66.0558 173.413 64.829 173.408C63.5878 173.413 62.765 172.822 62.7698 171.899ZM63.4433 175.428C63.4385 174.495 64.4971 173.952 66.2435 173.947C67.9851 173.952 69.0436 174.495 69.0436 175.428C69.0436 176.356 67.9851 176.899 66.2435 176.899C64.4971 176.899 63.4385 176.356 63.4433 175.428ZM63.4915 171.899C63.4868 172.461 64.0207 172.822 64.829 172.822C65.6276 172.822 66.1665 172.461 66.1761 171.899C66.1665 171.336 65.6276 170.966 64.829 170.956C64.0207 170.966 63.4868 171.336 63.4915 171.899ZM64.1939 175.428C64.1844 175.98 64.9637 176.317 66.2435 176.312C67.5185 176.317 68.2977 175.98 68.293 175.428C68.2977 174.861 67.5185 174.543 66.2435 174.543C64.9637 174.543 64.1844 174.861 64.1939 175.428ZM75.104 169.851V170.466H70.8126V169.851H72.5927V168.629H73.3433V169.851H75.104ZM71.1205 172.985C71.1205 171.85 71.895 171.048 72.9583 171.043C74.0359 171.048 74.8058 171.85 74.8154 172.985C74.8058 174.134 74.0359 174.942 72.9583 174.947C71.895 174.942 71.1205 174.134 71.1205 172.985ZM71.794 172.985C71.794 173.745 72.2799 174.288 72.9583 174.283C73.6415 174.288 74.1418 173.745 74.1418 172.985C74.1418 172.235 73.6415 171.687 72.9583 171.677C72.2799 171.687 71.794 172.235 71.794 172.985ZM75.5466 176.495V168.581H76.2587V171.975H77.3941V168.369H78.1158V176.918H77.3941V172.601H76.2587V176.495H75.5466ZM81.6939 169.032C82.9544 169.037 83.8493 170.197 83.859 172.014C83.8493 173.837 82.9544 174.99 81.6939 174.985C80.4238 174.99 79.5337 173.837 79.5384 172.014C79.5337 170.197 80.4238 169.037 81.6939 169.032ZM80.2506 172.014C80.2554 173.403 80.8472 174.317 81.6939 174.312C82.5503 174.317 83.1276 173.403 83.1276 172.014C83.1276 170.624 82.5503 169.711 81.6939 169.706C80.8472 169.711 80.2554 170.624 80.2506 172.014ZM85.2733 176.918V168.369H86.024V170.524H87.4095V171.168H86.024V173.072H87.4095V173.706H86.024V176.918H85.2733ZM97.1923 168.379V171.197H98.4818V171.831H97.1923V174.783H96.4421V168.379H97.1923ZM90.5243 170.043V169.427H92.6986V168.379H93.4496V169.427H95.6242V170.043H90.5243ZM91.0149 172.11C91.0101 171.139 91.8379 170.514 93.0745 170.514C94.2963 170.514 95.1239 171.139 95.1331 172.11C95.1239 173.072 94.2963 173.692 93.0745 173.687C91.8379 173.692 91.0101 173.072 91.0149 172.11ZM91.7366 172.11C91.7316 172.711 92.2658 173.101 93.0745 173.091C93.8726 173.101 94.4117 172.711 94.4215 172.11C94.4117 171.499 93.8726 171.105 93.0745 171.11C92.2658 171.105 91.7316 171.499 91.7366 172.11ZM91.8427 176.736V174.274H92.5831V176.101H97.5871V176.736H91.8427ZM105.697 168.369V171.755H107.131V172.389H105.697V176.938H104.947V168.369H105.697ZM99.4523 174.793V169.206H103.446V169.831H100.202V174.159C101.752 174.154 102.844 174.086 104.119 173.851L104.215 174.505C102.873 174.745 101.752 174.793 100.126 174.793H99.4523ZM108.554 176.197C108.217 176.192 107.928 175.914 107.938 175.572C107.928 175.236 108.217 174.956 108.554 174.956C108.895 174.956 109.174 175.236 109.17 175.572C109.174 175.914 108.895 176.192 108.554 176.197ZM119.78 168.379V174.63H119.029V168.379H119.78ZM112.919 171.072C112.914 169.841 113.881 168.98 115.161 168.975C116.44 168.98 117.398 169.841 117.403 171.072C117.398 172.317 116.44 173.182 115.161 173.177C113.881 173.182 112.914 172.317 112.919 171.072ZM113.66 171.072C113.651 171.923 114.295 172.514 115.161 172.514C116.013 172.514 116.662 171.923 116.662 171.072C116.662 170.235 116.013 169.639 115.161 169.639C114.295 169.639 113.651 170.235 113.66 171.072ZM114.257 176.736V173.995H115.007V176.101H120.049V176.736H114.257ZM127.976 168.369V170.975H129.266V171.61H127.976V174.63H127.216V168.369H127.976ZM121.299 173.033C123.353 172.394 124.685 171.177 124.844 169.668H121.655V169.032H125.667C125.667 171.235 124.094 172.87 121.626 173.639L121.299 173.033ZM122.617 176.736V173.995H123.367V176.101H128.371V176.736H122.617ZM134.605 169.032V169.485C134.6 170.047 134.6 170.899 134.383 172.014L133.623 171.956C133.83 170.937 133.85 170.211 133.859 169.668H130.342V169.032H134.605ZM129.813 172.812C130.366 172.812 130.991 172.807 131.651 172.788V170.927H132.401V172.764C133.349 172.725 134.33 172.658 135.221 172.533L135.268 173.091C133.474 173.399 131.415 173.432 129.89 173.437L129.813 172.812ZM131.131 176.736V174.225H131.891V176.101H136.846V176.736H131.131ZM135.798 174.803V168.369H136.568V171.158H137.818V171.802H136.568V174.803H135.798ZM145.756 168.369V176.918H145.034V168.369H145.756ZM138.424 174.524C140.285 173.423 141.218 171.879 141.368 170.09H138.808V169.466H142.118C142.118 169.903 142.08 170.336 142.003 170.754H143.302V168.6H144.024V176.485H143.302V173.524H141.714V172.899H143.302V171.379H141.854C141.44 172.826 140.502 174.105 138.885 175.072L138.424 174.524ZM149.584 168.927C150.897 168.937 151.859 169.744 151.864 170.937C151.859 172.009 151.08 172.769 149.969 172.913V174.365C150.767 174.332 151.57 174.274 152.317 174.178L152.364 174.745C150.551 175.053 148.53 175.072 147.024 175.062L146.899 174.427C147.587 174.423 148.381 174.418 149.209 174.394V172.913C148.073 172.779 147.298 172.014 147.303 170.937C147.298 169.744 148.246 168.937 149.584 168.927ZM148.044 170.937C148.035 171.74 148.684 172.298 149.584 172.293C150.469 172.298 151.114 171.74 151.123 170.937C151.114 170.134 150.469 169.586 149.584 169.581C148.684 169.586 148.035 170.134 148.044 170.937ZM152.865 176.918V168.369H153.615V171.899H155.011V172.552H153.615V176.918H152.865ZM165.178 168.369V176.918H164.418V168.369H165.178ZM158.212 174.697C160.526 173.601 161.709 171.961 161.878 169.917H158.606V169.302H162.648C162.638 171.759 161.493 173.937 158.625 175.312L158.212 174.697ZM170.969 168.744C170.965 169.807 172.509 170.624 174.048 170.812L173.78 171.389C172.432 171.206 171.114 170.605 170.575 169.682C170.027 170.605 168.704 171.206 167.371 171.389L167.111 170.812C168.646 170.624 170.19 169.807 170.19 168.744V168.417H170.969V168.744ZM166.678 172.562V171.947H174.472V172.562H170.94V173.418H173.471V175.361H168.391V176.226H173.731V176.822H167.64V174.793H172.73V174.014H167.621V173.418H170.19V172.562H166.678ZM182.629 169.254V169.879H177.789V169.254H179.867V168.302H180.618V169.254H182.629ZM178.299 171.947C178.289 170.99 179.092 170.36 180.233 170.351C181.373 170.36 182.181 170.99 182.186 171.947C182.181 172.894 181.373 173.543 180.233 173.552C179.092 173.543 178.289 172.894 178.299 171.947ZM179.001 171.947C178.997 172.543 179.501 172.952 180.233 172.947C180.964 172.952 181.474 172.543 181.484 171.947C181.474 171.35 180.964 170.941 180.233 170.937C179.501 170.941 178.997 171.35 179.001 171.947ZM179.116 174.908V174.293H184.871V176.918H184.111V174.908H179.116ZM182.619 172.716V172.081H184.111V171.091H182.629V170.485H184.111V168.369H184.871V173.793H184.111V172.716H182.619ZM193.414 168.379V174.649H192.663V168.379H193.414ZM186.438 172.822C187.732 172.317 188.613 171.067 188.613 169.715V168.859H189.382V169.715C189.373 171.019 190.262 172.187 191.538 172.649L191.143 173.254C190.152 172.874 189.382 172.106 189.002 171.119C188.632 172.168 187.852 173.009 186.852 173.408L186.438 172.822ZM187.891 176.736V174.072H188.642V176.101H193.684V176.736H187.891ZM198.82 168.523C200.721 168.523 201.836 169.047 201.841 169.995C201.836 170.966 200.721 171.49 198.82 171.494C196.91 171.49 195.789 170.966 195.789 169.995C195.789 169.047 196.91 168.523 198.82 168.523ZM194.923 172.687V172.072H202.717V172.687H194.923ZM195.866 174.005V173.428H201.717V175.341H196.636V176.226H201.976V176.822H195.885V174.783H200.976V174.005H195.866ZM196.578 169.995C196.569 170.59 197.401 170.918 198.82 170.918C200.24 170.918 201.067 170.59 201.072 169.995C201.067 169.432 200.24 169.095 198.82 169.091C197.401 169.095 196.569 169.432 196.578 169.995ZM213.819 172.908V173.524H206.015V172.908H209.537V172.062H207.054V168.62H212.847V169.235H207.814V170.033H212.616V170.61H207.814V171.456H212.894V172.062H210.287V172.908H213.819ZM206.967 175.534C206.963 174.644 208.026 174.159 209.922 174.168C211.798 174.159 212.856 174.644 212.866 175.534C212.856 176.433 211.798 176.899 209.922 176.899C208.026 176.899 206.963 176.433 206.967 175.534ZM207.727 175.534C207.718 176.053 208.507 176.322 209.922 176.312C211.321 176.322 212.101 176.053 212.106 175.534C212.101 175.024 211.321 174.74 209.922 174.735C208.507 174.74 207.718 175.024 207.727 175.534ZM218.868 169.851V170.466H214.577V169.851H216.357V168.629H217.107V169.851H218.868ZM214.885 172.985C214.885 171.85 215.66 171.048 216.723 171.043C217.801 171.048 218.571 171.85 218.58 172.985C218.571 174.134 217.801 174.942 216.723 174.947C215.66 174.942 214.885 174.134 214.885 172.985ZM215.558 172.985C215.558 173.745 216.045 174.288 216.723 174.283C217.406 174.288 217.906 173.745 217.906 172.985C217.906 172.235 217.406 171.687 216.723 171.677C216.045 171.687 215.558 172.235 215.558 172.985ZM219.311 176.495V168.581H220.023V171.975H221.158V168.369H221.881V176.918H221.158V172.601H220.023V176.495H219.311ZM230.057 169.187V169.822H226.891V174.178C228.435 174.183 229.45 174.13 230.634 173.898L230.73 174.524C229.47 174.764 228.425 174.822 226.785 174.822H226.131V169.187H230.057ZM229.546 172.11V171.485H232.038V168.369H232.799V176.938H232.038V172.11H229.546ZM244.805 171.783V172.418H243.419V176.918H242.669V168.369H243.419V171.783H244.805ZM237.155 174.745V169.215H237.905V174.11C239.156 174.11 240.431 174.014 241.841 173.716L241.937 174.361C240.46 174.659 239.132 174.745 237.838 174.745H237.155ZM253.165 172.879V173.495H245.371V172.879H253.165ZM246.237 170.37C246.237 169.297 247.411 168.667 249.267 168.677C251.106 168.667 252.285 169.297 252.289 170.37C252.285 171.432 251.106 172.072 249.267 172.072C247.411 172.072 246.237 171.432 246.237 170.37ZM246.381 176.736V174.245H247.141V176.101H252.299V176.736H246.381ZM247.016 170.37C247.011 171.048 247.887 171.456 249.267 171.456C250.639 171.456 251.515 171.048 251.52 170.37C251.515 169.701 250.639 169.283 249.267 169.283C247.887 169.283 247.011 169.701 247.016 170.37ZM259.012 170.802C259.012 172.163 259.676 173.63 260.812 174.303L260.378 174.889C259.551 174.389 258.959 173.476 258.661 172.432C258.349 173.572 257.713 174.553 256.856 175.072L256.376 174.505C257.56 173.812 258.281 172.298 258.281 170.831V169.177H259.012V170.802ZM259.869 172.081V171.437H261.321V168.552H262.034V176.485H261.321V172.081H259.869ZM263.073 176.918V168.369H263.804V176.918H263.073ZM267.902 169.754C267.902 170.918 268.787 171.985 270.028 172.408L269.614 173.004C268.672 172.658 267.926 171.951 267.551 171.057C267.185 172.072 266.42 172.855 265.419 173.245L265.015 172.639C266.295 172.163 267.156 171.019 267.161 169.696V168.812H267.902V169.754ZM266.15 175.341C266.155 174.365 267.228 173.793 268.989 173.793C270.745 173.793 271.809 174.365 271.809 175.341C271.809 176.336 270.745 176.899 268.989 176.899C267.228 176.899 266.155 176.336 266.15 175.341ZM266.911 175.341C266.901 175.947 267.7 176.298 268.989 176.303C270.284 176.298 271.073 175.947 271.077 175.341C271.073 174.759 270.284 174.398 268.989 174.398C267.7 174.398 266.901 174.759 266.911 175.341ZM270.981 173.572V168.369H271.731V170.6H273.021V171.235H271.731V173.572H270.981ZM277.513 168.523C279.413 168.523 280.529 169.047 280.534 169.995C280.529 170.966 279.413 171.49 277.513 171.494C275.603 171.49 274.482 170.966 274.482 169.995C274.482 169.047 275.603 168.523 277.513 168.523ZM273.616 172.687V172.072H281.41V172.687H273.616ZM274.559 174.005V173.428H280.409V175.341H275.328V176.226H280.669V176.822H274.578V174.783H279.668V174.005H274.559ZM275.271 169.995C275.262 170.59 276.093 170.918 277.513 170.918C278.933 170.918 279.759 170.59 279.764 169.995C279.759 169.432 278.933 169.095 277.513 169.091C276.093 169.095 275.262 169.432 275.271 169.995ZM38.335 183.216V187.149H34.3803V183.216H38.335ZM35.1213 186.543H37.6037V183.831H35.1213V186.543ZM35.3521 190.803V188.111H36.093V190.168H41.0966V190.803H35.3521ZM39.9515 188.706V182.437H40.7021V185.043H41.9916V185.678H40.7021V188.706H39.9515ZM50.3904 186.033V186.639H42.5867V186.033H50.3904ZM43.5296 187.995V187.408H49.38V189.389H44.2994V190.274H49.6398V190.89H43.549V188.822H48.639V187.995H43.5296ZM43.6259 185.331V182.735H49.3703V183.34H44.3859V184.716H49.457V185.331H43.6259ZM57.9794 183.235C57.9843 184.442 59.5527 185.48 61.097 185.697L60.7891 186.312C59.4613 186.091 58.143 185.356 57.5946 184.307C57.0461 185.365 55.7326 186.091 54.3999 186.312L54.0919 185.697C55.6363 185.48 57.2 184.461 57.2 183.235V182.745H57.9794V183.235ZM53.6879 187.889V187.255H61.4818V187.889H57.9408V190.985H57.2V187.889H53.6879ZM67.6854 188.178C67.6806 188.932 68.0894 189.735 68.9025 190.197C69.7204 189.693 70.1534 188.837 70.1486 188.178V187.706H70.8896V188.178C70.8848 189.057 71.5343 189.932 72.6312 190.312L72.2558 190.87C71.3995 190.568 70.803 189.971 70.5047 189.254C70.2401 189.947 69.7156 190.606 68.9266 190.938C68.0942 190.62 67.565 189.995 67.31 189.279C67.0021 189.966 66.4152 190.563 65.5973 190.87L65.2125 190.312C66.295 189.909 66.9445 188.995 66.9541 188.178V187.706H67.6854V188.178ZM64.9911 184.946C64.9862 183.754 65.9341 182.942 67.2331 182.947C68.5321 182.942 69.4702 183.754 69.4751 184.946C69.4702 186.119 68.5321 186.928 67.2331 186.928C65.9341 186.928 64.9862 186.119 64.9911 184.946ZM65.7321 184.946C65.7224 185.74 66.3527 186.297 67.2331 186.302C68.104 186.297 68.7341 185.74 68.7341 184.946C68.7341 184.149 68.104 183.581 67.2331 183.591C66.3527 183.581 65.7224 184.149 65.7321 184.946ZM71.1012 187.331V182.446H71.8517V187.331H71.1012ZM79.9812 182.437V185.822H81.4149V186.456H79.9812V191.005H79.2305V182.437H79.9812ZM73.7363 188.861V183.274H77.7295V183.898H74.4869V188.226C76.036 188.221 77.1281 188.154 78.403 187.918L78.4992 188.572C77.1569 188.813 76.0359 188.861 74.4098 188.861H73.7363ZM82.8375 190.264C82.5008 190.26 82.2121 189.981 82.2217 189.639C82.2121 189.303 82.5008 189.024 82.8375 189.024C83.1792 189.024 83.4582 189.303 83.4534 189.639C83.4582 189.981 83.1792 190.26 82.8375 190.264ZM94.0541 182.437V191.005H93.294V182.437H94.0541ZM87.3187 186.081C87.3235 184.264 88.2279 183.105 89.5028 183.1C90.773 183.105 91.6922 184.264 91.6873 186.081C91.6922 187.904 90.773 189.057 89.5028 189.053C88.2279 189.057 87.3235 187.904 87.3187 186.081ZM88.0498 186.081C88.0498 187.471 88.6464 188.384 89.5028 188.379C90.364 188.384 90.9558 187.471 90.9558 186.081C90.9558 184.692 90.364 183.778 89.5028 183.774C88.6464 183.778 88.0498 184.692 88.0498 186.081ZM102.491 185.033V185.639H96.6315V182.754H97.3824V185.033H102.491ZM95.5637 187.418V186.802H103.396V187.418H95.5637ZM96.5836 190.774V188.293H97.3339V190.149H102.54V190.774H96.5836ZM114.497 187.341V187.976H110.927V190.985H110.187V187.976H106.665V187.341H114.497ZM107.55 184.668C107.554 183.509 108.762 182.788 110.562 182.783C112.356 182.788 113.573 183.509 113.573 184.668C113.573 185.807 112.356 186.529 110.562 186.524C108.762 186.529 107.554 185.807 107.55 184.668ZM108.329 184.668C108.319 185.427 109.229 185.918 110.562 185.918C111.894 185.918 112.799 185.427 112.803 184.668C112.799 183.893 111.894 183.398 110.562 183.398C109.229 183.398 108.319 183.893 108.329 184.668ZM122.309 182.437V191.005H121.558V182.437H122.309ZM115.728 183.86V183.235H119.711V186.274H116.516V188.293C117.935 188.298 119.201 188.23 120.731 187.986L120.808 188.62C119.235 188.865 117.935 188.928 116.459 188.928H115.746V185.658H118.951V183.86H115.728ZM134.18 189.254V189.89H126.347V189.254H129.869V187.168H127.271V183.158H133.208V187.168H130.61V189.254H134.18ZM128.012 186.562H132.476V183.764H128.012V186.562ZM141.741 185.639V186.245H135.997V182.947H141.626V183.571H136.767V185.639H141.741ZM134.91 187.995V187.379H142.742V187.995H139.172V190.957H138.431V187.995H134.91ZM146.291 183.062C147.633 183.067 148.586 183.884 148.591 185.071C148.586 186.264 147.633 187.077 146.291 187.082C144.939 187.077 143.977 186.264 143.982 185.071C143.977 183.884 144.939 183.067 146.291 183.062ZM143.539 188.476C145.117 188.481 147.297 188.466 149.187 188.187L149.245 188.745C147.287 189.11 145.185 189.12 143.645 189.12L143.539 188.476ZM144.723 185.071C144.718 185.87 145.377 186.418 146.291 186.418C147.196 186.418 147.855 185.87 147.85 185.071C147.855 184.278 147.196 183.725 146.291 183.725C145.377 183.725 144.718 184.278 144.723 185.071ZM149.755 191.005V182.437H150.506V191.005H149.755ZM157.123 184.293C157.123 185.302 157.797 186.288 158.884 186.687L158.518 187.274C157.686 186.942 157.09 186.302 156.786 185.533C156.488 186.37 155.887 187.062 155.035 187.428L154.66 186.86C155.752 186.413 156.401 185.38 156.411 184.293V184.187H154.833V183.571H156.411V182.543H157.123V183.571H158.673V184.187H157.123V184.293ZM156.094 188.755V188.14H161.857V190.985H161.116V188.755H156.094ZM159.288 187.639V182.601H160.02V184.735H161.136V182.446H161.857V187.677H161.136V185.36H160.02V187.639H159.288ZM170.227 182.446V187.331H169.477V182.446H170.227ZM163.367 184.898C163.362 183.706 164.309 182.898 165.608 182.898C166.908 182.898 167.846 183.706 167.851 184.898C167.846 186.072 166.908 186.889 165.608 186.889C164.309 186.889 163.362 186.072 163.367 184.898ZM164.107 184.898C164.098 185.692 164.728 186.25 165.608 186.245C166.479 186.25 167.11 185.692 167.11 184.898C167.11 184.1 166.479 183.538 165.608 183.542C164.728 183.538 164.098 184.1 164.107 184.898ZM164.665 190.87V187.793H170.227V190.87H164.665ZM165.406 190.255H169.486V188.408H165.406V190.255ZM178.79 182.437V191.005H178.029V182.437H178.79ZM172.054 186.081C172.059 184.264 172.963 183.105 174.238 183.1C175.508 183.105 176.427 184.264 176.422 186.081C176.427 187.904 175.508 189.057 174.238 189.053C172.963 189.057 172.059 187.904 172.054 186.081ZM172.785 186.081C172.785 187.471 173.382 188.384 174.238 188.379C175.099 188.384 175.691 187.471 175.691 186.081C175.691 184.692 175.099 183.778 174.238 183.774C173.382 183.778 172.785 184.692 172.785 186.081ZM186.929 182.437V185.822H188.362V186.456H186.929V191.005H186.178V182.437H186.929ZM180.684 188.861V183.274H184.677V183.898H181.434V188.226C182.983 188.221 184.075 188.154 185.351 187.918L185.446 188.572C184.104 188.813 182.983 188.861 181.357 188.861H180.684ZM189.785 190.264C189.448 190.26 189.16 189.981 189.169 189.639C189.16 189.303 189.448 189.024 189.785 189.024C190.127 189.024 190.405 189.303 190.4 189.639C190.405 189.981 190.127 190.26 189.785 190.264ZM198.403 183.283V188.842H194.449V183.283H198.403ZM195.19 188.226H197.663V183.889H195.19V188.226ZM200.242 191.005V182.437H201.002V191.005H200.242ZM206.013 183.369V186.36H203.54V188.303C204.527 188.298 205.455 188.259 206.562 188.072L206.629 188.687C205.412 188.899 204.445 188.937 203.367 188.937H202.809V185.735H205.282V184.004H202.79V183.369H206.013ZM207.159 190.544V182.629H207.851V185.822H209.112V182.437H209.834V190.985H209.112V186.447H207.851V190.544H207.159ZM218.425 182.437V190.985H217.693V182.437H218.425ZM211.198 186.129C211.203 184.312 211.925 183.163 213.036 183.158C214.075 183.163 214.778 184.163 214.874 185.773H215.981V182.62H216.702V190.553H215.981V186.399H214.879C214.807 188.062 214.09 189.106 213.036 189.101C211.925 189.106 211.203 187.947 211.198 186.129ZM211.911 186.129C211.901 187.514 212.343 188.389 213.036 188.379C213.733 188.389 214.176 187.514 214.172 186.129C214.176 184.74 213.733 183.869 213.036 183.869C212.343 183.869 211.901 184.74 211.911 186.129ZM229.506 182.437V190.985H228.785V186.504H227.524V190.544H226.832V182.629H227.524V185.88H228.785V182.437H229.506ZM222.511 188.87V183.485H225.716V184.11H223.261V188.226C224.44 188.221 225.253 188.178 226.206 187.986L226.274 188.62C225.244 188.832 224.373 188.865 223.059 188.87H222.511ZM237.453 182.446V185.264H238.742V185.899H237.453V188.851H236.703V182.446H237.453ZM230.785 184.11V183.494H232.96V182.446H233.71V183.494H235.885V184.11H230.785ZM231.276 186.177C231.271 185.206 232.098 184.581 233.335 184.581C234.557 184.581 235.384 185.206 235.394 186.177C235.384 187.139 234.557 187.76 233.335 187.755C232.098 187.76 231.271 187.139 231.276 186.177ZM231.997 186.177C231.993 186.779 232.526 187.168 233.335 187.158C234.134 187.168 234.672 186.779 234.682 186.177C234.672 185.567 234.134 185.173 233.335 185.178C232.526 185.173 231.993 185.567 231.997 186.177ZM232.103 190.803V188.341H232.844V190.168H237.848V190.803H232.103ZM249.69 187.341V187.976H246.12V190.985H245.379V187.976H241.857V187.341H249.69ZM242.743 184.668C242.747 183.509 243.955 182.788 245.754 182.783C247.549 182.788 248.766 183.509 248.766 184.668C248.766 185.807 247.549 186.529 245.754 186.524C243.955 186.529 242.747 185.807 242.743 184.668ZM243.522 184.668C243.513 185.427 244.422 185.918 245.754 185.918C247.087 185.918 247.991 185.427 247.996 184.668C247.991 183.893 247.087 183.398 245.754 183.398C244.422 183.398 243.513 183.893 243.522 184.668ZM257.501 182.437V191.005H256.751V182.437H257.501ZM250.92 183.86V183.235H254.903V186.274H251.709V188.293C253.128 188.298 254.393 188.23 255.923 187.986L256.001 188.62C254.427 188.865 253.128 188.928 251.651 188.928H250.939V185.658H254.143V183.86H250.92ZM261.811 183.062C263.153 183.067 264.106 183.884 264.111 185.071C264.106 186.264 263.153 187.077 261.811 187.082C260.459 187.077 259.496 186.264 259.501 185.071C259.496 183.884 260.459 183.067 261.811 183.062ZM259.059 188.476C260.637 188.481 262.816 188.466 264.707 188.187L264.765 188.745C262.806 189.11 260.704 189.12 259.165 189.12L259.059 188.476ZM260.242 185.071C260.238 185.87 260.897 186.418 261.811 186.418C262.716 186.418 263.374 185.87 263.369 185.071C263.374 184.278 262.716 183.725 261.811 183.725C260.897 183.725 260.238 184.278 260.242 185.071ZM265.275 191.005V182.437H266.026V191.005H265.275ZM273.634 182.86V183.091C273.629 183.542 273.629 184.49 273.301 185.802H275.972C276.217 184.764 276.261 184 276.27 183.475H274.278V182.86H277.001V183.177C276.996 183.687 276.996 184.576 276.732 185.802H277.935V186.418H274.365V187.87H276.934V190.87H271.084V187.87H273.624V186.418H270.112V185.802H272.551C272.811 184.764 272.869 183.99 272.888 183.475H270.872V182.86H273.634ZM271.825 190.255H276.183V188.476H271.825V190.255ZM283.428 183.389V183.831C283.423 184.509 283.423 185.639 283.178 187.226L282.418 187.158C282.653 185.726 282.672 184.687 282.668 184.004H279.078V183.389H283.428ZM278.598 188.476C279.161 188.471 279.786 188.466 280.445 188.452V185.831H281.186V188.428C282.133 188.394 283.105 188.332 283.996 188.226L284.034 188.793C282.235 189.072 280.223 189.11 278.693 189.101L278.598 188.476ZM284.534 190.985V182.437H285.285V186.014H286.67V186.668H285.285V190.985H284.534ZM41.0294 196.504V205.053H40.2788V196.504H41.0294ZM34.0627 202.716C35.7033 202.716 37.8443 202.711 39.711 202.476L39.7688 203.033C37.8395 203.351 35.7707 203.37 34.1782 203.36L34.0627 202.716ZM34.2457 198.283V197.667H36.4876V196.6H37.2574V197.667H39.4897V198.283H34.2457ZM34.8326 200.37C34.823 199.384 35.6601 198.759 36.8724 198.754C38.0896 198.759 38.9219 199.384 38.9316 200.37C38.9219 201.331 38.0896 201.976 36.8724 201.966C35.6601 201.976 34.823 201.331 34.8326 200.37ZM35.535 200.37C35.535 200.971 36.0834 201.375 36.8724 201.38C37.6614 201.375 38.2051 200.971 38.2099 200.37C38.2051 199.764 37.6614 199.351 36.8724 199.351C36.0834 199.351 35.535 199.764 35.535 200.37ZM46.9071 197.158V200.822H42.9523V197.158H46.9071ZM43.6932 203.447C43.698 202.447 44.7853 201.851 46.5318 201.851C48.2782 201.851 49.3511 202.447 49.3511 203.447C49.3511 204.457 48.2782 205.044 46.5318 205.053C44.7853 205.044 43.698 204.457 43.6932 203.447ZM43.6932 200.216H46.1758V197.774H43.6932V200.216ZM44.4534 203.447C44.4438 204.072 45.2423 204.433 46.5318 204.437C47.8259 204.433 48.615 204.072 48.6199 203.447C48.615 202.832 47.8259 202.467 46.5318 202.467C45.2423 202.467 44.4438 202.832 44.4534 203.447ZM48.5235 201.563V196.504H49.274V198.649H50.5635V199.274H49.274V201.563H48.5235ZM58.2118 196.504V205.073H57.4515V196.504H58.2118ZM51.4762 200.149C51.481 198.331 52.3856 197.172 53.6604 197.167C54.9305 197.172 55.8495 198.331 55.8447 200.149C55.8495 201.971 54.9305 203.125 53.6604 203.12C52.3856 203.125 51.481 201.971 51.4762 200.149ZM52.2075 200.149C52.2075 201.538 52.804 202.452 53.6604 202.447C54.5215 202.452 55.1133 201.538 55.1133 200.149C55.1133 198.759 54.5215 197.845 53.6604 197.841C52.804 197.845 52.2075 198.759 52.2075 200.149ZM68.9472 196.504V198.783H70.2367V199.427H68.9472V201.658H68.1968V196.504H68.9472ZM62.279 198.043V197.418H64.4537V196.437H65.2043V197.418H67.3788V198.043H62.279ZM62.7698 199.985C62.765 199.072 63.5878 198.466 64.829 198.466C66.0558 198.466 66.8785 199.072 66.8881 199.985C66.8785 200.913 66.0558 201.514 64.829 201.514C63.5878 201.514 62.765 200.913 62.7698 199.985ZM63.4915 199.985C63.4868 200.567 64.0207 200.928 64.829 200.937C65.6276 200.928 66.1665 200.567 66.1761 199.985C66.1665 199.427 65.6276 199.052 64.829 199.052C64.0207 199.052 63.4868 199.427 63.4915 199.985ZM63.5492 204.937V202.149H68.9472V204.937H63.5492ZM64.2901 204.322H68.1968V202.755H64.2901V204.322ZM72.9583 197.543C72.9487 199.336 72.6985 201.356 71.4477 203.014L70.851 202.668C71.9191 201.331 72.2367 199.74 72.2993 198.168H71.0243V197.543H72.9583ZM72.7754 203.226C73.9542 201.716 74.1612 199.764 74.1948 198.168H73.2277V197.543H74.8538C74.8538 198.24 74.8346 199.043 74.7288 199.87H75.8642V196.735H76.5859V204.62H75.8642V200.495H74.6278C74.4305 201.563 74.06 202.644 73.3624 203.582L72.7754 203.226ZM77.4616 205.053V196.504H78.1929V205.053H77.4616ZM84.2327 197.167C85.397 197.172 86.239 198.172 86.3545 199.774H88.2741V196.504H89.0245V205.073H88.2741V200.399H86.364C86.2822 202.077 85.4259 203.125 84.2327 203.12C82.9674 203.125 82.0821 201.971 82.0869 200.149C82.0821 198.331 82.9674 197.172 84.2327 197.167ZM82.8087 200.149C82.8135 201.538 83.3908 202.452 84.2327 202.447C85.0698 202.452 85.6568 201.538 85.6568 200.149C85.6568 198.759 85.0698 197.845 84.2327 197.841C83.3908 197.845 82.8135 198.759 82.8087 200.149ZM98.3275 201.409V202.043H94.7579V205.053H94.0168V202.043H90.4953V201.409H98.3275ZM91.3804 198.735C91.3854 197.577 92.5931 196.855 94.3927 196.85C96.1867 196.855 97.4041 197.577 97.4041 198.735C97.4041 199.875 96.1867 200.596 94.3927 200.591C92.5931 200.596 91.3854 199.875 91.3804 198.735ZM92.1602 198.735C92.1504 199.495 93.0597 199.985 94.3927 199.985C95.725 199.985 96.6294 199.495 96.6343 198.735C96.6294 197.961 95.725 197.466 94.3927 197.466C93.0597 197.466 92.1504 197.961 92.1602 198.735ZM106.159 196.504V205.073H105.408V200.427H103.744V199.793H105.408V196.504H106.159ZM99.3755 197.928V197.302H103.224V200.293H100.155V202.37C101.632 202.37 102.7 202.322 103.946 202.091L104.004 202.726C102.719 202.957 101.608 203.01 100.058 203.014H99.4043V199.668H102.493V197.928H99.3755ZM110.709 199.13C110.714 200.581 111.767 202.058 113.028 202.601L112.604 203.197C111.604 202.745 110.743 201.76 110.343 200.577C109.944 201.831 109.078 202.918 108.101 203.409L107.649 202.813C108.876 202.226 109.944 200.61 109.949 199.13V198.014H107.928V197.389H112.749V198.014H110.709V199.13ZM113.942 205.053V196.504H114.702V205.053H113.942ZM123.293 196.504V205.053H122.533V196.504H123.293ZM116.326 202.832C118.641 201.736 119.824 200.096 119.993 198.052H116.721V197.437H120.762C120.753 199.894 119.608 202.072 116.74 203.447L116.326 202.832ZM132.616 200.476V201.072H124.783V200.476H132.616ZM125.726 202.322V201.755H131.634V203.572H126.496V204.39H131.913V204.937H125.736V203.053H130.884V202.322H125.726ZM125.774 197.312V196.764H131.605V198.533H126.554V199.283H131.759V199.832H125.803V198.014H130.845V197.312H125.774ZM143.688 200.736V201.341H140.157V202.211C141.783 202.274 142.726 202.765 142.736 203.62C142.726 204.539 141.643 205.034 139.791 205.034C137.929 205.034 136.832 204.539 136.837 203.62C136.832 202.765 137.785 202.279 139.416 202.211V201.341H135.894V200.736H143.688ZM136.346 199.687C137.939 199.538 139.286 198.903 139.372 197.957H136.702V197.341H139.416V196.485H140.157V197.341H142.899V197.957H140.21C140.287 198.903 141.639 199.538 143.226 199.687L142.995 200.273C141.581 200.129 140.31 199.62 139.791 198.754C139.267 199.62 138.001 200.129 136.587 200.273L136.346 199.687ZM137.606 203.62C137.597 204.159 138.405 204.457 139.791 204.447C141.162 204.457 141.971 204.159 141.976 203.62C141.971 203.082 141.162 202.779 139.791 202.774C138.405 202.779 137.597 203.082 137.606 203.62ZM151.519 196.504V200.937H150.778V196.504H151.519ZM144.524 200.254C145.813 199.807 146.727 198.663 146.727 197.408V196.754H147.497V197.408C147.487 198.615 148.411 199.683 149.682 200.1L149.306 200.687C148.301 200.346 147.507 199.629 147.122 198.706C146.737 199.702 145.933 200.485 144.918 200.851L144.524 200.254ZM145.967 201.976V201.37H151.529V203.418H146.727V204.342H151.837V204.957H145.987V202.832H150.778V201.976H145.967ZM160.091 196.504V205.053H159.331V196.504H160.091ZM153.231 198.514V197.899H155.434V196.591H156.194V197.899H158.407V198.514H153.231ZM153.711 201.178C153.707 200.024 154.597 199.216 155.838 199.216C157.065 199.216 157.96 200.024 157.955 201.178C157.96 202.336 157.065 203.14 155.838 203.14C154.597 203.14 153.707 202.336 153.711 201.178ZM154.424 201.178C154.429 201.957 155.021 202.505 155.838 202.495C156.646 202.505 157.238 201.957 157.233 201.178C157.238 200.404 156.646 199.846 155.838 199.851C155.021 199.846 154.429 200.404 154.424 201.178ZM171.211 196.504V205.053H170.451V196.504H171.211ZM164.245 202.832C166.559 201.736 167.743 200.096 167.911 198.052H164.639V197.437H168.681C168.671 199.894 167.526 202.072 164.659 203.447L164.245 202.832ZM180.024 196.504V205.053H179.302V200.572H178.042V204.611H177.349V196.697H178.042V199.947H179.302V196.504H180.024ZM173.029 202.938V197.552H176.233V198.177H173.78V202.293C174.958 202.289 175.771 202.245 176.724 202.053L176.791 202.687C175.761 202.899 174.891 202.933 173.577 202.938H173.029ZM187.903 196.504V200.034H189.337V200.658H187.903V205.053H187.152V196.504H187.903ZM181.235 198.504V197.879H183.438V196.61H184.189V197.879H186.325V198.504H181.235ZM181.726 201.178C181.721 200.024 182.607 199.216 183.823 199.216C185.031 199.216 185.912 200.024 185.921 201.178C185.912 202.336 185.031 203.14 183.823 203.14C182.607 203.14 181.721 202.336 181.726 201.178ZM182.448 201.178C182.443 201.957 183.025 202.505 183.823 202.495C184.612 202.505 185.189 201.957 185.199 201.178C185.189 200.404 184.612 199.846 183.823 199.851C183.025 199.846 182.443 200.404 182.448 201.178ZM194.099 197.36V198.562H196.196V196.504H196.946V205.073H196.196V201.543H194.099V202.889H190.201V197.36H194.099ZM190.952 202.284H193.367V197.957H190.952V202.284ZM194.099 200.918H196.196V199.187H194.099V200.918ZM199.832 203.63L199.082 206.246H198.37L198.899 203.63H199.832ZM211.328 200.312V200.899H207.796V201.697H210.327V203.543H205.246V204.38H210.587V204.957H204.496V203.005H209.586V202.265H204.476V201.697H207.055V200.899H203.543V200.312H211.328ZM203.957 199.341C205.526 199.24 206.863 198.706 207.002 197.85H204.342V197.255H207.055V196.456H207.796V197.255H210.539V197.85H207.854C207.989 198.706 209.326 199.24 210.904 199.341L210.673 199.918C209.245 199.798 207.955 199.355 207.431 198.543C206.902 199.355 205.612 199.798 204.179 199.918L203.957 199.341ZM219.197 196.504V205.073H218.437V200.572H216.561V199.947H218.437V196.504H219.197ZM212.125 202.813C213.381 202.226 214.319 200.764 214.319 199.293V198.61H212.356V197.994H214.319V196.668H215.069V197.994H217.003V198.61H215.059V199.293C215.059 200.702 216.026 202.091 217.292 202.659L216.859 203.245C215.882 202.803 215.079 201.865 214.699 200.74C214.328 201.933 213.534 202.928 212.558 203.399L212.125 202.813ZM228.384 199.505C228.182 198.543 227.359 198.023 226.44 198.023C225.179 198.023 224.202 198.995 224.198 200.793C224.202 202.587 225.179 203.557 226.44 203.562C227.359 203.557 228.177 203.043 228.384 202.091H229.249C228.999 203.515 227.854 204.371 226.44 204.371C224.65 204.371 223.356 202.995 223.361 200.793C223.356 198.591 224.65 197.216 226.44 197.216C227.849 197.216 228.99 198.057 229.249 199.505H228.384ZM231.24 201.139V204.274H230.413V197.312H231.24V199.87H231.307C231.553 199.332 232.02 198.985 232.847 198.985C233.915 198.985 234.627 199.615 234.627 200.956V204.274H233.799V201.014C233.799 200.192 233.348 199.725 232.597 199.725C231.817 199.725 231.24 200.235 231.24 201.139ZM235.761 202.794C235.761 201.596 236.819 201.322 237.724 201.255C238.061 201.231 238.903 201.182 239.138 201.178V200.755C239.138 200.091 238.744 199.706 237.955 199.706C237.296 199.706 236.896 200.01 236.781 200.408H235.915C236.021 199.567 236.838 198.985 237.993 198.985C238.677 198.985 239.961 199.187 239.956 200.831V204.274H239.138V203.562H239.1C238.927 203.913 238.45 204.394 237.541 204.399C236.55 204.394 235.761 203.813 235.761 202.794ZM236.589 202.832C236.593 203.384 237.05 203.664 237.686 203.659C238.619 203.664 239.138 203.038 239.138 202.38V201.856C238.893 201.87 238.07 201.933 237.82 201.947C237.07 201.995 236.593 202.26 236.589 202.832ZM243.621 199.052V199.745H242.524V202.774C242.519 203.442 242.856 203.553 243.207 203.553C243.356 203.553 243.578 203.538 243.698 203.534V204.303C243.568 204.322 243.366 204.342 243.12 204.342C242.423 204.342 241.692 203.908 241.687 202.986V199.745H240.898V199.052H241.687V197.802H242.524V199.052H243.621ZM249.605 199.485C249.306 198.591 248.628 198.023 247.632 198.023C246.4 198.023 245.424 198.995 245.419 200.793C245.424 202.587 246.4 203.557 247.69 203.562C248.863 203.557 249.676 202.779 249.691 201.543H247.873V200.783H250.538V201.534C250.538 203.26 249.35 204.371 247.69 204.371C245.828 204.371 244.577 202.995 244.582 200.793C244.577 198.591 245.842 197.216 247.632 197.216C249.104 197.216 250.239 198.139 250.499 199.485H249.605ZM251.893 204.274V197.312H254.26C255.891 197.312 256.637 198.283 256.637 199.524C256.637 200.759 255.891 201.745 254.27 201.745H252.759V204.274H251.893ZM252.759 200.976H254.231C255.343 200.976 255.775 200.351 255.78 199.524C255.775 198.692 255.343 198.081 254.221 198.081H252.759V200.976ZM257.521 198.081V197.312H262.775V198.081H260.59V204.274H259.715V198.081H257.521ZM264.139 204.332C263.803 204.327 263.514 204.048 263.524 203.707C263.514 203.37 263.803 203.091 264.139 203.091C264.481 203.091 264.76 203.37 264.755 203.707C264.76 204.048 264.481 204.327 264.139 204.332Z" fill="#19191B"/>
<path d="M255.794 223.351V230.81H254.856V224.319H254.814L253 225.524V224.587L254.856 223.351H255.794ZM259.911 230.913C258.256 230.913 257.297 229.522 257.302 227.08C257.297 224.659 258.266 223.248 259.911 223.248C261.55 223.248 262.519 224.659 262.519 227.08C262.519 229.522 261.565 230.913 259.911 230.913ZM258.199 227.08C258.204 229.012 258.828 230.089 259.911 230.089C260.987 230.089 261.617 229.012 261.612 227.08C261.617 225.149 260.982 224.056 259.911 224.052C258.838 224.056 258.204 225.149 258.199 227.08ZM265.882 230.913C264.228 230.913 263.269 229.522 263.274 227.08C263.269 224.659 264.238 223.248 265.882 223.248C267.521 223.248 268.491 224.659 268.491 227.08C268.491 229.522 267.537 230.913 265.882 230.913ZM264.171 227.08C264.176 229.012 264.8 230.089 265.882 230.089C266.96 230.089 267.589 229.012 267.583 227.08C267.589 225.149 266.955 224.056 265.882 224.052C264.81 224.056 264.176 225.149 264.171 227.08ZM272.081 223L269.669 231.934H268.865L271.267 223H272.081ZM275.26 223.351V230.81H274.322V224.319H274.28L272.466 225.524V224.587L274.322 223.351H275.26ZM279.376 230.913C277.722 230.913 276.762 229.522 276.768 227.08C276.762 224.659 277.731 223.248 279.376 223.248C281.015 223.248 281.984 224.659 281.984 227.08C281.984 229.522 281.031 230.913 279.376 230.913ZM277.665 227.08C277.669 229.012 278.294 230.089 279.376 230.089C280.453 230.089 281.082 229.012 281.077 227.08C281.082 225.149 280.448 224.056 279.376 224.052C278.304 224.056 277.669 225.149 277.665 227.08ZM285.348 230.913C283.693 230.913 282.735 229.522 282.74 227.08C282.735 224.659 283.704 223.248 285.348 223.248C286.987 223.248 287.956 224.659 287.956 227.08C287.956 229.522 287.003 230.913 285.348 230.913ZM283.637 227.08C283.642 229.012 284.266 230.089 285.348 230.089C286.425 230.089 287.055 229.012 287.049 227.08C287.055 225.149 286.421 224.056 285.348 224.052C284.276 224.056 283.642 225.149 283.637 227.08Z" fill="#61646B"/>
<path fill-rule="evenodd" clip-rule="evenodd" d="M59.7085 224.027C59.7085 223.218 60.365 222.562 61.1748 222.562C61.9846 222.562 62.641 223.218 62.641 224.027C62.641 224.836 61.9846 225.492 61.1748 225.492C60.365 225.492 59.7085 224.836 59.7085 224.027ZM61.1748 223.734C61.0128 223.734 60.8815 223.866 60.8815 224.027C60.8815 224.189 61.0128 224.32 61.1748 224.32C61.3367 224.32 61.468 224.189 61.468 224.027C61.468 223.866 61.3367 223.734 61.1748 223.734Z" fill="#61646B"/>
<path fill-rule="evenodd" clip-rule="evenodd" d="M57.3628 221.976C57.3628 221.005 58.1506 220.218 59.1223 220.218H67.3333C68.305 220.218 69.0928 221.005 69.0928 221.976V230.182C69.0928 231.153 68.305 231.941 67.3333 231.941H59.1223C58.1506 231.941 57.3628 231.153 57.3628 230.182V221.976ZM59.1223 221.39C58.7984 221.39 58.5358 221.653 58.5358 221.976V230.182C58.5358 230.434 58.6941 230.648 58.9165 230.731L65.1591 224.492C65.3881 224.264 65.7595 224.264 65.9885 224.492L67.9198 226.422V221.976C67.9198 221.653 67.6572 221.39 67.3333 221.39H59.1223ZM67.9198 228.08L65.5738 225.736L60.5383 230.768H67.3333C67.6572 230.768 67.9198 230.506 67.9198 230.182V228.08Z" fill="#61646B"/>
<path d="M40.706 229.983L39.4603 231.193C39.1337 231.519 38.6906 231.702 38.2287 231.702C37.7668 231.702 37.3237 231.519 36.997 231.193C36.6704 230.866 36.4869 230.423 36.4869 229.962C36.4869 229.5 36.6704 229.057 36.997 228.731L40.1923 225.53C40.5059 225.216 40.9285 225.034 41.3726 225.023C41.8166 225.011 42.2483 225.17 42.5781 225.467L42.6626 225.537C42.7961 225.668 42.976 225.74 43.1627 225.739C43.3495 225.736 43.5278 225.661 43.6585 225.527C43.7892 225.393 43.8614 225.214 43.8595 225.027C43.8575 224.84 43.7814 224.662 43.6479 224.532C43.6082 224.48 43.5659 224.431 43.5212 224.384C42.9205 223.861 42.1435 223.587 41.3476 223.616C40.5518 223.645 39.7966 223.975 39.2351 224.539L35.9976 227.739C35.4475 228.338 35.15 229.125 35.1672 229.938C35.1845 230.75 35.515 231.525 36.09 232.099C36.665 232.674 37.4398 233.004 38.2528 233.021C39.0658 233.038 39.8539 232.741 40.4527 232.191L41.6702 231.003C41.7905 230.872 41.8566 230.7 41.8552 230.522C41.8538 230.344 41.7852 230.173 41.663 230.045C41.5408 229.915 41.3742 229.837 41.1966 229.825C41.0191 229.814 40.8438 229.87 40.706 229.983ZM48.2296 219.967C47.6376 219.379 46.8368 219.049 46.0021 219.049C45.1675 219.049 44.3667 219.379 43.7746 219.967L42.557 221.155C42.4368 221.286 42.3707 221.459 42.3721 221.636C42.3734 221.814 42.4421 221.985 42.5643 222.114C42.6864 222.243 42.8531 222.322 43.0307 222.333C43.2082 222.344 43.3835 222.288 43.5212 222.175L44.7388 220.966C45.0655 220.639 45.5085 220.456 45.9704 220.456C46.4324 220.456 46.8754 220.639 47.2021 220.966C47.5288 221.292 47.7123 221.735 47.7123 222.196C47.7123 222.658 47.5288 223.101 47.2021 223.427L44.0068 226.628C43.6932 226.942 43.2707 227.124 42.8266 227.136C42.3825 227.147 41.9508 226.988 41.621 226.691L41.5365 226.621C41.4031 226.49 41.2232 226.418 41.0364 226.42C40.8497 226.422 40.6713 226.498 40.5406 226.631C40.41 226.765 40.3377 226.944 40.3397 227.131C40.3417 227.318 40.4177 227.496 40.5512 227.626C40.6024 227.678 40.6564 227.728 40.7131 227.774C41.3146 228.295 42.0913 228.569 42.8866 228.54C43.682 228.511 44.4369 228.182 44.9992 227.619L48.2015 224.419C48.7936 223.831 49.1289 223.033 49.1342 222.199C49.1395 221.364 48.8143 220.562 48.2296 219.967Z" fill="#61646B"/>
<path d="M89.9723 242.96H40.7064C36.8195 242.96 33.6685 246.109 33.6685 249.994V299.23C33.6685 303.114 36.8195 306.263 40.7064 306.263H89.9723C93.8592 306.263 97.0102 303.114 97.0102 299.23V249.994C97.0102 246.109 93.8592 242.96 89.9723 242.96Z" fill="#AFB1B6"/>
<path fill-rule="evenodd" clip-rule="evenodd" d="M86.453 260.544C90.3399 260.544 93.491 257.395 93.491 253.51C93.491 249.626 90.3399 246.477 86.453 246.477C82.5661 246.477 79.415 249.626 79.415 253.51C79.415 257.395 82.5661 260.544 86.453 260.544ZM83.844 250.903C84.1188 250.628 84.5644 250.628 84.8393 250.903L86.453 252.516L88.0668 250.903C88.3416 250.628 88.7872 250.628 89.0621 250.903C89.3369 251.177 89.3369 251.623 89.0621 251.897L87.4483 253.51L89.0621 255.123C89.3369 255.397 89.3369 255.843 89.0621 256.118C88.7872 256.393 88.3416 256.393 88.0668 256.118L86.453 254.505L84.8393 256.118C84.5644 256.393 84.1188 256.393 83.844 256.118C83.5691 255.843 83.5691 255.397 83.844 255.123L85.4577 253.51L83.844 251.897C83.5691 251.623 83.5691 251.177 83.844 250.903Z" fill="#1B1B1B"/>
<path fill-rule="evenodd" clip-rule="evenodd" d="M71.64 268.928C72.9406 268.928 73.9948 267.838 73.9948 266.494C73.9948 265.15 72.9406 264.061 71.64 264.061C70.3395 264.061 69.2852 265.15 69.2852 266.494C69.2852 267.838 70.3395 268.928 71.64 268.928ZM65.1225 283.664H51.5709C50.7785 283.664 50.295 282.772 50.7138 282.082L59.7513 267.214C60.1402 266.574 61.0419 266.558 61.4469 267.187C62.8603 269.383 65.7595 273.896 68.2533 277.828L70.8712 273.496C71.2514 272.867 72.1342 272.838 72.5526 273.441L78.5225 282.045C78.9951 282.727 78.5279 283.671 77.7122 283.68L71.9269 283.737L65.1225 283.664Z" fill="#EFEFF0"/>
<path d="M160.352 242.96H111.086C107.199 242.96 104.048 246.109 104.048 249.994V299.23C104.048 303.114 107.199 306.263 111.086 306.263H160.352C164.239 306.263 167.39 303.114 167.39 299.23V249.994C167.39 246.109 164.239 242.96 160.352 242.96Z" fill="#AFB1B6"/>
<path fill-rule="evenodd" clip-rule="evenodd" d="M156.129 260.544C160.016 260.544 163.167 257.395 163.167 253.51C163.167 249.626 160.016 246.477 156.129 246.477C152.242 246.477 149.091 249.626 149.091 253.51C149.091 257.395 152.242 260.544 156.129 260.544ZM153.52 250.903C153.795 250.628 154.241 250.628 154.515 250.903L156.129 252.516L157.743 250.903C158.018 250.628 158.464 250.628 158.738 250.903C159.013 251.177 159.013 251.623 158.738 251.897L157.124 253.51L158.738 255.123C159.013 255.397 159.013 255.843 158.738 256.118C158.464 256.393 158.018 256.393 157.743 256.118L156.129 254.505L154.515 256.118C154.241 256.393 153.795 256.393 153.52 256.118C153.245 255.843 153.245 255.397 153.52 255.123L155.134 253.51L153.52 251.897C153.245 251.623 153.245 251.177 153.52 250.903Z" fill="#1B1B1B"/>
<path d="M134.312 278.515L133.066 279.725C132.739 280.051 132.296 280.235 131.834 280.235C131.372 280.235 130.929 280.051 130.603 279.725C130.276 279.398 130.092 278.955 130.092 278.494C130.092 278.032 130.276 277.589 130.603 277.263L133.798 274.063C134.111 273.748 134.534 273.566 134.978 273.555C135.422 273.543 135.854 273.702 136.184 273.999L136.268 274.07C136.401 274.2 136.581 274.272 136.768 274.271C136.955 274.269 137.133 274.193 137.264 274.059C137.394 273.925 137.467 273.746 137.465 273.559C137.463 273.373 137.386 273.195 137.253 273.064C137.213 273.012 137.171 272.963 137.127 272.916C136.526 272.394 135.749 272.119 134.953 272.148C134.157 272.177 133.402 272.507 132.841 273.071L129.603 276.271C129.053 276.87 128.755 277.658 128.773 278.47C128.79 279.282 129.12 280.057 129.695 280.631C130.27 281.206 131.045 281.537 131.858 281.554C132.671 281.57 133.459 281.274 134.058 280.724L135.276 279.535C135.396 279.404 135.462 279.232 135.461 279.054C135.459 278.876 135.391 278.706 135.269 278.577C135.146 278.447 134.98 278.369 134.802 278.357C134.625 278.346 134.45 278.402 134.312 278.515ZM141.835 268.499C141.243 267.911 140.442 267.581 139.608 267.581C138.773 267.581 137.972 267.911 137.38 268.499L136.163 269.688C136.042 269.818 135.976 269.991 135.977 270.168C135.979 270.346 136.048 270.517 136.17 270.646C136.292 270.775 136.458 270.854 136.636 270.865C136.814 270.876 136.989 270.82 137.127 270.708L138.344 269.498C138.671 269.171 139.114 268.988 139.576 268.988C140.038 268.988 140.481 269.171 140.808 269.498C141.134 269.824 141.318 270.267 141.318 270.729C141.318 271.19 141.134 271.633 140.808 271.96L137.612 275.16C137.299 275.474 136.876 275.656 136.432 275.668C135.988 275.68 135.557 275.521 135.227 275.223L135.142 275.153C135.008 275.022 134.829 274.95 134.642 274.952C134.455 274.954 134.276 275.03 134.146 275.163C134.015 275.297 133.943 275.476 133.945 275.663C133.947 275.85 134.023 276.028 134.157 276.159C134.207 276.211 134.262 276.26 134.319 276.306C134.92 276.828 135.697 277.101 136.492 277.072C137.287 277.043 138.042 276.714 138.605 276.152L141.807 272.951C142.399 272.363 142.735 271.565 142.74 270.731C142.745 269.897 142.42 269.095 141.835 268.499Z" fill="#AFB1B6"/>
<path d="M134.312 278.515L133.066 279.725C132.739 280.051 132.296 280.235 131.834 280.235C131.372 280.235 130.929 280.051 130.603 279.725C130.276 279.398 130.092 278.955 130.092 278.494C130.092 278.032 130.276 277.589 130.603 277.263L133.798 274.063C134.111 273.748 134.534 273.566 134.978 273.555C135.422 273.543 135.854 273.702 136.184 273.999L136.268 274.07C136.401 274.2 136.581 274.272 136.768 274.271C136.955 274.269 137.133 274.193 137.264 274.059C137.394 273.925 137.467 273.746 137.465 273.559C137.463 273.373 137.386 273.195 137.253 273.064C137.213 273.012 137.171 272.963 137.127 272.916C136.526 272.394 135.749 272.119 134.953 272.148C134.157 272.177 133.402 272.507 132.841 273.071L129.603 276.271C129.053 276.87 128.755 277.658 128.773 278.47C128.79 279.282 129.12 280.057 129.695 280.631C130.27 281.206 131.045 281.537 131.858 281.554C132.671 281.57 133.459 281.274 134.058 280.724L135.276 279.535C135.396 279.404 135.462 279.232 135.461 279.054C135.459 278.876 135.391 278.706 135.269 278.577C135.146 278.447 134.98 278.369 134.802 278.357C134.625 278.346 134.45 278.402 134.312 278.515ZM141.835 268.499C141.243 267.911 140.442 267.581 139.608 267.581C138.773 267.581 137.972 267.911 137.38 268.499L136.163 269.688C136.042 269.818 135.976 269.991 135.977 270.168C135.979 270.346 136.048 270.517 136.17 270.646C136.292 270.775 136.458 270.854 136.636 270.865C136.814 270.876 136.989 270.82 137.127 270.708L138.344 269.498C138.671 269.171 139.114 268.988 139.576 268.988C140.038 268.988 140.481 269.171 140.808 269.498C141.134 269.824 141.318 270.267 141.318 270.729C141.318 271.19 141.134 271.633 140.808 271.96L137.612 275.16C137.299 275.474 136.876 275.656 136.432 275.668C135.988 275.68 135.557 275.521 135.227 275.223L135.142 275.153C135.008 275.022 134.829 274.95 134.642 274.952C134.455 274.954 134.276 275.03 134.146 275.163C134.015 275.297 133.943 275.476 133.945 275.663C133.947 275.85 134.023 276.028 134.157 276.159C134.207 276.211 134.262 276.26 134.319 276.306C134.92 276.828 135.697 277.101 136.492 277.072C137.287 277.043 138.042 276.714 138.605 276.152L141.807 272.951C142.399 272.363 142.735 271.565 142.74 270.731C142.745 269.897 142.42 269.095 141.835 268.499Z" fill="#DEE7EE"/>
<g filter="url(#filter0_d_2950_3747)">
<path d="M7.88893 44.5H278.7C280.59 44.5 282.089 45.9691 282.089 47.7409V72.2267C282.089 73.9984 280.59 75.4675 278.7 75.4675H7.88893C5.99881 75.4675 4.5 73.9984 4.5 72.2267V47.7409C4.5 45.9691 5.99881 44.5 7.88893 44.5Z" fill="white" stroke="#AFB1B6"/>
<path d="M16.374 55.9023H27.6873" stroke="#AFB1B6" stroke-width="2" stroke-linecap="round"/>
<path d="M16.374 59.9834H27.6873" stroke="#AFB1B6" stroke-width="2" stroke-linecap="round"/>
<path d="M16.374 64.0645H27.6873" stroke="#AFB1B6" stroke-width="2" stroke-linecap="round"/>
<path d="M59.506 51.8223H44.6573C39.9712 51.8223 36.1724 55.4765 36.1724 59.9842C36.1724 64.4919 39.9712 68.1461 44.6573 68.1461H59.506C64.1921 68.1461 67.9909 64.4919 67.9909 59.9842C67.9909 55.4765 64.1921 51.8223 59.506 51.8223Z" fill="#EBF4FF"/>
<path d="M45.3144 63.3842L45.3047 62.7705L47.6925 60.3528C48.5239 59.5065 48.9202 59.0509 48.9202 58.4278C48.9202 57.7397 48.3112 57.284 47.5281 57.284C46.6968 57.284 46.1651 57.7955 46.1651 58.5487H45.3434C45.3337 57.3584 46.2907 56.5587 47.5572 56.5587C48.8235 56.5587 49.7322 57.3771 49.7322 58.4278C49.7322 59.181 49.3649 59.7669 48.1275 60.9944L46.5228 62.5845V62.6403H49.8579V63.3842H45.3144ZM53.7039 56.2798C54.9897 56.2704 55.908 56.9493 55.908 57.9629C55.908 58.9672 54.9897 59.6646 53.7039 59.6553C52.4183 59.6646 51.4999 58.9672 51.4999 57.9629C51.4999 56.9493 52.4183 56.2704 53.7039 56.2798ZM53.7039 56.8749C52.8436 56.8656 52.2346 57.3212 52.2442 57.9629C52.2346 58.6138 52.8436 59.0602 53.7039 59.0509C54.574 59.0602 55.183 58.6138 55.183 57.9629C55.183 57.3212 54.574 56.8656 53.7039 56.8749ZM57.9575 55.8799V64.1468H57.2131V55.8799H57.9575ZM50.8521 60.362C52.4665 60.362 54.6707 60.3341 56.5848 60.0644L56.6331 60.6131C55.8114 60.7572 54.9559 60.8456 54.1293 60.8921V63.8864H53.3753V60.9386C52.5004 60.9758 51.6738 60.9804 50.9585 60.9851L50.8521 60.362Z" fill="#0047FF"/>
<path d="M82.4306 55.1377V64.5855H81.58V59.6969H80.1659V64.0967H79.3478V55.3502H80.1659V58.9848H81.58V55.1377H82.4306ZM74.5425 62.1412V56.2961H75.4037V61.3973C76.3759 61.392 77.4259 61.3229 78.6188 61.0891L78.7298 61.8331C77.3595 62.0721 76.2324 62.1412 75.1499 62.1412H74.5425ZM91.4417 55.1377V58.9848H93.0326V59.6863H91.4417V64.5855H90.5797V55.1377H91.4417ZM83.907 62.1306C86.4426 60.9191 87.8235 59.0964 88.0222 56.8593H84.3603V56.1579H88.9004C88.8955 58.8308 87.5916 61.2698 84.3928 62.7895L83.907 62.1306ZM101.388 57.954V59.0698H105.476V59.7607H96.4831V59.0698H100.538V57.954H101.388ZM96.9689 57.9008C98.6645 57.768 100.316 57.0613 100.4 56.0941H97.3111V55.4353H104.647V56.0941H101.537C101.62 57.0613 103.256 57.768 104.968 57.9008L104.68 58.5279C103.046 58.3791 101.504 57.7627 100.974 56.769C100.443 57.7627 98.8971 58.3791 97.256 58.5279L96.9689 57.9008ZM97.3337 61.6736V61.0147H100.538V60.122H101.399V61.0147H104.625V61.6736H97.3337ZM98.0076 63.3846C98.0019 62.5663 99.0569 62.1465 100.968 62.1412C102.863 62.1465 103.94 62.5663 103.94 63.3846C103.94 64.2136 102.863 64.644 100.968 64.6387C99.0569 64.644 98.0019 64.2136 98.0076 63.3846ZM98.8801 63.3846C98.8801 63.8204 99.6424 64.0648 100.968 64.0542C102.3 64.0648 103.051 63.8204 103.056 63.3846C103.051 62.9489 102.3 62.7311 100.968 62.7257C99.6424 62.7311 98.8801 62.9489 98.8801 63.3846ZM108.919 55.871C110.367 55.8763 111.394 57.157 111.405 59.1655C111.394 61.1794 110.367 62.4547 108.919 62.4494C107.461 62.4547 106.439 61.1794 106.444 59.1655C106.439 57.157 107.461 55.8763 108.919 55.871ZM107.262 59.1655C107.267 60.7012 107.947 61.7108 108.919 61.7055C109.902 61.7108 110.565 60.7012 110.565 59.1655C110.565 57.6299 109.902 56.6202 108.919 56.6149C107.947 56.6202 107.267 57.6299 107.262 59.1655ZM113.029 64.5855V55.1377H113.891V58.9105H115.537V59.6331H113.891V64.5855H113.029ZM123.687 55.1377V59.038H125.333V59.7288H123.687V64.5855H122.825V55.1377H123.687ZM116.03 57.3482V56.6574H118.56V55.2546H119.421V56.6574H121.874V57.3482H116.03ZM116.593 60.3027C116.588 59.0274 117.604 58.1346 119.002 58.1346C120.389 58.1346 121.399 59.0274 121.41 60.3027C121.399 61.5833 120.389 62.4706 119.002 62.4706C117.604 62.4706 116.588 61.5833 116.593 60.3027ZM117.422 60.3027C117.416 61.1635 118.085 61.7693 119.002 61.7586C119.908 61.7693 120.57 61.1635 120.582 60.3027C120.57 59.4471 119.908 58.8308 119.002 58.8361C118.085 58.8308 117.416 59.4471 117.422 60.3027ZM133.825 58.0072V58.6766H127.096V55.4884H127.958V58.0072H133.825ZM125.87 60.6428V59.9626H134.863V60.6428H125.87ZM127.041 64.3518V61.6098H127.903V63.6609H133.88V64.3518H127.041ZM146.677 55.1483V61.5461H145.804V58.5066H143.65V57.8052H145.804V55.1483H146.677ZM138.7 60.2601C141.047 59.564 142.501 58.2515 142.682 56.5724H139.186V55.8923H143.605C143.599 58.3153 141.909 60.0582 139.087 60.9297L138.7 60.2601ZM139.727 63.8948C141.467 63.6025 143.053 62.5451 143.064 61.1529V60.7171H143.915V61.1529C143.92 62.5291 145.489 63.5653 147.218 63.8629L146.853 64.5324C145.406 64.2667 144.069 63.5281 143.489 62.4228C142.892 63.5388 141.545 64.2774 140.081 64.5537L139.727 63.8948ZM154.369 56.0304V63.7247H153.363V57.0294H153.32L151.375 58.2728V57.3057L153.363 56.0304H154.369Z" fill="#19191B"/>
</g>
</g>
<defs>
<filter id="filter0_d_2950_3747" x="0" y="44" width="286.589" height="39.9678" filterUnits="userSpaceOnUse" color-interpolation-filters="sRGB">
<feFlood flood-opacity="0" result="BackgroundImageFix"/>
<feColorMatrix in="SourceAlpha" type="matrix" values="0 0 0 0 0 0 0 0 0 0 0 0 0 0 0 0 0 0 127 0" result="hardAlpha"/>
<feOffset dy="4"/>
<feGaussianBlur stdDeviation="2"/>
<feComposite in2="hardAlpha" operator="out"/>
<feColorMatrix type="matrix" values="0 0 0 0 0 0 0 0 0 0 0 0 0 0 0 0 0 0 0.25 0"/>
<feBlend mode="normal" in2="BackgroundImageFix" result="effect1_dropShadow_2950_3747"/>
<feBlend mode="normal" in="SourceGraphic" in2="effect1_dropShadow_2950_3747" result="shape"/>
</filter>
<clipPath id="clip0_2950_3747">
<rect width="300" height="315" fill="white"/>
</clipPath>
</defs>
</svg>
