<svg xmlns="http://www.w3.org/2000/svg" width="none" height="none" fill="none" viewBox="0 0 512 512"><path d="M291.48 449.94A15 15 0 0 1 278 441.5l-70.5-144.93-144.93-70.49a15.002 15.002 0 0 1 1-27.41L435.48 49.08A14.999 14.999 0 0 1 455 68.6L305.4 440.54a15.004 15.004 0 0 1-13.4 9.39l-.52.01Zm-185.38-236 119.18 58a14.999 14.999 0 0 1 6.93 6.93l58 119.18L414 90 106.1 213.94Z"/><path d="M218.72 300.35a15 15 0 0 1-10.6-25.61L430.47 52.39a14.996 14.996 0 0 1 16.349-3.248 15.003 15.003 0 0 1 8.114 19.602 15.001 15.001 0 0 1-3.253 4.866L229.33 296a15.002 15.002 0 0 1-10.61 4.35Z"/></svg>