<svg xmlns="http://www.w3.org/2000/svg" width="18" height="18" fill="none"><path fill="#61646B" fill-rule="evenodd" d="M4 6.083a2.083 2.083 0 1 1 4.167 0 2.083 2.083 0 0 1-4.167 0Zm2.083-.416a.417.417 0 1 0 0 .833.417.417 0 0 0 0-.833Z" clip-rule="evenodd"/><path fill="#61646B" fill-rule="evenodd" d="M.667 3.167a2.5 2.5 0 0 1 2.5-2.5h11.666a2.5 2.5 0 0 1 2.5 2.5v11.666a2.5 2.5 0 0 1-2.5 2.5H3.167a2.5 2.5 0 0 1-2.5-2.5V3.167Zm2.5-.834a.833.833 0 0 0-.834.834v11.666c0 .358.225.663.541.781l8.87-8.87a.833.833 0 0 1 1.179 0l2.744 2.744V3.167a.833.833 0 0 0-.834-.834H3.167Zm12.5 9.512-3.334-3.333-7.154 7.155h9.654c.46 0 .834-.373.834-.834v-2.988Z" clip-rule="evenodd"/></svg>