<svg xmlns="http://www.w3.org/2000/svg" width="20" height="18" fill="none"><path fill="#19191B" fill-rule="evenodd" d="M5.194 1.832c.402-.731.84-1.22 1.488-1.478 1.19-.472 5.447-.472 6.636 0 .648.259 1.085.747 1.488 1.477l.452.867.028.046.039.052c.206.225.55.36.778.36A3.897 3.897 0 0 1 20 7.052v5.795a4.97 4.97 0 0 1-4.97 4.97H4.97A4.97 4.97 0 0 1 0 12.847V7.052a3.897 3.897 0 0 1 3.897-3.896c.227 0 .572-.136.779-.36a.245.245 0 0 0 .016-.02l.051-.079.451-.865Zm8.298.723c-.25-.454-.476-.706-.73-.807l-.119-.04c-1.029-.29-4.608-.277-5.406.04-.253.1-.48.353-.729.807l-.385.744-.094.171c-.08.132-.159.243-.249.341-.506.55-1.256.845-1.883.845l-.164.006A2.397 2.397 0 0 0 1.5 7.052v5.795a3.47 3.47 0 0 0 3.47 3.47h10.06a3.47 3.47 0 0 0 3.47-3.47V7.052a2.397 2.397 0 0 0-2.397-2.396l-.174-.007a2.694 2.694 0 0 1-1.71-.839 2.069 2.069 0 0 1-.287-.41l-.116-.218-.324-.627Z" clip-rule="evenodd"/><path fill="#19191B" d="M15.505 5.5a1 1 0 0 1 .116 1.993l-.117.007a1 1 0 0 1-.126-1.993l.127-.007Z"/><path fill="#19191B" fill-rule="evenodd" d="M6.07 10.128a3.929 3.929 0 1 1 7.858 0 3.929 3.929 0 0 1-7.857 0Zm6.359 0a2.429 2.429 0 1 0-4.857 0 2.429 2.429 0 0 0 4.857 0Z" clip-rule="evenodd"/></svg>