<svg width="16" height="12" viewBox="0 0 16 12" fill="none" xmlns="http://www.w3.org/2000/svg">
    <path d="M14.71 1.20998C14.617 1.11625 14.5064 1.04186 14.3846 0.991091C14.2627 0.940323 14.132 0.914185 14 0.914185C13.868 0.914185 13.7373 0.940323 13.6154 0.991091C13.4936 1.04186 13.383 1.11625 13.29 1.20998L5.84001 8.66998L2.71001 5.52998C2.61349 5.43674 2.49955 5.36343 2.37469 5.31423C2.24984 5.26502 2.11651 5.24089 1.98233 5.24321C1.84815 5.24553 1.71574 5.27426 1.59266 5.32776C1.46959 5.38125 1.35825 5.45846 1.26501 5.55498C1.17177 5.6515 1.09846 5.76545 1.04925 5.8903C1.00005 6.01516 0.97592 6.14848 0.978241 6.28266C0.980563 6.41684 1.00929 6.54925 1.06278 6.67233C1.11628 6.79541 1.19349 6.90674 1.29001 6.99998L5.13001 10.84C5.22297 10.9337 5.33358 11.0081 5.45543 11.0589C5.57729 11.1096 5.708 11.1358 5.84001 11.1358C5.97202 11.1358 6.10273 11.1096 6.22459 11.0589C6.34645 11.0081 6.45705 10.9337 6.55001 10.84L14.71 2.67998C14.8115 2.58634 14.8925 2.47269 14.9479 2.34619C15.0033 2.21969 15.0319 2.08308 15.0319 1.94498C15.0319 1.80688 15.0033 1.67028 14.9479 1.54378C14.8925 1.41728 14.8115 1.30363 14.71 1.20998Z"/>
</svg>