<svg width="12" height="8" viewBox="0 0 12 8" fill="none" xmlns="http://www.w3.org/2000/svg">
<path d="M11.0325 0.407518C10.9628 0.337221 10.8798 0.281425 10.7884 0.243349C10.697 0.205272 10.599 0.185669 10.5 0.185669C10.401 0.185669 10.303 0.205272 10.2116 0.243349C10.1202 0.281425 10.0372 0.337221 9.96749 0.407518L4.37999 6.00252L2.03249 3.64752C1.9601 3.57759 1.87465 3.5226 1.781 3.4857C1.68736 3.4488 1.58737 3.4307 1.48673 3.43244C1.3861 3.43418 1.28679 3.45573 1.19448 3.49585C1.10217 3.53597 1.01867 3.59388 0.948743 3.66627C0.878814 3.73866 0.823828 3.82412 0.786925 3.91776C0.750022 4.0114 0.731925 4.11139 0.733666 4.21203C0.735407 4.31266 0.756953 4.41197 0.797073 4.50428C0.837193 4.59659 0.895102 4.68009 0.967493 4.75002L3.84749 7.63002C3.91722 7.70031 4.00017 7.75611 4.09156 7.79419C4.18296 7.83226 4.28098 7.85187 4.37999 7.85187C4.479 7.85187 4.57703 7.83226 4.66843 7.79419C4.75982 7.75611 4.84277 7.70031 4.91249 7.63002L11.0325 1.51002C11.1086 1.43979 11.1694 1.35455 11.2109 1.25967C11.2525 1.1648 11.2739 1.06234 11.2739 0.958768C11.2739 0.855191 11.2525 0.752738 11.2109 0.657863C11.1694 0.562988 11.1086 0.477749 11.0325 0.407518V0.407518Z" fill="#0047FF"/>
</svg>
