<svg width="none" height="none" viewBox="0 0 18 18" fill="none" xmlns="http://www.w3.org/2000/svg">
<path d="M11.655 8.46741L7.41005 4.22991C7.34033 4.15961 7.25737 4.10381 7.16598 4.06574C7.07459 4.02766 6.97656 4.00806 6.87755 4.00806C6.77854 4.00806 6.68051 4.02766 6.58911 4.06574C6.49772 4.10381 6.41477 4.15961 6.34505 4.22991C6.20536 4.37043 6.12695 4.56052 6.12695 4.75866C6.12695 4.95679 6.20536 5.14688 6.34505 5.28741L10.0575 9.03741L6.34505 12.7499C6.20536 12.8904 6.12695 13.0805 6.12695 13.2787C6.12695 13.4768 6.20536 13.6669 6.34505 13.8074C6.41451 13.8783 6.49734 13.9346 6.58875 13.9733C6.68016 14.0119 6.77832 14.032 6.87755 14.0324C6.97678 14.032 7.07494 14.0119 7.16635 13.9733C7.25775 13.9346 7.34059 13.8783 7.41005 13.8074L11.655 9.56991C11.7312 9.49967 11.7919 9.41444 11.8335 9.31956C11.875 9.22469 11.8965 9.12223 11.8965 9.01866C11.8965 8.91508 11.875 8.81263 11.8335 8.71775C11.7919 8.62288 11.7312 8.53764 11.655 8.46741Z" fill="#61646B"/>
</svg>
