<svg width="18" height="18" viewBox="0 0 18 18" fill="none" xmlns="http://www.w3.org/2000/svg">
<path d="M12.525 14.235H5.47503C5.16003 14.235 4.80753 13.9875 4.70253 13.6875L1.59753 5.00252C1.15503 3.75752 1.67253 3.37502 2.73753 4.14002L5.66253 6.23252C6.15003 6.57002 6.70503 6.39752 6.91503 5.85002L8.23503 2.33252C8.65503 1.20752 9.35253 1.20752 9.77253 2.33252L11.0925 5.85002C11.3025 6.39752 11.8575 6.57002 12.3375 6.23252L15.0825 4.27502C16.2525 3.43502 16.815 3.86252 16.335 5.22002L13.305 13.7025C13.1925 13.9875 12.84 14.235 12.525 14.235Z" stroke="#0047FF" stroke-width="1.5" stroke-linecap="round" stroke-linejoin="round"/>
<path d="M4.875 16.5H13.125" stroke="#0047FF" stroke-width="1.5" stroke-linecap="round" stroke-linejoin="round"/>
</svg>
