<svg width="30" height="30" viewBox="0 0 35 35" fill="none" xmlns="http://www.w3.org/2000/svg">
<g clip-path="url(#clip0_781_4933)">
<rect width="35" height="35" fill="#EFEFF0"/>
<circle cx="17.5" cy="13.8542" r="5.5625" stroke="#AFB1B6" stroke-width="2"/>
<path fill-rule="evenodd" clip-rule="evenodd" d="M17.4997 49.0417C25.9291 49.0417 32.2706 43.1546 32.2706 36.4583C32.2706 29.7621 25.9291 23.875 17.4997 23.875C9.07042 23.875 2.72891 29.7621 2.72891 36.4583C2.72891 43.1546 9.07042 49.0417 17.4997 49.0417ZM17.4997 51.0417C26.762 51.0417 34.2706 44.5125 34.2706 36.4583C34.2706 28.4042 26.762 21.875 17.4997 21.875C8.23747 21.875 0.728912 28.4042 0.728912 36.4583C0.728912 44.5125 8.23747 51.0417 17.4997 51.0417Z" fill="#AFB1B6"/>
</g>
<defs>
<clipPath id="clip0_781_4933">
<rect width="35" height="35" fill="white"/>
</clipPath>
</defs>
</svg>
