<svg xmlns="http://www.w3.org/2000/svg" width="none" height="none" fill="none" viewBox="0 0 17 17"><path d="M15.583 5.128a.708.708 0 0 0-.205-.502l-3.003-3.004a.709.709 0 0 0-.503-.205.708.708 0 0 0-.503.205L9.364 3.627l-7.742 7.742a.709.709 0 0 0-.205.503v3.003a.708.708 0 0 0 .708.708h3.003a.708.708 0 0 0 .539-.205l7.7-7.742 2.01-1.97a.844.844 0 0 0 .157-.233.71.71 0 0 0 0-.17.498.498 0 0 0 0-.1l.05-.035ZM4.838 14.167H2.833v-2.005l7.034-7.034 2.005 2.005-7.034 7.034Zm8.032-8.033L10.866 4.13l1.006-1 1.997 1.998-.999 1.006Z"/></svg>