<svg width="10" height="10" viewBox="0 0 10 10" fill="none" xmlns="http://www.w3.org/2000/svg">
<path d="M6.05752 5.00002L9.28251 1.78252C9.42374 1.64129 9.50308 1.44974 9.50308 1.25002C9.50308 1.05029 9.42374 0.858745 9.28251 0.717517C9.14129 0.576289 8.94974 0.496948 8.75002 0.496948C8.55029 0.496948 8.35874 0.576289 8.21752 0.717517L5.00002 3.94252L1.78252 0.717517C1.64129 0.576289 1.44974 0.496948 1.25002 0.496948C1.05029 0.496948 0.858743 0.576289 0.717515 0.717517C0.576287 0.858745 0.496946 1.05029 0.496946 1.25002C0.496946 1.44974 0.576287 1.64129 0.717515 1.78252L3.94252 5.00002L0.717515 8.21752C0.647219 8.28724 0.591423 8.37019 0.553347 8.46158C0.51527 8.55298 0.495667 8.65101 0.495667 8.75002C0.495667 8.84903 0.51527 8.94706 0.553347 9.03845C0.591423 9.12984 0.647219 9.21279 0.717515 9.28252C0.787237 9.35281 0.870188 9.40861 0.961583 9.44669C1.05298 9.48476 1.15101 9.50437 1.25002 9.50437C1.34902 9.50437 1.44705 9.48476 1.53845 9.44669C1.62984 9.40861 1.71279 9.35281 1.78252 9.28252L5.00002 6.05752L8.21752 9.28252C8.28724 9.35281 8.37019 9.40861 8.46158 9.44669C8.55298 9.48476 8.65101 9.50437 8.75002 9.50437C8.84902 9.50437 8.94705 9.48476 9.03845 9.44669C9.12984 9.40861 9.21279 9.35281 9.28251 9.28252C9.35281 9.21279 9.40861 9.12984 9.44668 9.03845C9.48476 8.94706 9.50436 8.84903 9.50436 8.75002C9.50436 8.65101 9.48476 8.55298 9.44668 8.46158C9.40861 8.37019 9.35281 8.28724 9.28251 8.21752L6.05752 5.00002Z" fill="#FF5454"/>
</svg>
