<svg xmlns="http://www.w3.org/2000/svg" width="25" height="24" fill="none"><path fill="#19191B" fill-rule="evenodd" d="M12.916 23c6.075 0 11-4.925 11-11s-4.925-11-11-11-11 4.925-11 11 4.925 11 11 11ZM10.642 3.29A9.008 9.008 0 0 0 3.972 11h3.994a16.3 16.3 0 0 1 2.676-7.71Zm4.549 0A16.3 16.3 0 0 1 17.866 11h3.995a9.008 9.008 0 0 0-6.67-7.71Zm.668 7.71a14.3 14.3 0 0 0-2.943-7.45A14.3 14.3 0 0 0 9.974 11h5.885Zm-5.885 2h5.885a14.3 14.3 0 0 1-2.943 7.45A14.3 14.3 0 0 1 9.974 13Zm-2.008 0H3.971a9.008 9.008 0 0 0 6.671 7.71A16.3 16.3 0 0 1 7.966 13Zm7.225 7.71A16.3 16.3 0 0 0 17.866 13h3.995a9.008 9.008 0 0 1-6.67 7.71Z" clip-rule="evenodd"/></svg>