<svg xmlns="http://www.w3.org/2000/svg" width="25" height="24" fill="none"><path fill="#19191B" d="M13.175 8.024a2 2 0 0 0-2.225 1.308 1 1 0 1 1-1.887-.664 4 4 0 0 1 7.773 1.333c0 1.53-1.135 2.54-1.945 3.081a8.044 8.044 0 0 1-1.686.848l-.035.013-.01.004h-.005l-.001.001-.318-.948.317.949a1 1 0 0 1-.634-1.897l.016-.006.074-.027a6.045 6.045 0 0 0 1.172-.6c.69-.46 1.055-.95 1.055-1.419v-.001a2 2 0 0 0-1.662-1.975ZM12.916 16a1 1 0 1 0 0 2h.01a1 1 0 1 0 0-2h-.01Z"/><path fill="#19191B" fill-rule="evenodd" d="M1.916 12c0-6.075 4.925-11 11-11s11 4.925 11 11-4.925 11-11 11-11-4.925-11-11Zm11-9a9 9 0 1 0 0 18 9 9 0 0 0 0-18Z" clip-rule="evenodd"/></svg>