<svg width="183" height="45" viewBox="0 0 183 45" fill="none" xmlns="http://www.w3.org/2000/svg">
<rect width="183" height="45" rx="12" fill="#FEE500"/>
<path d="M65.2803 16.5264C65.2729 20.2837 63.9912 23.7261 59.3037 26.0332L58.6592 25.1543C61.1055 23.9604 62.5776 22.4517 63.3687 20.7012L58.9082 21.126L58.7178 20.1152L63.7202 19.7783C63.9546 19.0459 64.0864 18.2769 64.1377 17.4785H59.377V16.5264H65.2803ZM67.4629 28.1865V15.1641H68.6055V20.4668H70.7148V21.4336H68.6055V28.1865H67.4629ZM78.2441 16.5264C78.2368 20.2837 76.9551 23.7261 72.2676 26.0332L71.623 25.1543C74.0693 23.9604 75.5415 22.4517 76.3325 20.7012L71.8721 21.126L71.6816 20.1152L76.6841 19.7783C76.9185 19.0459 77.0503 18.2769 77.1016 17.4785H72.3408V16.5264H78.2441ZM80.4268 28.1865V15.1641H81.5693V20.4668H83.6787V21.4336H81.5693V28.1865H80.4268ZM90.3877 16.0137C93.1562 16.0283 95.1484 17.376 95.1484 19.4268C95.1484 21.3677 93.4199 22.6494 90.9443 22.8179V25.5498H96.3789V26.5166H84.4551V25.5498H89.8164V22.8179C87.3555 22.6421 85.627 21.3604 85.627 19.4268C85.627 17.376 87.6265 16.0283 90.3877 16.0137ZM86.7402 19.4268C86.7329 20.9282 88.2783 21.9023 90.3877 21.917C92.4971 21.9023 94.0352 20.9282 94.0352 19.4268C94.0352 17.9546 92.4971 16.9585 90.3877 16.9658C88.2783 16.9585 86.7329 17.9546 86.7402 19.4268ZM113.107 25.6084V26.5752H101.184V25.6084H106.545V23.1475H102.678V19.1338H110.471V17.083H102.648V16.1309H111.599V20.0713H103.82V22.1953H111.906V23.1475H107.673V25.6084H113.107ZM124.416 16.5557V17.8594C124.416 19.5 124.416 21.353 123.933 24.1875L122.761 24.0703C123.288 21.4043 123.288 19.4561 123.288 17.8594V17.5078H115.437V16.5557H124.416ZM114.147 26.2676V25.3154H126.013V26.2676H114.147ZM137.863 15.1787V24.7002H136.721V15.1787H137.863ZM127.419 19.2803C127.412 17.4053 128.884 16.0942 130.832 16.0869C132.78 16.0942 134.238 17.4053 134.245 19.2803C134.238 21.1772 132.78 22.4956 130.832 22.4883C128.884 22.4956 127.412 21.1772 127.419 19.2803ZM128.547 19.2803C128.532 20.5767 129.514 21.4775 130.832 21.4775C132.128 21.4775 133.117 20.5767 133.117 19.2803C133.117 18.0059 132.128 17.0977 130.832 17.0977C129.514 17.0977 128.532 18.0059 128.547 19.2803ZM129.455 27.9082V23.7334H130.598V26.9414H138.273V27.9082H129.455Z" fill="black" fill-opacity="0.85"/>
<ellipse cx="23.5" cy="21" rx="9.5" ry="7" fill="black"/>
<path d="M18 30L19.2 25H24L18 30Z" fill="black" stroke="black"/>
</svg>
