<svg xmlns="http://www.w3.org/2000/svg" width="18" height="18" fill="none" viewBox="0 0 20 20"><path d="m8 15.55-1.77 1.72a2.475 2.475 0 0 1-3.5-3.5l4.54-4.55a2.46 2.46 0 0 1 3.39-.09l.12.1a1 1 0 1 0 1.4-1.43 2.74 2.74 0 0 0-.18-.21 4.46 4.46 0 0 0-6.09.22l-4.6 4.55a4.48 4.48 0 0 0 6.33 6.33L9.37 17A1 1 0 0 0 8 15.55ZM18.69 1.31a4.49 4.49 0 0 0-6.33 0L10.63 3A1 1 0 0 0 12 4.45l1.73-1.72a2.475 2.475 0 1 1 3.5 3.5l-4.54 4.55a2.46 2.46 0 0 1-3.39.09l-.12-.1a1 1 0 1 0-1.4 1.43c.073.074.15.145.23.21a4.47 4.47 0 0 0 6.09-.22l4.55-4.55a4.49 4.49 0 0 0 .04-6.33Z"/></svg>