<svg xmlns="http://www.w3.org/2000/svg" width="14" height="14" fill="none"><path fill="#AFB1B6" d="M7 7.583a.583.583 0 0 0-.583.584v1.75a.583.583 0 0 0 1.166 0v-1.75A.583.583 0 0 0 7 7.583ZM9.917 5.25V4.083a2.917 2.917 0 1 0-5.834 0V5.25A1.75 1.75 0 0 0 2.333 7v4.083a1.75 1.75 0 0 0 1.75 1.75h5.834a1.75 1.75 0 0 0 1.75-1.75V7a1.75 1.75 0 0 0-1.75-1.75ZM5.25 4.083a1.75 1.75 0 1 1 3.5 0V5.25h-3.5V4.083Zm5.25 7a.583.583 0 0 1-.583.584H4.083a.583.583 0 0 1-.583-.584V7a.583.583 0 0 1 .583-.583h5.834A.583.583 0 0 1 10.5 7v4.083Z"/></svg>