<svg width="25" height="24" viewBox="0 0 25 24" fill="none" xmlns="http://www.w3.org/2000/svg">
<g clip-path="url(#clip0_1621_8373)">
<path fill-rule="evenodd" clip-rule="evenodd" d="M12.9163 8C10.7072 8 8.91629 9.79086 8.91629 12C8.91629 14.2091 10.7072 16 12.9163 16C15.1254 16 16.9163 14.2091 16.9163 12C16.9163 9.79086 15.1254 8 12.9163 8ZM10.9163 12C10.9163 10.8954 11.8117 10 12.9163 10C14.0209 10 14.9163 10.8954 14.9163 12C14.9163 13.1046 14.0209 14 12.9163 14C11.8117 14 10.9163 13.1046 10.9163 12Z" fill="#19191B"/>
<path fill-rule="evenodd" clip-rule="evenodd" d="M21.2312 15.4038L20.3163 15L21.2354 15.3939C21.2854 15.2774 21.3683 15.178 21.474 15.1081C21.5793 15.0383 21.7025 15.0008 21.8288 15H21.9163C22.7119 15 23.475 14.6839 24.0376 14.1213C24.6002 13.5587 24.9163 12.7957 24.9163 12C24.9163 11.2043 24.6002 10.4413 24.0376 9.87868C23.475 9.31607 22.7119 9 21.9163 9H21.7488C21.6225 8.99921 21.4993 8.96167 21.394 8.89195C21.3231 8.84498 21.2624 8.78479 21.2151 8.71507C21.2008 8.64692 21.1794 8.58027 21.1512 8.51624C21.0987 8.39742 21.0831 8.26561 21.1062 8.13782C21.1292 8.01142 21.189 7.89468 21.2782 7.80231L21.333 7.7475C21.6117 7.46896 21.8333 7.13784 21.9842 6.77382C22.1352 6.40963 22.2129 6.01925 22.2129 5.625C22.2129 5.23075 22.1352 4.84037 21.9842 4.47618C21.8334 4.11233 21.6123 3.78174 21.3338 3.50329C21.0552 3.22436 20.7243 3.00308 20.3601 2.85211C19.9959 2.70113 19.6055 2.62343 19.2113 2.62343C18.817 2.62343 18.4267 2.70113 18.0625 2.85211C17.6983 3.00308 17.3674 3.22436 17.0888 3.50329L17.034 3.55811C16.9416 3.64728 16.8249 3.70713 16.6985 3.73005C16.5707 3.75322 16.4389 3.73758 16.3201 3.68514L16.3102 3.68086C16.1937 3.63092 16.0943 3.54801 16.0243 3.44232C15.9546 3.33704 15.9171 3.21374 15.9163 3.0875V3C15.9163 2.20435 15.6002 1.44129 15.0376 0.87868C14.475 0.316071 13.7119 0 12.9163 0C12.1206 0 11.3576 0.316071 10.795 0.87868C10.2324 1.44129 9.91629 2.20435 9.91629 3V3.1675C9.9155 3.29374 9.87796 3.41704 9.80824 3.52232C9.76127 3.59323 9.70108 3.6539 9.63136 3.70122C9.56322 3.71549 9.49656 3.73687 9.43253 3.76514C9.31371 3.81758 9.1819 3.83322 9.05411 3.81005C8.92771 3.78713 8.81097 3.72728 8.7186 3.6381L8.66379 3.58329C8.38517 3.30436 8.05431 3.08308 7.69011 2.93211C7.32592 2.78113 6.93554 2.70343 6.54129 2.70343C6.14704 2.70343 5.75666 2.78113 5.39247 2.93211C5.02845 3.08301 4.69772 3.30415 4.41918 3.58289C4.14044 3.86143 3.9193 4.19216 3.7684 4.55618C3.61742 4.92037 3.53972 5.31075 3.53972 5.705C3.53972 6.09925 3.61742 6.48963 3.7684 6.85382C3.91937 7.21802 4.14065 7.54888 4.41958 7.8275L4.47439 7.88231C4.56357 7.97468 4.62342 8.09142 4.64634 8.21782C4.66951 8.34561 4.65387 8.47742 4.60143 8.59624C4.59292 8.61551 4.58503 8.63505 4.57775 8.65482C4.53273 8.77723 4.45193 8.88327 4.34584 8.95914C4.2422 9.03327 4.11912 9.07526 3.99193 9.08H3.91629C3.12064 9.08 2.35758 9.39607 1.79497 9.95868C1.23236 10.5213 0.91629 11.2844 0.91629 12.08C0.91629 12.8756 1.23236 13.6387 1.79497 14.2013C2.35758 14.7639 3.12064 15.08 3.91629 15.08H4.08379C4.21003 15.0808 4.33333 15.1183 4.43861 15.1881C4.5443 15.258 4.62721 15.3574 4.67715 15.4739L4.68143 15.4838C4.73387 15.6026 4.74951 15.7344 4.72634 15.8622C4.70342 15.9886 4.64357 16.1053 4.5544 16.1977L4.49958 16.2525C4.22065 16.5311 3.99937 16.862 3.8484 17.2262C3.69742 17.5904 3.61972 17.9808 3.61972 18.375C3.61972 18.7692 3.69742 19.1596 3.8484 19.5238C3.99937 19.888 4.22065 20.2189 4.49958 20.4975C4.77803 20.7761 5.10862 20.9971 5.47247 21.1479C5.83666 21.2989 6.22704 21.3766 6.62129 21.3766C7.01554 21.3766 7.40592 21.2989 7.77011 21.1479C8.13414 20.997 8.46486 20.7759 8.74341 20.4971L8.79859 20.4419C8.89096 20.3527 9.00771 20.2929 9.13411 20.27C9.2619 20.2468 9.39371 20.2624 9.51253 20.3149C9.5318 20.3234 9.55134 20.3313 9.57111 20.3385C9.69352 20.3836 9.79955 20.4644 9.87543 20.5704C9.94956 20.6741 9.99155 20.7972 9.99629 20.9244V21C9.99629 21.7957 10.3124 22.5587 10.875 23.1213C11.4376 23.6839 12.2006 24 12.9963 24C13.7919 24 14.555 23.6839 15.1176 23.1213C15.6802 22.5587 15.9963 21.7957 15.9963 21V20.8325C15.9971 20.7063 16.0346 20.583 16.1043 20.4777C16.1743 20.372 16.2737 20.2891 16.3902 20.2391L16.4001 20.2349C16.5189 20.1824 16.6507 20.1668 16.7785 20.19C16.9049 20.2129 17.0216 20.2727 17.114 20.3619L17.1688 20.4167C17.4473 20.6955 17.7784 20.917 18.1425 21.0679C18.5067 21.2189 18.897 21.2966 19.2913 21.2966C19.6855 21.2966 20.0759 21.2189 20.4401 21.0679C20.8041 20.917 21.1349 20.6959 21.4134 20.4171C21.6921 20.1386 21.9133 19.8078 22.0642 19.4438C22.2152 19.0796 22.2929 18.6892 22.2929 18.295C22.2929 17.9008 22.2152 17.5104 22.0642 17.1462C21.9133 16.7822 21.6921 16.4514 21.4134 16.1729L21.3582 16.1177C21.269 16.0253 21.2092 15.9086 21.1862 15.7822C21.1631 15.6544 21.1787 15.5226 21.2312 15.4038ZM12.2092 2.29289C12.3967 2.10536 12.6511 2 12.9163 2C13.1815 2 13.4359 2.10536 13.6234 2.29289C13.8109 2.48043 13.9163 2.73478 13.9163 3V3.09L13.9163 3.09399C13.9184 3.6108 14.0715 4.11572 14.3569 4.54661C14.6412 4.97601 15.0445 5.3132 15.5174 5.51701C16.0006 5.72908 16.536 5.79211 17.0553 5.69796C17.5763 5.60349 18.057 5.35512 18.4356 4.98486L18.4434 4.9771L18.5034 4.9171C18.5963 4.82413 18.707 4.74998 18.8284 4.69965C18.9497 4.64933 19.0799 4.62343 19.2113 4.62343C19.3427 4.62343 19.4728 4.64933 19.5942 4.69965C19.7156 4.74998 19.8259 4.82374 19.9188 4.91671L19.9196 4.9175C20.0126 5.01037 20.0863 5.12066 20.1366 5.24206C20.187 5.36346 20.2129 5.49359 20.2129 5.625C20.2129 5.75641 20.187 5.88654 20.1366 6.00794C20.0863 6.12934 20.0126 6.23963 19.9196 6.3325L19.8592 6.3929L19.8514 6.40073C19.4812 6.77925 19.2328 7.26 19.1383 7.781C19.0563 8.23332 19.0936 8.69798 19.2447 9.12961C19.2566 9.22042 19.2809 9.30938 19.3172 9.39393C19.5207 9.86896 19.8588 10.2741 20.2897 10.5594C20.7206 10.8448 21.2255 10.9979 21.7423 11L21.7463 11H21.9163C22.1815 11 22.4359 11.1054 22.6234 11.2929C22.8109 11.4804 22.9163 11.7348 22.9163 12C22.9163 12.2652 22.8109 12.5196 22.6234 12.7071C22.4359 12.8946 22.1815 13 21.9163 13L21.8263 13L21.8223 13C21.3055 13.0021 20.8006 13.1552 20.3697 13.4406C19.9402 13.725 19.603 14.1283 19.3992 14.6012C19.1872 15.0843 19.1242 15.6198 19.2183 16.139C19.3128 16.66 19.5612 17.1407 19.9314 17.5193L19.9392 17.5271L19.9992 17.5871C20.0922 17.68 20.1663 17.7907 20.2166 17.9121C20.267 18.0335 20.2929 18.1636 20.2929 18.295C20.2929 18.4264 20.267 18.5565 20.2166 18.6779C20.1663 18.7993 20.0926 18.9096 19.9996 19.0025L19.9988 19.0033C19.9059 19.0963 19.7956 19.17 19.6742 19.2203C19.5528 19.2707 19.4227 19.2966 19.2913 19.2966C19.1599 19.2966 19.0297 19.2707 18.9083 19.2203C18.787 19.17 18.6767 19.0963 18.5838 19.0033L18.5234 18.9429L18.5156 18.9351C18.137 18.5649 17.6563 18.3165 17.1353 18.222C16.6161 18.1279 16.0806 18.1909 15.5975 18.4029C15.1246 18.6067 14.7212 18.944 14.4369 19.3734C14.1515 19.8043 13.9984 20.3092 13.9963 20.826L13.9963 20.83V21C13.9963 21.2652 13.8909 21.5196 13.7034 21.7071C13.5159 21.8946 13.2615 22 12.9963 22C12.7311 22 12.4767 21.8946 12.2892 21.7071C12.1016 21.5196 11.9963 21.2652 11.9963 21V20.91L11.996 20.8866C11.9836 20.355 11.8115 19.8395 11.5022 19.407C11.199 18.983 10.7776 18.6581 10.2911 18.4725C9.81425 18.2689 9.28792 18.2095 8.77729 18.302C8.2563 18.3965 7.77554 18.6449 7.39703 19.0151L7.38917 19.0229L7.32917 19.0829C7.2363 19.1759 7.12563 19.25 7.00423 19.3003C6.88283 19.3507 6.7527 19.3766 6.62129 19.3766C6.48988 19.3766 6.35975 19.3507 6.23835 19.3003C6.11695 19.25 6.00666 19.1763 5.91379 19.0833L5.913 19.0825C5.82003 18.9896 5.74627 18.8793 5.69594 18.7579C5.64562 18.6365 5.61972 18.5064 5.61972 18.375C5.61972 18.2436 5.64562 18.1135 5.69594 17.9921C5.74627 17.8707 5.82003 17.7604 5.913 17.6675L5.97339 17.6071L5.98115 17.5993C6.35141 17.2207 6.59978 16.74 6.69425 16.219C6.7884 15.6998 6.72537 15.1643 6.5133 14.6811C6.30949 14.2082 5.9723 13.8049 5.5429 13.5206C5.11201 13.2352 4.60709 13.0821 4.09028 13.08L4.08629 13.08H3.91629C3.65107 13.08 3.39672 12.9746 3.20918 12.7871C3.02165 12.5996 2.91629 12.3452 2.91629 12.08C2.91629 11.8148 3.02165 11.5604 3.20918 11.3729C3.39672 11.1854 3.65107 11.08 3.91629 11.08H4.00629L4.02967 11.0797C4.56127 11.0673 5.07683 10.8952 5.50934 10.5859C5.93327 10.2827 6.25818 9.86133 6.44374 9.37478C6.64742 8.89797 6.70684 8.37163 6.61425 7.861C6.51978 7.34 6.27141 6.85925 5.90115 6.48073L5.8934 6.47289L5.8334 6.41289C5.74042 6.32002 5.66627 6.20934 5.61594 6.08794C5.56562 5.96654 5.53972 5.83642 5.53972 5.705C5.53972 5.57358 5.56562 5.44346 5.61594 5.32206C5.66627 5.20066 5.74003 5.09037 5.833 4.9975L5.83379 4.99671C5.92666 4.90374 6.03695 4.82998 6.15835 4.77965C6.27975 4.72933 6.40987 4.70343 6.54129 4.70343C6.67271 4.70343 6.80283 4.72933 6.92423 4.77965C7.04563 4.82998 7.15592 4.90374 7.24879 4.99671L7.30918 5.05711L7.31703 5.06486C7.69554 5.43512 8.17629 5.68349 8.69729 5.77796C9.14962 5.85998 9.61427 5.82272 10.0459 5.67157C10.1367 5.65969 10.2257 5.63538 10.3102 5.59914C10.7852 5.39555 11.1904 5.0575 11.4757 4.62661C11.7611 4.19572 11.9142 3.6908 11.9163 3.17399L11.9163 3.17V3C11.9163 2.73478 12.0216 2.48043 12.2092 2.29289Z" fill="#19191B"/>
</g>
<defs>
<clipPath id="clip0_1621_8373">
<rect width="24" height="24" fill="white" transform="translate(0.91629)"/>
</clipPath>
</defs>
</svg>
