<svg xmlns="http://www.w3.org/2000/svg" width="25" height="24" fill="none"><g fill="#19191B" fill-rule="evenodd" clip-path="url(#a)" clip-rule="evenodd"><path d="M12.916 8a4 4 0 1 0 0 8 4 4 0 0 0 0-8Zm-2 4a2 2 0 1 1 4 0 2 2 0 0 1-4 0Z"/><path d="M21.231 15.404 20.316 15l.92.394a.65.65 0 0 1 .593-.394h.087a3 3 0 0 0 0-6h-.167a.65.65 0 0 1-.534-.285 1.006 1.006 0 0 0-.064-.199.65.65 0 0 1 .127-.714l.055-.054a3.004 3.004 0 0 0 .651-3.272 3 3 0 0 0-4.895-.973l-.055.055a.65.65 0 0 1-.714.127l-.01-.004a.65.65 0 0 1-.394-.594V3a3 3 0 0 0-6 0v.167a.65.65 0 0 1-.285.534 1 1 0 0 0-.198.064.65.65 0 0 1-.714-.127l-.055-.055A3 3 0 1 0 4.42 7.827l.054.055a.65.65 0 0 1 .127.714l-.023.059a.65.65 0 0 1-.586.425h-.076a3 3 0 1 0 0 6h.168a.65.65 0 0 1 .593.394l.004.01a.65.65 0 0 1-.127.714l-.054.055a3 3 0 0 0 3.27 4.895 3 3 0 0 0 .973-.65l.056-.056a.65.65 0 0 1 .714-.127l.058.023a.651.651 0 0 1 .425.586V21a3 3 0 0 0 6 0v-.168a.65.65 0 0 1 .394-.593l.01-.004a.65.65 0 0 1 .714.127l.055.055a3 3 0 1 0 4.244-4.244l-.055-.055a.65.65 0 0 1-.127-.714ZM12.21 2.293A1 1 0 0 1 13.916 3v.094a2.65 2.65 0 0 0 1.601 2.423 2.65 2.65 0 0 0 2.919-.532l.007-.008.06-.06a1.003 1.003 0 0 1 1.091-.217.999.999 0 0 1 .325 1.633l-.06.06-.008.008a2.65 2.65 0 0 0-.606 2.729c.012.09.036.18.072.264A2.649 2.649 0 0 0 21.742 11H21.916a1 1 0 0 1 0 2h-.094a2.65 2.65 0 0 0-2.423 1.601 2.65 2.65 0 0 0 .532 2.918l.008.008.06.06a1.002 1.002 0 0 1 0 1.416 1 1 0 0 1-1.415 0l-.06-.06-.008-.008a2.651 2.651 0 0 0-2.918-.532 2.65 2.65 0 0 0-1.602 2.423V21a1 1 0 0 1-2 0V20.887a2.65 2.65 0 0 0-1.705-2.415 2.652 2.652 0 0 0-2.894.543l-.008.008-.06.06a1.002 1.002 0 0 1-1.415 0h-.001a1 1 0 0 1 0-1.415l.06-.06.008-.009a2.65 2.65 0 0 0 .532-2.918A2.65 2.65 0 0 0 4.09 13.08H3.916a1 1 0 0 1 0-2H4.03a2.65 2.65 0 0 0 2.414-1.705A2.65 2.65 0 0 0 5.9 6.48l-.008-.008-.06-.06a1.003 1.003 0 0 1 0-1.416 1 1 0 0 1 1.416 0l.06.06.008.008a2.65 2.65 0 0 0 2.729.607 1 1 0 0 0 .264-.073 2.65 2.65 0 0 0 1.606-2.425V3a1 1 0 0 1 .293-.707Z"/></g><defs><clipPath id="a"><path fill="#fff" d="M.916 0h24v24h-24z"/></clipPath></defs></svg>