<svg xmlns="http://www.w3.org/2000/svg" width="17" height="19" fill="none"><path d="M6.75 15.5a.855.855 0 0 0 .619-.269.94.94 0 0 0 .256-.648v-5.5a.94.94 0 0 0-.256-.648.855.855 0 0 0-.619-.268.855.855 0 0 0-.619.268.94.94 0 0 0-.256.648v5.5a.94.94 0 0 0 .256.648.855.855 0 0 0 .619.269Zm8.75-11H12v-.917c0-.73-.277-1.429-.769-1.944A2.566 2.566 0 0 0 9.375.833h-1.75c-.696 0-1.364.29-1.856.806A2.818 2.818 0 0 0 5 3.583V4.5H1.5a.855.855 0 0 0-.619.268.94.94 0 0 0-.256.649.94.94 0 0 0 .256.648.855.855 0 0 0 .619.268h.875v10.084c0 .729.277 1.428.769 1.944s1.16.806 1.856.806h7c.696 0 1.364-.29 1.856-.806a2.818 2.818 0 0 0 .769-1.944V6.333h.875a.855.855 0 0 0 .619-.268.94.94 0 0 0 .256-.648.94.94 0 0 0-.256-.649.855.855 0 0 0-.619-.268Zm-8.75-.917a.94.94 0 0 1 .256-.648.855.855 0 0 1 .619-.268h1.75c.232 0 .455.096.619.268a.94.94 0 0 1 .256.648V4.5h-3.5v-.917Zm6.125 12.834a.94.94 0 0 1-.256.648.855.855 0 0 1-.619.268H5a.855.855 0 0 1-.619-.268.94.94 0 0 1-.256-.648V6.333h8.75v10.084ZM10.25 15.5a.855.855 0 0 0 .619-.269.94.94 0 0 0 .256-.648v-5.5a.94.94 0 0 0-.256-.648.855.855 0 0 0-.619-.268.855.855 0 0 0-.619.268.94.94 0 0 0-.256.648v5.5a.94.94 0 0 0 .256.648.855.855 0 0 0 .619.269Z"/></svg>