<svg xmlns="http://www.w3.org/2000/svg" width="14" height="16" fill="none"><path d="M5.5 12.5a.75.75 0 0 0 .75-.75v-4.5a.75.75 0 0 0-1.5 0v4.5a.75.75 0 0 0 .75.75Zm7.5-9h-3v-.75A2.25 2.25 0 0 0 7.75.5h-1.5A2.25 2.25 0 0 0 4 2.75v.75H1A.75.75 0 0 0 1 5h.75v8.25A2.25 2.25 0 0 0 4 15.5h6a2.25 2.25 0 0 0 2.25-2.25V5H13a.75.75 0 1 0 0-1.5Zm-7.5-.75A.75.75 0 0 1 6.25 2h1.5a.75.75 0 0 1 .75.75v.75h-3v-.75Zm5.25 10.5A.75.75 0 0 1 10 14H4a.75.75 0 0 1-.75-.75V5h7.5v8.25ZM8.5 12.5a.75.75 0 0 0 .75-.75v-4.5a.75.75 0 0 0-1.5 0v4.5a.75.75 0 0 0 .75.75Z"/></svg>