<svg width="25" height="24" viewBox="0 0 25 24" fill="none" xmlns="http://www.w3.org/2000/svg">
<path fill-rule="evenodd" clip-rule="evenodd" d="M10.5188 15.1367C10.3268 15.1367 10.1348 15.0637 9.98879 14.9167C9.69579 14.6237 9.69579 14.1497 9.98879 13.8567L14.7808 9.06469C15.0738 8.77169 15.5478 8.77169 15.8408 9.06469C16.1338 9.35769 16.1338 9.83169 15.8408 10.1247L11.0488 14.9167C10.9028 15.0637 10.7108 15.1367 10.5188 15.1367Z" fill="#19191B"/>
<path fill-rule="evenodd" clip-rule="evenodd" d="M15.3128 15.1396C15.1208 15.1396 14.9288 15.0666 14.7828 14.9196L9.98678 10.1226C9.69378 9.82961 9.69378 9.35562 9.98678 9.06261C10.2808 8.76961 10.7548 8.76961 11.0468 9.06261L15.8428 13.8596C16.1358 14.1526 16.1358 14.6266 15.8428 14.9196C15.6968 15.0666 15.5038 15.1396 15.3128 15.1396Z" fill="#19191B"/>
<path fill-rule="evenodd" clip-rule="evenodd" d="M8.58129 3.5C6.05129 3.5 4.41629 5.233 4.41629 7.916V16.084C4.41629 18.767 6.05129 20.5 8.58129 20.5H17.2493C19.7803 20.5 21.4163 18.767 21.4163 16.084V7.916C21.4163 5.233 19.7803 3.5 17.2503 3.5H8.58129ZM17.2493 22H8.58129C5.19229 22 2.91629 19.622 2.91629 16.084V7.916C2.91629 4.378 5.19229 2 8.58129 2H17.2503C20.6393 2 22.9163 4.378 22.9163 7.916V16.084C22.9163 19.622 20.6393 22 17.2493 22Z" fill="#19191B"/>
</svg>
