<svg width="19" height="20" viewBox="0 0 19 20" fill="none" xmlns="http://www.w3.org/2000/svg">
<path d="M17.8708 2.14592C17.971 2.2508 18.1387 2.25027 18.2383 2.14475L18.7467 1.6062C19.0828 1.25971 19.0828 0.774598 18.7562 0.447922L18.5353 0.210327C18.2377 -0.096582 17.767 -0.0569618 17.4502 0.259831L16.9214 0.797358C16.8254 0.895008 16.8243 1.0513 16.9189 1.15031L17.8708 2.14592ZM7.00117 12.6346L8.87391 11.7931L17.1815 3.23928C17.2775 3.14044 17.2769 2.98301 17.1803 2.88482L16.2204 1.90982C16.1205 1.80843 15.9568 1.80903 15.8578 1.91116L7.56779 10.4566L6.70344 12.3178C6.62661 12.4861 6.81871 12.7138 7.00117 12.6346ZM3.01557 20H14.2905C16.0192 20 17.018 18.9704 17.018 16.931V6.53798C17.018 6.31028 16.7411 6.19804 16.5825 6.36147L15.5433 7.43269C15.4974 7.47999 15.4718 7.5433 15.4718 7.60921V16.8519C15.4718 17.8814 14.9339 18.4061 14.2713 18.4061H3.04438C2.08401 18.4061 1.5462 17.8814 1.5462 16.8519V5.61562C1.5462 4.58604 2.08401 4.05142 3.04438 4.05142H11.2444C11.313 4.05142 11.3787 4.02364 11.4264 3.97443L12.4808 2.88759C12.6367 2.72681 12.5228 2.45757 12.2988 2.45757H3.01557C1.01802 2.45757 0 3.48715 0 5.52649V16.931C0 18.9803 1.01802 20 3.01557 20Z"/>
</svg>
