<svg width="19" height="19" viewBox="0 0 19 19" fill="none" xmlns="http://www.w3.org/2000/svg">
<path d="M17.5081 2.0273C17.6079 2.1285 17.7713 2.12798 17.8704 2.02615L18.364 1.5189C18.6916 1.19125 18.6916 0.732499 18.3732 0.423577L18.1579 0.198896C17.8678 -0.0913327 17.409 -0.0538659 17.1001 0.245709L16.5971 0.741813C16.4974 0.840097 16.4963 1.00055 16.5945 1.10024L17.5081 2.0273ZM6.91452 11.9479L8.74005 11.1521L16.8257 3.07565C16.9254 2.97615 16.9248 2.81454 16.8245 2.71573L15.9032 1.80784C15.8039 1.71009 15.6445 1.71068 15.546 1.80916L7.46686 9.88827L6.62429 11.6483C6.5494 11.8074 6.73666 12.0228 6.91452 11.9479ZM3.02939 18.913H14.02C15.7052 18.913 16.6788 17.9394 16.6788 16.0108V6.20325C16.6788 5.97741 16.4057 5.8643 16.246 6.024L15.2458 7.02422C15.1983 7.07176 15.1716 7.13624 15.1716 7.20347V15.936C15.1716 16.9095 14.6473 17.4057 14.0014 17.4057H3.05747C2.12132 17.4057 1.59707 16.9095 1.59707 15.936V5.3104C1.59707 4.33678 2.12132 3.83122 3.05747 3.83122H11.0504C11.1176 3.83122 11.1821 3.80451 11.2296 3.75697L12.2299 2.75675C12.3896 2.59706 12.2764 2.324 12.0506 2.324H3.02939C1.0822 2.324 0.0898438 3.29762 0.0898438 5.22612V16.0108C0.0898438 17.9487 1.0822 18.913 3.02939 18.913Z"/>
</svg>
