<svg width="20" height="20" viewBox="0 0 20 20" fill="none" xmlns="http://www.w3.org/2000/svg">
<path d="M8.22857 11.4086C8.22857 11.1671 8.03286 10.9714 7.79143 10.9714H0.437143C0.195715 10.9714 0 10.7757 0 10.5343V8.66571C0 8.42429 0.195716 8.22857 0.437143 8.22857H7.79143C8.03286 8.22857 8.22857 8.03286 8.22857 7.79143V0.437143C8.22857 0.195715 8.42429 0 8.66572 0H10.5343C10.7757 0 10.9714 0.195716 10.9714 0.437143V7.79143C10.9714 8.03286 11.1671 8.22857 11.4086 8.22857H18.7629C19.0043 8.22857 19.2 8.42429 19.2 8.66572V10.5343C19.2 10.7757 19.0043 10.9714 18.7629 10.9714H11.4086C11.1671 10.9714 10.9714 11.1671 10.9714 11.4086V18.7629C10.9714 19.0043 10.7757 19.2 10.5343 19.2H8.66571C8.42429 19.2 8.22857 19.0043 8.22857 18.7629V11.4086Z" fill="white"/>
</svg>
