<svg width="22" height="20" viewBox="0 0 22 20" fill="none" xmlns="http://www.w3.org/2000/svg">
<path d="M4.77579 19.6161H17.0231C18.3476 19.6161 19.1219 18.8699 19.1219 17.5547V9.03853L20.325 10.1392C20.521 10.3258 20.7355 10.4563 20.9967 10.4563C21.4351 10.4563 21.7894 10.1858 21.7894 9.73811C21.7894 9.45829 21.6868 9.28106 21.5098 9.12251L18.273 6.16558C18.273 6.16558 16.9747 5.20618 17.0007 5.23097L12.0141 0.466395C11.6876 0.167909 11.2958 0 10.8948 0C10.4937 0 10.1019 0.167909 9.77544 0.466395L0.279821 9.12251C0.111952 9.28106 0 9.45829 0 9.73811C0 10.1858 0.354443 10.4563 0.79286 10.4563C1.06337 10.4563 1.27788 10.3258 1.46445 10.1392L2.66771 9.04785V17.5547C2.66771 18.8699 3.44191 19.6161 4.77579 19.6161ZM13.5811 18.1144C13.5811 18.1144 8.62813 18.1144 8.19907 18.1144L5.09294 18.1144C4.49596 18.1144 4.1695 17.7879 4.1695 17.1816V7.67668L10.5683 1.84688C10.6616 1.75359 10.7735 1.69763 10.8948 1.69763C11.016 1.69763 11.1279 1.74428 11.2306 1.84688L17.62 7.67668V17.1816C17.62 17.7879 17.2935 18.1144 16.7059 18.1144L13.5811 18.1144Z"/>
</svg>
