<svg width="22" height="20" viewBox="0 0 22 20" fill="none" xmlns="http://www.w3.org/2000/svg">
<path d="M4.82194 20H17.1876C18.5249 20 19.3067 19.2392 19.3067 17.8982V9.2154L20.5214 10.3376C20.7193 10.5278 20.9359 10.661 21.1996 10.661C21.6422 10.661 22 10.3852 22 9.92867C22 9.64337 21.8964 9.46268 21.7176 9.30102L18.4495 6.28623C18.4495 6.28623 17.1387 5.30805 17.1649 5.33333L12.1302 0.475522C11.8006 0.171194 11.405 0 11 0C10.5951 0 10.1995 0.171194 9.8699 0.475522L0.282525 9.30102C0.113034 9.46268 0 9.64337 0 9.92867C0 10.3852 0.357868 10.661 0.800522 10.661C1.07364 10.661 1.29023 10.5278 1.47861 10.3376L2.69349 9.2249V17.8982C2.69349 19.2392 3.47517 20 4.82194 20ZM13.7124 18.4689C13.7124 18.4689 8.71151 18.4689 8.2783 18.4689L5.14215 18.4689C4.53941 18.4689 4.20979 18.136 4.20979 17.5178V7.8269L10.6704 1.88302C10.7646 1.7879 10.8776 1.73085 11 1.73085C11.1225 1.73085 11.2355 1.77841 11.3391 1.88302L17.7902 7.8269V17.5178C17.7902 18.136 17.4606 18.4689 16.8674 18.4689H13.7124Z"/>
</svg>
