<svg width="12" height="12" viewBox="0 0 12 12" fill="none" xmlns="http://www.w3.org/2000/svg">
<mask id="mask0_5813_1351" style="mask-type:alpha" maskUnits="userSpaceOnUse" x="0" y="0" width="12" height="12">
<rect width="12" height="12" fill="#D9D9D9"/>
</mask>
<g mask="url(#mask0_5813_1351)">
<path d="M3 11C2.725 11 2.48958 10.9021 2.29375 10.7063C2.09792 10.5104 2 10.275 2 10V5C2 4.725 2.09792 4.48958 2.29375 4.29375C2.48958 4.09792 2.725 4 3 4H3.5V3C3.5 2.30833 3.74375 1.71875 4.23125 1.23125C4.71875 0.74375 5.30833 0.5 6 0.5C6.69167 0.5 7.28125 0.74375 7.76875 1.23125C8.25625 1.71875 8.5 2.30833 8.5 3V4H9C9.275 4 9.51042 4.09792 9.70625 4.29375C9.90208 4.48958 10 4.725 10 5V10C10 10.275 9.90208 10.5104 9.70625 10.7063C9.51042 10.9021 9.275 11 9 11H3ZM3 10H9V5H3V10ZM6 8.5C6.275 8.5 6.51042 8.40208 6.70625 8.20625C6.90208 8.01042 7 7.775 7 7.5C7 7.225 6.90208 6.98958 6.70625 6.79375C6.51042 6.59792 6.275 6.5 6 6.5C5.725 6.5 5.48958 6.59792 5.29375 6.79375C5.09792 6.98958 5 7.225 5 7.5C5 7.775 5.09792 8.01042 5.29375 8.20625C5.48958 8.40208 5.725 8.5 6 8.5ZM4.5 4H7.5V3C7.5 2.58333 7.35417 2.22917 7.0625 1.9375C6.77083 1.64583 6.41667 1.5 6 1.5C5.58333 1.5 5.22917 1.64583 4.9375 1.9375C4.64583 2.22917 4.5 2.58333 4.5 3V4Z"/>
</g>
</svg>
